<?xml version="1.0" encoding="UTF-8"?>
<!DOCTYPE svg PUBLIC "-//W3C//DTD SVG 1.1//EN" "http://www.w3.org/Graphics/SVG/1.1/DTD/svg11.dtd">
<svg xmlns="http://www.w3.org/2000/svg" version="1.1" width="1000px" height="250px" style="shape-rendering:geometricPrecision; text-rendering:geometricPrecision; image-rendering:optimizeQuality; fill-rule:evenodd; clip-rule:evenodd" xmlns:xlink="http://www.w3.org/1999/xlink">
<g><path style="opacity:0.004" fill="#fbfcfb" d="M 120.5,82.5 C 120.897,81.475 121.563,81.3083 122.5,82C 121.906,82.4643 121.239,82.631 120.5,82.5 Z"/></g>
<g><path style="opacity:0.012" fill="#f9faf9" d="M 184.5,82.5 C 185.833,83.1667 185.833,83.1667 184.5,82.5 Z"/></g>
<g><path style="opacity:0.008" fill="#c9c9c9" d="M 143.5,87.5 C 134.392,84.8252 125.059,83.8252 115.5,84.5C 121.234,83.8142 127.067,83.1476 133,82.5C 136.628,84.0878 140.128,85.7544 143.5,87.5 Z"/></g>
<g><path style="opacity:0.004" fill="#fafbfa" d="M 109.5,85.5 C 108.833,84.1667 108.833,84.1667 109.5,85.5 Z"/></g>
<g><path style="opacity:0.075" fill="#dcdcdc" d="M 114.5,84.5 C 113.22,85.9313 111.553,86.5979 109.5,86.5C 109.5,86.1667 109.5,85.8333 109.5,85.5C 111.017,85.4894 112.184,84.8228 113,83.5C 113.383,84.056 113.883,84.3893 114.5,84.5 Z"/></g>
<g><path style="opacity:0.999" fill="#111111" d="M 114.5,84.5 C 114.833,84.5 115.167,84.5 115.5,84.5C 125.059,83.8252 134.392,84.8252 143.5,87.5C 145.153,87.6596 146.486,88.3263 147.5,89.5C 147.973,90.9063 148.973,91.573 150.5,91.5C 151.207,93.1344 152.373,94.4677 154,95.5C 154.304,98.7131 152.804,100.713 149.5,101.5C 147.823,100.813 146.156,100.146 144.5,99.5C 144.027,98.0937 143.027,97.427 141.5,97.5C 138.982,96.7362 136.649,95.7362 134.5,94.5C 134.082,93.7784 133.416,93.2784 132.5,93C 130,92.8333 127.5,92.6667 125,92.5C 121.195,92.3037 117.695,92.9704 114.5,94.5C 112.819,96.0075 110.819,97.0075 108.5,97.5C 106.973,97.427 105.973,98.0937 105.5,99.5C 105.167,100.167 104.833,100.833 104.5,101.5C 103.833,101.833 103.167,102.167 102.5,102.5C 101.094,102.973 100.427,103.973 100.5,105.5C 100.068,106.71 99.4013,107.71 98.5,108.5C 96.8958,109.287 96.2291,110.62 96.5,112.5C 94.4393,116.278 93.4393,120.444 93.5,125C 93.4205,128.451 94.0872,131.618 95.5,134.5C 95.8333,134.5 96.1667,134.5 96.5,134.5C 96.5,135.5 96.5,136.5 96.5,137.5C 96.461,140.089 97.461,142.089 99.5,143.5C 100.338,143.842 100.672,144.508 100.5,145.5C 101.167,148.167 102.833,149.833 105.5,150.5C 108.203,152.181 110.869,153.847 113.5,155.5C 114.78,156.931 116.447,157.598 118.5,157.5C 121.64,158.641 124.973,158.808 128.5,158C 131.522,157.902 134.189,157.068 136.5,155.5C 137.492,155.672 138.158,155.338 138.5,154.5C 139.492,154.672 140.158,154.338 140.5,153.5C 141.492,153.672 142.158,153.338 142.5,152.5C 144.404,152.262 145.738,151.262 146.5,149.5C 148.044,149.297 149.378,148.63 150.5,147.5C 152.149,148.648 153.649,149.981 155,151.5C 154.942,153.435 154.109,155.102 152.5,156.5C 152.5,156.833 152.5,157.167 152.5,157.5C 150.999,158.752 149.332,159.752 147.5,160.5C 146.508,160.328 145.842,160.662 145.5,161.5C 144.486,162.674 143.153,163.34 141.5,163.5C 139.214,163.595 137.214,164.262 135.5,165.5C 130.187,166.098 124.854,166.431 119.5,166.5C 116.219,166.58 113.219,165.913 110.5,164.5C 108.819,162.992 106.819,161.992 104.5,161.5C 103.508,161.672 102.842,161.338 102.5,160.5C 101.738,158.738 100.404,157.738 98.5,157.5C 97.5,157.167 96.8333,156.5 96.5,155.5C 96.1667,154.5 95.5,153.833 94.5,153.5C 93.5,153.167 92.8333,152.5 92.5,151.5C 92.573,149.973 91.9063,148.973 90.5,148.5C 90.6716,147.508 90.3382,146.842 89.5,146.5C 89.6716,145.508 89.3382,144.842 88.5,144.5C 88.6716,143.508 88.3382,142.842 87.5,142.5C 85.3803,134.66 84.3803,126.66 84.5,118.5C 84.5,118.167 84.5,117.833 84.5,117.5C 85.4345,116.432 85.7678,115.099 85.5,113.5C 87.0739,111.898 87.7406,109.898 87.5,107.5C 88.3382,107.158 88.6716,106.492 88.5,105.5C 89.9063,105.027 90.573,104.027 90.5,102.5C 92.2624,101.738 93.2624,100.404 93.5,98.5C 95.5,96.5 97.5,94.5 99.5,92.5C 101.404,92.2624 102.738,91.2624 103.5,89.5C 104.492,89.6716 105.158,89.3382 105.5,88.5C 106.167,87.8333 106.833,87.1667 107.5,86.5C 108.167,86.5 108.833,86.5 109.5,86.5C 111.553,86.5979 113.22,85.9313 114.5,84.5 Z"/></g>
<g><path style="opacity:0.006" fill="#fafafa" d="M 179.5,85.5 C 179.5,86.1667 179.167,86.5 178.5,86.5C 177.732,87.2625 177.232,88.2625 177,89.5C 176.333,88.1667 176.333,86.8333 177,85.5C 177.77,84.4019 178.603,84.4019 179.5,85.5 Z"/></g>
<g><path style="opacity:0.12" fill="#e0e0e0" d="M 236.5,85.5 C 217.5,85.5 198.5,85.5 179.5,85.5C 179.369,84.7611 179.536,84.0944 180,83.5C 198.931,84.1608 217.764,84.8274 236.5,85.5 Z"/></g>
<g><path style="opacity:0.12" fill="#c7c7c7" d="M 312.5,88.5 C 308.873,87.5707 305.207,86.7373 301.5,86C 288.591,85.1783 275.758,85.3449 263,86.5C 262.5,112.498 262.333,138.498 262.5,164.5C 261.829,138.431 261.162,112.264 260.5,86C 262.301,85.6827 262.634,85.016 261.5,84C 275.422,84.298 289.422,84.6313 303.5,85C 306.865,85.5053 309.865,86.672 312.5,88.5 Z"/></g>
<g><path style="opacity:0.004" fill="#f9faf9" d="M 409.5,84.5 C 410.833,85.1667 410.833,85.1667 409.5,84.5 Z"/></g>
<g><path style="opacity:0.004" fill="#fcfdfc" d="M 526.5,85.5 C 525.833,84.1667 525.833,84.1667 526.5,85.5 Z"/></g>
<g><path style="opacity:0.122" fill="#d5d5d5" d="M 527.5,85.5 C 546.996,84.3376 566.662,84.1709 586.5,85C 587.824,90.266 587.824,95.4327 586.5,100.5C 586.803,95.57 586.469,90.7367 585.5,86C 566.503,85.5001 547.503,85.3334 528.5,85.5C 528.167,85.5 527.833,85.5 527.5,85.5 Z"/></g>
<g><path style="opacity:0.125" fill="#e3e3e3" d="M 863.5,85.5 C 858.073,85.2175 852.74,85.5509 847.5,86.5C 847.167,86.5 846.833,86.5 846.5,86.5C 845.15,85.1765 845.317,84.1765 847,83.5C 852.645,84.1023 858.145,84.769 863.5,85.5 Z"/></g>
<g><path style="opacity:0.012" fill="#f9faf9" d="M 896.5,85.5 C 895.833,84.1667 895.833,84.1667 896.5,85.5 Z"/></g>
<g><path style="opacity:0.124" fill="#dadada" d="M 913.5,85.5 C 908.489,85.3341 903.489,85.5007 898.5,86C 897.944,86.3826 897.611,86.8826 897.5,87.5C 897.167,87.5 896.833,87.5 896.5,87.5C 896.5,86.8333 896.5,86.1667 896.5,85.5C 897.222,85.0825 897.722,84.4158 898,83.5C 903.267,84.1451 908.433,84.8118 913.5,85.5 Z"/></g>
<g><path style="opacity:0.004" fill="#fcfdfc" d="M 107.5,86.5 C 106.833,85.1667 106.833,85.1667 107.5,86.5 Z"/></g>
<g><path style="opacity:1" fill="#111111" d="M 179.5,85.5 C 198.5,85.5 217.5,85.5 236.5,85.5C 237.833,88.1667 237.833,90.8333 236.5,93.5C 220.167,93.5 203.833,93.5 187.5,93.5C 187.173,102.682 187.507,111.682 188.5,120.5C 202.5,120.5 216.5,120.5 230.5,120.5C 231.167,120.5 231.5,120.833 231.5,121.5C 231.5,123.833 231.5,126.167 231.5,128.5C 231.158,129.338 230.492,129.672 229.5,129.5C 228.5,129.5 227.5,129.5 226.5,129.5C 226.167,129.5 225.833,129.5 225.5,129.5C 213.167,129.5 200.833,129.5 188.5,129.5C 188.5,138.5 188.5,147.5 188.5,156.5C 204.325,157.496 220.325,157.83 236.5,157.5C 236.5,159.833 236.5,162.167 236.5,164.5C 217.5,164.5 198.5,164.5 179.5,164.5C 179.167,164.5 178.833,164.5 178.5,164.5C 178.5,138.5 178.5,112.5 178.5,86.5C 179.167,86.5 179.5,86.1667 179.5,85.5 Z"/></g>
<g><path style="opacity:1" fill="#0d0d0d" d="M 312.5,88.5 C 313.514,89.6737 314.847,90.3404 316.5,90.5C 318.167,91.5 319.5,92.8333 320.5,94.5C 320.738,96.4044 321.738,97.7377 323.5,98.5C 324.32,104.797 324.653,111.131 324.5,117.5C 322.992,119.181 321.992,121.181 321.5,123.5C 321.167,124.167 320.833,124.833 320.5,125.5C 319.5,126.167 318.5,126.833 317.5,127.5C 315.973,127.427 314.973,128.094 314.5,129.5C 312.208,131.267 309.542,132.267 306.5,132.5C 304.576,132.711 304.243,133.377 305.5,134.5C 306.08,136.749 307.413,138.415 309.5,139.5C 309.738,141.404 310.738,142.738 312.5,143.5C 312.427,145.027 313.094,146.027 314.5,146.5C 315.08,148.749 316.413,150.415 318.5,151.5C 318.427,153.027 319.094,154.027 320.5,154.5C 321.08,156.749 322.413,158.415 324.5,159.5C 324.703,161.044 325.37,162.378 326.5,163.5C 323.232,164.487 319.898,164.82 316.5,164.5C 314.367,162.909 312.701,160.909 311.5,158.5C 311.573,156.973 310.906,155.973 309.5,155.5C 308.833,155.5 308.5,155.167 308.5,154.5C 308.573,152.973 307.906,151.973 306.5,151.5C 305.833,151.5 305.5,151.167 305.5,150.5C 305.573,148.973 304.906,147.973 303.5,147.5C 303.167,147.5 302.833,147.5 302.5,147.5C 301.752,145.668 300.752,144.001 299.5,142.5C 299.672,141.508 299.338,140.842 298.5,140.5C 297.5,140.167 296.833,139.5 296.5,138.5C 296.573,136.973 295.906,135.973 294.5,135.5C 293.833,135.5 293.5,135.167 293.5,134.5C 293.573,132.973 292.906,131.973 291.5,131.5C 291.286,129.856 291.62,128.356 292.5,127C 295.5,126.667 298.5,126.333 301.5,126C 303.653,125.901 305.319,125.067 306.5,123.5C 307.492,123.672 308.158,123.338 308.5,122.5C 309.795,121.512 311.128,120.512 312.5,119.5C 313.401,118.71 314.068,117.71 314.5,116.5C 314.5,116.167 314.5,115.833 314.5,115.5C 316.971,111.413 317.137,107.08 315,102.5C 314.617,101.944 314.117,101.611 313.5,101.5C 313.167,99.1667 311.833,97.8333 309.5,97.5C 307.5,96.8333 305.5,96.1667 303.5,95.5C 302.391,94.71 301.058,94.21 299.5,94C 289.991,93.1757 280.657,93.3424 271.5,94.5C 271.5,117.5 271.5,140.5 271.5,163.5C 270.486,164.765 268.986,165.431 267,165.5C 265.293,165.492 263.793,165.158 262.5,164.5C 262.333,138.498 262.5,112.498 263,86.5C 275.758,85.3449 288.591,85.1783 301.5,86C 305.207,86.7373 308.873,87.5707 312.5,88.5 Z"/></g>
<g><path style="opacity:1" fill="#0c0c0c" d="M 408.5,85.5 C 408.5,88.1667 408.5,90.8333 408.5,93.5C 392.5,93.5 376.5,93.5 360.5,93.5C 360.5,102.5 360.5,111.5 360.5,120.5C 374.657,121.496 388.99,121.829 403.5,121.5C 403.5,123.833 403.5,126.167 403.5,128.5C 388.99,128.171 374.657,128.504 360.5,129.5C 360.5,138.5 360.5,147.5 360.5,156.5C 376.5,156.5 392.5,156.5 408.5,156.5C 410.026,157.492 410.693,158.992 410.5,161C 410.441,162.436 410.108,163.769 409.5,165C 390.17,165.5 370.836,165.667 351.5,165.5C 351.5,165.167 351.5,164.833 351.5,164.5C 351.333,138.498 351.5,112.498 352,86.5C 370.757,85.5073 389.59,85.174 408.5,85.5 Z"/></g>
<g><path style="opacity:1" fill="#020202" d="M 449.5,85.5 C 449.5,96.1667 449.5,106.833 449.5,117.5C 460.679,117.828 471.679,117.495 482.5,116.5C 483.33,106.675 483.83,96.6751 484,86.5C 489.072,85.5286 494.238,85.1953 499.5,85.5C 499.5,111.5 499.5,137.5 499.5,163.5C 494.025,164.489 488.358,164.822 482.5,164.5C 482.5,154.167 482.5,143.833 482.5,133.5C 471.833,133.5 461.167,133.5 450.5,133.5C 449.506,143.653 449.172,153.986 449.5,164.5C 444.167,164.5 438.833,164.5 433.5,164.5C 433.333,138.498 433.5,112.498 434,86.5C 439.072,85.5286 444.238,85.1953 449.5,85.5 Z"/></g>
<g><path style="opacity:0.008" fill="#fafbfa" d="M 481.5,86.5 C 480.833,85.1667 480.833,85.1667 481.5,86.5 Z"/></g>
<g><path style="opacity:1" fill="#030303" d="M 528.5,85.5 C 547.503,85.3334 566.503,85.5001 585.5,86C 586.469,90.7367 586.803,95.57 586.5,100.5C 586.5,101.167 586.167,101.5 585.5,101.5C 571.833,101.5 558.167,101.5 544.5,101.5C 543.512,106.64 543.179,111.974 543.5,117.5C 555.838,117.333 568.171,117.5 580.5,118C 581.469,122.737 581.803,127.57 581.5,132.5C 568.833,132.5 556.167,132.5 543.5,132.5C 543.178,138.358 543.511,144.025 544.5,149.5C 558.5,149.5 572.5,149.5 586.5,149.5C 587.167,149.5 587.5,149.833 587.5,150.5C 587.819,155.363 587.486,160.03 586.5,164.5C 566.833,164.5 547.167,164.5 527.5,164.5C 527.176,138.092 527.51,111.759 528.5,85.5 Z"/></g>
<g><path style="opacity:0.086" fill="#e0e8f6" d="M 649.5,89.5 C 647.821,88.0003 646.488,86.167 645.5,84C 644.072,83.4209 642.738,83.5876 641.5,84.5C 640.001,81.9925 640.668,80.8259 643.5,81C 646.846,82.8508 648.846,85.6841 649.5,89.5 Z"/></g>
<g><path style="opacity:1" fill="#020202" d="M 717.5,85.5 C 718.477,106.454 718.811,127.454 718.5,148.5C 731.323,149.495 744.323,149.829 757.5,149.5C 757.5,154.5 757.5,159.5 757.5,164.5C 738.833,164.5 720.167,164.5 701.5,164.5C 701.333,138.498 701.5,112.498 702,86.5C 707.072,85.5286 712.238,85.1953 717.5,85.5 Z"/></g>
<g><path style="opacity:1" fill="#0d0d0d" d="M 826.5,85.5 C 827.392,90.4376 827.726,95.4376 827.5,100.5C 827.5,100.833 827.5,101.167 827.5,101.5C 827.167,101.5 826.833,101.5 826.5,101.5C 818.5,101.5 810.5,101.5 802.5,101.5C 802.5,122.5 802.5,143.5 802.5,164.5C 796.833,165.833 791.167,165.833 785.5,164.5C 785.5,143.833 785.5,123.167 785.5,102.5C 778.011,101.671 770.344,101.171 762.5,101C 761.19,95.8338 761.19,90.6671 762.5,85.5C 783.833,84.1667 805.167,84.1667 826.5,85.5 Z"/></g>
<g><path style="opacity:0.999" fill="#050505" d="M 863.5,85.5 C 864.167,85.5 864.5,85.8333 864.5,86.5C 864.5,96.8333 864.5,107.167 864.5,117.5C 875.5,117.5 886.5,117.5 897.5,117.5C 897.5,107.5 897.5,97.5 897.5,87.5C 897.611,86.8826 897.944,86.3826 898.5,86C 903.489,85.5007 908.489,85.3341 913.5,85.5C 914.482,111.455 914.815,137.455 914.5,163.5C 908.925,164.452 903.259,164.786 897.5,164.5C 896.833,164.5 896.5,164.167 896.5,163.5C 896.5,153.5 896.5,143.5 896.5,133.5C 885.833,133.5 875.167,133.5 864.5,133.5C 864.666,143.506 864.5,153.506 864,163.5C 863.283,164.044 862.783,164.711 862.5,165.5C 857.305,165.821 852.305,165.487 847.5,164.5C 847.5,138.5 847.5,112.5 847.5,86.5C 852.74,85.5509 858.073,85.2175 863.5,85.5 Z"/></g>
<g><path style="opacity:0.006" fill="#dddddd" d="M 105.5,88.5 C 105.158,89.3382 104.492,89.6716 103.5,89.5C 102.496,87.3227 103.162,86.9893 105.5,88.5 Z"/></g>
<g><path style="opacity:0.201" fill="#d2d2d2" d="M 408.5,85.5 C 389.59,85.174 370.757,85.5073 352,86.5C 351.5,112.498 351.333,138.498 351.5,164.5C 350.829,138.431 350.162,112.264 349.5,86C 350.126,85.2496 350.626,84.4162 351,83.5C 370.264,84.1609 389.431,84.8275 408.5,85.5 Z"/></g>
<g><path style="opacity:0.042" fill="#f3f3f3" d="M 432.5,86.5 C 432.5,112.167 432.5,137.833 432.5,163.5C 431.751,162.469 431.085,161.302 430.5,160C 431.644,135.185 431.81,110.352 431,85.5C 431.383,86.056 431.883,86.3893 432.5,86.5 Z"/></g>
<g><path style="opacity:0.82" fill="#393939" d="M 499.5,85.5 C 500.267,86.172 500.934,87.0053 501.5,88C 500.498,112.994 500.165,138.161 500.5,163.5C 500.167,163.5 499.833,163.5 499.5,163.5C 499.5,137.5 499.5,111.5 499.5,85.5 Z"/></g>
<g><path style="opacity:0.104" fill="#dddddd" d="M 826.5,85.5 C 828.05,87.3002 829.05,89.4668 829.5,92C 828.872,94.9386 828.205,97.7719 827.5,100.5C 827.726,95.4376 827.392,90.4376 826.5,85.5 Z"/></g>
<g><path style="opacity:0.141" fill="#c4c4c4" d="M 312.5,88.5 C 314.38,88.2291 315.713,88.8958 316.5,90.5C 314.847,90.3404 313.514,89.6737 312.5,88.5 Z"/></g>
<g><path style="opacity:0.624" fill="#999999" d="M 408.5,85.5 C 408.833,85.5 409.167,85.5 409.5,85.5C 411.102,88.5342 410.769,91.2009 408.5,93.5C 408.5,90.8333 408.5,88.1667 408.5,85.5 Z"/></g>
<g><path style="opacity:0.558" fill="#767676" d="M 846.5,86.5 C 846.833,86.5 847.167,86.5 847.5,86.5C 847.5,112.5 847.5,138.5 847.5,164.5C 846.824,140.628 846.157,116.628 845.5,92.5C 846.348,90.5914 846.682,88.5914 846.5,86.5 Z"/></g>
<g><path style="opacity:0.576" fill="#8f8f8f" d="M 103.5,89.5 C 102.738,91.2624 101.404,92.2624 99.5,92.5C 100.262,90.7376 101.596,89.7376 103.5,89.5 Z"/></g>
<g><path style="opacity:0.09" fill="#d2d2d2" d="M 147.5,89.5 C 149.027,89.427 150.027,90.0937 150.5,91.5C 148.973,91.573 147.973,90.9063 147.5,89.5 Z"/></g>
<g><path style="opacity:0.006" fill="#fcfcfc" d="M 176.5,90.5 C 177.662,109.662 177.829,128.996 177,148.5C 176.5,129.17 176.333,109.836 176.5,90.5 Z"/></g>
<g><path style="opacity:0.11" fill="#e3e3e3" d="M 481.5,86.5 C 481.833,86.5 482.167,86.5 482.5,86.5C 482.5,96.5 482.5,106.5 482.5,116.5C 482.167,116.5 481.833,116.5 481.5,116.5C 481.476,106.53 481.476,96.5299 481.5,86.5 Z"/></g>
<g><path style="opacity:0.012" fill="#e9f2fc" d="M 649.5,89.5 C 651.873,91.5792 653.206,94.2459 653.5,97.5C 651.659,95.1515 650.326,92.4848 649.5,89.5 Z"/></g>
<g><path style="opacity:0.839" fill="#6d6d6d" d="M 449.5,85.5 C 450.117,85.6107 450.617,85.944 451,86.5C 451.818,96.4107 451.651,106.244 450.5,116C 460.828,116.5 471.161,116.666 481.5,116.5C 481.833,116.5 482.167,116.5 482.5,116.5C 471.679,117.495 460.679,117.828 449.5,117.5C 449.5,106.833 449.5,96.1667 449.5,85.5 Z"/></g>
<g><path style="opacity:0.042" fill="#f1f1f1" d="M 913.5,85.5 C 914.117,85.6107 914.617,85.944 915,86.5C 915.83,112.337 915.663,138.003 914.5,163.5C 914.815,137.455 914.482,111.455 913.5,85.5 Z"/></g>
<g><path style="opacity:0.169" fill="#c0c0c0" d="M 134.5,94.5 C 127.841,93.2168 121.174,93.2168 114.5,94.5C 117.695,92.9704 121.195,92.3037 125,92.5C 127.5,92.6667 130,92.8333 132.5,93C 133.416,93.2784 134.082,93.7784 134.5,94.5 Z"/></g>
<g><path style="opacity:0.73" fill="#525252" d="M 449.5,85.5 C 444.238,85.1953 439.072,85.5286 434,86.5C 433.5,112.498 433.333,138.498 433.5,164.5C 438.833,164.5 444.167,164.5 449.5,164.5C 449.172,153.986 449.506,143.653 450.5,133.5C 450.5,143.5 450.5,153.5 450.5,163.5C 447.913,164.816 444.913,165.483 441.5,165.5C 438.087,165.483 435.087,164.816 432.5,163.5C 432.5,137.833 432.5,112.167 432.5,86.5C 432.611,85.8826 432.944,85.3826 433.5,85C 439.016,84.1826 444.35,84.3493 449.5,85.5 Z"/></g>
<g><path style="opacity:0.37" fill="#aaaaaa" d="M 271.5,94.5 C 280.657,93.3424 289.991,93.1757 299.5,94C 301.058,94.21 302.391,94.71 303.5,95.5C 293.194,94.6293 282.86,94.296 272.5,94.5C 272.167,94.5 271.833,94.5 271.5,94.5 Z"/></g>
<g><path style="opacity:0.004" fill="#f7f8f7" d="M 322.5,93.5 C 323.833,94.1667 323.833,94.1667 322.5,93.5 Z"/></g>
<g><path style="opacity:0.798" fill="#5b5b5b" d="M 499.5,85.5 C 494.238,85.1953 489.072,85.5286 484,86.5C 483.83,96.6751 483.33,106.675 482.5,116.5C 482.5,106.5 482.5,96.5 482.5,86.5C 482.611,85.8826 482.944,85.3826 483.5,85C 489.016,84.1826 494.35,84.3493 499.5,85.5 Z"/></g>
<g><path style="opacity:0.078" fill="#e6e6e6" d="M 717.5,85.5 C 718.117,85.6107 718.617,85.944 719,86.5C 719.5,107.164 719.667,127.831 719.5,148.5C 719.167,148.5 718.833,148.5 718.5,148.5C 718.811,127.454 718.477,106.454 717.5,85.5 Z"/></g>
<g><path style="opacity:0.035" fill="#b3b3b3" d="M 150.5,91.5 C 157.249,95.7504 156.916,99.7504 149.5,103.5C 147.64,102.74 145.973,101.74 144.5,100.5C 144.5,100.167 144.5,99.8333 144.5,99.5C 146.156,100.146 147.823,100.813 149.5,101.5C 152.804,100.713 154.304,98.7131 154,95.5C 152.373,94.4677 151.207,93.1344 150.5,91.5 Z"/></g>
<g><path style="opacity:0.606" fill="#7c7c7c" d="M 236.5,93.5 C 221.342,94.4962 206.009,94.8295 190.5,94.5C 188.53,102.769 187.864,111.435 188.5,120.5C 187.507,111.682 187.173,102.682 187.5,93.5C 203.833,93.5 220.167,93.5 236.5,93.5 Z"/></g>
<g><path style="opacity:0.839" fill="#9ca3da" d="M 641.5,84.5 C 640.42,89.6706 638.086,94.004 634.5,97.5C 636.074,92.6805 638.407,88.3472 641.5,84.5 Z"/></g>
<g><path style="opacity:0.035" fill="#d7d7d7" d="M 99.5,92.5 C 97.5,94.5 95.5,96.5 93.5,98.5C 93.3893,97.8826 93.056,97.3826 92.5,97C 94.6667,95.5 96.5,93.6667 98,91.5C 98.3826,92.056 98.8826,92.3893 99.5,92.5 Z"/></g>
<g><path style="opacity:0.004" fill="#f8f9f8" d="M 156.5,96.5 C 157.833,97.1667 157.833,97.1667 156.5,96.5 Z"/></g>
<g><path style="opacity:0.612" fill="#8a8a8a" d="M 320.5,94.5 C 322.262,95.2623 323.262,96.5956 323.5,98.5C 321.738,97.7377 320.738,96.4044 320.5,94.5 Z"/></g>
<g><path style="opacity:0.635" fill="#a3a3a3" d="M 309.5,97.5 C 311.833,97.8333 313.167,99.1667 313.5,101.5C 311.833,100.5 310.5,99.1667 309.5,97.5 Z"/></g>
<g><path style="opacity:0.031" fill="#cbcbcb" d="M 108.5,97.5 C 108.027,98.9063 107.027,99.573 105.5,99.5C 105.973,98.0937 106.973,97.427 108.5,97.5 Z"/></g>
<g><path style="opacity:0.294" fill="#bbbbbb" d="M 141.5,97.5 C 143.027,97.427 144.027,98.0937 144.5,99.5C 142.973,99.573 141.973,98.9063 141.5,97.5 Z"/></g>
<g><path style="opacity:0.137" fill="#dcdcdc" d="M 271.5,94.5 C 271.833,94.5 272.167,94.5 272.5,94.5C 272.918,95.2216 273.584,95.7216 274.5,96C 272.845,118.442 271.845,140.942 271.5,163.5C 271.5,140.5 271.5,117.5 271.5,94.5 Z"/></g>
<g><path style="opacity:0.059" fill="#e3edfb" d="M 653.5,97.5 C 654.906,97.9731 655.573,98.9731 655.5,100.5C 654.094,100.027 653.427,99.0269 653.5,97.5 Z"/></g>
<g><path style="opacity:0.631" fill="#848484" d="M 93.5,98.5 C 93.2624,100.404 92.2624,101.738 90.5,102.5C 90.7376,100.596 91.7376,99.2623 93.5,98.5 Z"/></g>
<g><path style="opacity:0.008" fill="#f8f9f8" d="M 144.5,100.5 C 143.833,101.167 143.833,101.167 144.5,100.5 Z"/></g>
<g><path style="opacity:0.008" fill="#f6f7f6" d="M 104.5,101.5 C 105.833,102.167 105.833,102.167 104.5,101.5 Z"/></g>
<g><path style="opacity:0.032" fill="#f6f6f6" d="M 544.5,101.5 C 558.167,101.5 571.833,101.5 585.5,101.5C 572.34,102.331 559.006,102.831 545.5,103C 545.273,106.886 545.607,110.886 546.5,115C 545.906,115.464 545.239,115.631 544.5,115.5C 544.5,110.833 544.5,106.167 544.5,101.5 Z"/></g>
<g><path style="opacity:0.075" fill="#dfe8f8" d="M 655.5,100.5 C 656.674,101.514 657.34,102.847 657.5,104.5C 655.896,103.713 655.229,102.38 655.5,100.5 Z"/></g>
<g><path style="opacity:0.338" fill="#adadad" d="M 762.5,85.5 C 761.19,90.6671 761.19,95.8338 762.5,101C 770.344,101.171 778.011,101.671 785.5,102.5C 785.167,102.5 784.833,102.5 784.5,102.5C 776.826,102.666 769.159,102.5 761.5,102C 760.833,96.6667 760.167,91.3333 759.5,86C 760.448,85.5172 761.448,85.3505 762.5,85.5 Z"/></g>
<g><path style="opacity:0.004" fill="#f9faf9" d="M 827.5,101.5 C 828.833,102.167 828.833,102.167 827.5,101.5 Z"/></g>
<g><path style="opacity:0.557" fill="#b5b5b5" d="M 90.5,102.5 C 90.573,104.027 89.9063,105.027 88.5,105.5C 87.5092,103.877 88.1759,102.877 90.5,102.5 Z"/></g>
<g><path style="opacity:0.004" fill="#d6d6d6" d="M 102.5,102.5 C 102.573,104.027 101.906,105.027 100.5,105.5C 100.427,103.973 101.094,102.973 102.5,102.5 Z"/></g>
<g><path style="opacity:0.157" fill="#c4cbec" d="M 633.5,99.5 C 632.558,103.065 630.891,106.065 628.5,108.5C 629.41,105.008 631.076,102.008 633.5,99.5 Z"/></g>
<g><path style="opacity:0.532" fill="#838383" d="M 826.5,101.5 C 818.833,102.167 811.167,102.833 803.5,103.5C 803.5,123.167 803.5,142.833 803.5,162.5C 803.672,163.492 803.338,164.158 802.5,164.5C 802.5,143.5 802.5,122.5 802.5,101.5C 810.5,101.5 818.5,101.5 826.5,101.5 Z"/></g>
<g><path style="opacity:0.148" fill="#d9d9d9" d="M 784.5,102.5 C 784.833,102.5 785.167,102.5 785.5,102.5C 785.5,123.167 785.5,143.833 785.5,164.5C 784.828,144.431 784.161,124.264 783.5,104C 784.056,103.617 784.389,103.117 784.5,102.5 Z"/></g>
<g><path style="opacity:0.012" fill="#ededed" d="M 88.5,105.5 C 88.6716,106.492 88.3382,107.158 87.5,107.5C 85.9689,106.075 86.3023,105.409 88.5,105.5 Z"/></g>
<g><path style="opacity:0.015" fill="#fafafa" d="M 803.5,103.5 C 804.289,103.783 804.956,104.283 805.5,105C 804.839,124.264 804.172,143.431 803.5,162.5C 803.5,142.833 803.5,123.167 803.5,103.5 Z"/></g>
<g><path style="opacity:0.868" fill="#7e7e7e" d="M 323.5,98.5 C 327.002,104.676 327.335,111.01 324.5,117.5C 324.653,111.131 324.32,104.797 323.5,98.5 Z"/></g>
<g><path style="opacity:0.18" fill="#dde7f8" d="M 657.5,104.5 C 659.346,106.03 660.346,108.03 660.5,110.5C 658.654,108.97 657.654,106.97 657.5,104.5 Z"/></g>
<g><path style="opacity:0.298" fill="#b1b1b1" d="M 313.5,101.5 C 314.117,101.611 314.617,101.944 315,102.5C 317.137,107.08 316.971,111.413 314.5,115.5C 314.827,113.512 315.16,111.512 315.5,109.5C 315.547,106.788 314.547,104.622 312.5,103C 313.056,102.617 313.389,102.117 313.5,101.5 Z"/></g>
<g><path style="opacity:0.655" fill="#a1a1a1" d="M 87.5,107.5 C 87.7406,109.898 87.0739,111.898 85.5,113.5C 85.595,111.214 86.2616,109.214 87.5,107.5 Z"/></g>
<g><path style="opacity:0.314" fill="#b8b8b8" d="M 98.5,108.5 C 98.3404,110.153 97.6737,111.486 96.5,112.5C 96.2291,110.62 96.8958,109.287 98.5,108.5 Z"/></g>
<g><path style="opacity:0.075" fill="#dae6f8" d="M 628.5,108.5 C 628.34,110.153 627.674,111.486 626.5,112.5C 626.229,110.62 626.896,109.287 628.5,108.5 Z"/></g>
<g><path style="opacity:0.361" fill="#cbcbcb" d="M 85.5,113.5 C 85.7678,115.099 85.4345,116.432 84.5,117.5C 84.0618,117.565 83.7284,117.399 83.5,117C 84.0848,115.698 84.7515,114.531 85.5,113.5 Z"/></g>
<g><path style="opacity:0.004" fill="#e0e0e0" d="M 314.5,116.5 C 314.068,117.71 313.401,118.71 312.5,119.5C 312.285,117.821 312.952,116.821 314.5,116.5 Z"/></g>
<g><path style="opacity:0.386" fill="#909090" d="M 544.5,101.5 C 544.5,106.167 544.5,110.833 544.5,115.5C 556.66,116.331 568.993,116.831 581.5,117C 582.824,122.266 582.824,127.433 581.5,132.5C 581.803,127.57 581.469,122.737 580.5,118C 568.171,117.5 555.838,117.333 543.5,117.5C 543.179,111.974 543.512,106.64 544.5,101.5 Z"/></g>
<g><path style="opacity:0.122" fill="#c6d2f0" d="M 626.5,112.5 C 625.558,116.065 623.891,119.065 621.5,121.5C 622.41,118.008 624.076,115.008 626.5,112.5 Z"/></g>
<g><path style="opacity:0.49" fill="#8f8f8f" d="M 864.5,86.5 C 865.494,96.3194 865.827,106.319 865.5,116.5C 876.014,116.828 886.347,116.494 896.5,115.5C 896.5,106.167 896.5,96.8333 896.5,87.5C 896.833,87.5 897.167,87.5 897.5,87.5C 897.5,97.5 897.5,107.5 897.5,117.5C 886.5,117.5 875.5,117.5 864.5,117.5C 864.5,107.167 864.5,96.8333 864.5,86.5 Z"/></g>
<g><path style="opacity:0.025" fill="#f6f6f6" d="M 896.5,87.5 C 896.5,96.8333 896.5,106.167 896.5,115.5C 895.448,115.649 894.448,115.483 893.5,115C 894.799,110.754 895.466,106.254 895.5,101.5C 895.486,96.9191 895.153,92.4191 894.5,88C 895.094,87.5357 895.761,87.369 896.5,87.5 Z"/></g>
<g><path style="opacity:0.045" fill="#f3f3f3" d="M 190.5,94.5 C 189.531,102.748 189.198,111.082 189.5,119.5C 203.344,119.171 217.01,119.504 230.5,120.5C 216.5,120.5 202.5,120.5 188.5,120.5C 187.864,111.435 188.53,102.769 190.5,94.5 Z"/></g>
<g><path style="opacity:0.042" fill="#d4d4d4" d="M 408.5,93.5 C 393.009,94.4963 377.342,94.8296 361.5,94.5C 361.5,102.833 361.5,111.167 361.5,119.5C 375.344,119.171 389.01,119.504 402.5,120.5C 388.5,120.5 374.5,120.5 360.5,120.5C 360.5,111.5 360.5,102.5 360.5,93.5C 376.5,93.5 392.5,93.5 408.5,93.5 Z"/></g>
<g><path style="opacity:0.188" fill="#c1c1c1" d="M 324.5,117.5 C 324.539,120.089 323.539,122.089 321.5,123.5C 321.992,121.181 322.992,119.181 324.5,117.5 Z"/></g>
<g><path style="opacity:0.008" fill="#e9e9e9" d="M 308.5,122.5 C 308.158,123.338 307.492,123.672 306.5,123.5C 306.409,121.302 307.075,120.969 308.5,122.5 Z"/></g>
<g><path style="opacity:0.236" fill="#d0d0d0" d="M 231.5,121.5 C 232.216,123.556 232.883,125.723 233.5,128C 232.906,128.464 232.239,128.631 231.5,128.5C 231.5,126.167 231.5,123.833 231.5,121.5 Z"/></g>
<g><path style="opacity:0.004" fill="#f9faf9" d="M 293.5,123.5 C 294.833,124.167 294.833,124.167 293.5,123.5 Z"/></g>
<g><path style="opacity:0.055" fill="#dfe9f9" d="M 621.5,121.5 C 621.34,123.153 620.674,124.486 619.5,125.5C 619.229,123.62 619.896,122.287 621.5,121.5 Z"/></g>
<g><path style="opacity:0.374" fill="#a4a4a4" d="M 96.5,112.5 C 94.3973,119.756 94.064,127.089 95.5,134.5C 94.0872,131.618 93.4205,128.451 93.5,125C 93.4393,120.444 94.4393,116.278 96.5,112.5 Z"/></g>
<g><path style="opacity:0.476" fill="#929292" d="M 306.5,123.5 C 305.319,125.067 303.653,125.901 301.5,126C 298.5,126.333 295.5,126.667 292.5,127C 291.62,128.356 291.286,129.856 291.5,131.5C 289.892,132.538 288.892,131.871 288.5,129.5C 289.687,128.481 290.687,127.314 291.5,126C 296.545,125.357 301.545,124.524 306.5,123.5 Z"/></g>
<g><path style="opacity:0.004" fill="#f8f9f8" d="M 320.5,125.5 C 321.833,126.167 321.833,126.167 320.5,125.5 Z"/></g>
<g><path style="opacity:0.063" fill="#e3edfb" d="M 660.5,110.5 C 665.178,116.516 668.845,123.183 671.5,130.5C 667.329,124.162 663.663,117.496 660.5,110.5 Z"/></g>
<g><path style="opacity:0.008" fill="#f9faf9" d="M 288.5,126.5 C 289.833,127.167 289.833,127.167 288.5,126.5 Z"/></g>
<g><path style="opacity:0.008" fill="#e4e4e4" d="M 317.5,127.5 C 317.027,128.906 316.027,129.573 314.5,129.5C 314.973,128.094 315.973,127.427 317.5,127.5 Z"/></g>
<g><path style="opacity:0.573" fill="#737373" d="M 360.5,120.5 C 374.5,120.5 388.5,120.5 402.5,120.5C 404.229,121.953 405.229,123.953 405.5,126.5C 404.286,128.421 402.786,130.088 401,131.5C 400.184,130.177 399.017,129.511 397.5,129.5C 386.5,129.5 375.5,129.5 364.5,129.5C 364.167,129.5 363.833,129.5 363.5,129.5C 362.5,129.5 361.5,129.5 360.5,129.5C 374.657,128.504 388.99,128.171 403.5,128.5C 403.5,126.167 403.5,123.833 403.5,121.5C 388.99,121.829 374.657,121.496 360.5,120.5 Z"/></g>
<g><path style="opacity:0.006" fill="#f9f9f9" d="M 226.5,129.5 C 227.5,129.5 228.5,129.5 229.5,129.5C 228.26,131.985 227.26,131.985 226.5,129.5 Z"/></g>
<g><path style="opacity:0.004" fill="#fcfcfc" d="M 364.5,129.5 C 375.5,129.5 386.5,129.5 397.5,129.5C 386.765,130.177 375.931,130.844 365,131.5C 364.536,130.906 364.369,130.239 364.5,129.5 Z"/></g>
<g><path style="opacity:0.004" fill="#f7f8f7" d="M 403.5,130.5 C 404.833,131.167 404.833,131.167 403.5,130.5 Z"/></g>
<g><path style="opacity:0.004" fill="#fafbfa" d="M 83.5,132.5 C 82.8333,133.167 82.8333,133.167 83.5,132.5 Z"/></g>
<g><path style="opacity:0.004" fill="#dadada" d="M 291.5,131.5 C 292.906,131.973 293.573,132.973 293.5,134.5C 292.094,134.027 291.427,133.027 291.5,131.5 Z"/></g>
<g><path style="opacity:0.039" fill="#d3d3d3" d="M 306.5,132.5 C 306.5,132.833 306.5,133.167 306.5,133.5C 305.833,133.5 305.5,133.833 305.5,134.5C 304.243,133.377 304.576,132.711 306.5,132.5 Z"/></g>
<g><path style="opacity:0.004" fill="#f7f8f7" d="M 96.5,133.5 C 97.8333,134.167 97.8333,134.167 96.5,133.5 Z"/></g>
<g><path style="opacity:0.014" fill="#f8f8f8" d="M 306.5,134.5 C 306.5,134.167 306.5,133.833 306.5,133.5C 309.167,133.833 309.167,134.167 306.5,134.5 Z"/></g>
<g><path style="opacity:0.808" fill="#959595" d="M 305.5,134.5 C 305.833,134.5 306.167,134.5 306.5,134.5C 307.343,136.173 308.676,137.34 310.5,138C 309.944,138.383 309.611,138.883 309.5,139.5C 307.413,138.415 306.08,136.749 305.5,134.5 Z"/></g>
<g><path style="opacity:0.012" fill="#e5eef9" d="M 671.5,130.5 C 675.948,137.062 679.615,144.062 682.5,151.5C 678.052,144.938 674.385,137.938 671.5,130.5 Z"/></g>
<g><path style="opacity:0.016" fill="#c7c7c7" d="M 84.5,118.5 C 84.3803,126.66 85.3803,134.66 87.5,142.5C 85.572,139.378 84.2387,136.045 83.5,132.5C 83.3893,131.883 83.056,131.383 82.5,131C 83.1401,126.732 83.8067,122.565 84.5,118.5 Z"/></g>
<g><path style="opacity:0.006" fill="#e0e0e0" d="M 294.5,135.5 C 295.906,135.973 296.573,136.973 296.5,138.5C 294.176,138.123 293.509,137.123 294.5,135.5 Z"/></g>
<g><path style="opacity:0.012" fill="#f2f2f2" d="M 450.5,133.5 C 461.167,133.5 471.833,133.5 482.5,133.5C 482.5,143.833 482.5,154.167 482.5,164.5C 481.67,154.675 481.17,144.675 481,134.5C 471.376,134.551 461.543,134.551 451.5,134.5C 451.827,144.348 451.494,154.014 450.5,163.5C 450.5,153.5 450.5,143.5 450.5,133.5 Z"/></g>
<g><path style="opacity:1" fill="#4a64db" d="M 649.5,89.5 C 650.326,92.4848 651.659,95.1515 653.5,97.5C 653.427,99.0269 654.094,100.027 655.5,100.5C 655.229,102.38 655.896,103.713 657.5,104.5C 657.654,106.97 658.654,108.97 660.5,110.5C 663.663,117.496 667.329,124.162 671.5,130.5C 674.385,137.938 678.052,144.938 682.5,151.5C 683.079,154.331 684.412,156.664 686.5,158.5C 686.5,158.833 686.5,159.167 686.5,159.5C 687.494,161.334 687.494,163.001 686.5,164.5C 679.833,164.5 673.167,164.5 666.5,164.5C 665.721,161.455 664.387,158.789 662.5,156.5C 657.273,145.044 651.273,134.044 644.5,123.5C 644.607,121.621 644.107,121.288 643,122.5C 641.519,125.11 640.352,127.777 639.5,130.5C 637.896,131.287 637.229,132.62 637.5,134.5C 634.407,138.347 632.074,142.68 630.5,147.5C 627.343,151.806 624.676,156.472 622.5,161.5C 620.952,161.821 620.285,162.821 620.5,164.5C 614.167,164.5 607.833,164.5 601.5,164.5C 600.506,163.001 600.506,161.334 601.5,159.5C 603.008,157.819 604.008,155.819 604.5,153.5C 604.328,152.508 604.662,151.842 605.5,151.5C 607.571,147.697 609.904,144.03 612.5,140.5C 614.951,137.26 616.618,133.593 617.5,129.5C 617.66,127.847 618.326,126.514 619.5,125.5C 620.674,124.486 621.34,123.153 621.5,121.5C 623.891,119.065 625.558,116.065 626.5,112.5C 627.674,111.486 628.34,110.153 628.5,108.5C 630.891,106.065 632.558,103.065 633.5,99.5C 633.328,98.5084 633.662,97.8417 634.5,97.5C 638.086,94.004 640.42,89.6706 641.5,84.5C 642.738,83.5876 644.072,83.4209 645.5,84C 646.488,86.167 647.821,88.0003 649.5,89.5 Z"/></g>
<g><path style="opacity:0.004" fill="#dfeaf9" d="M 637.5,134.5 C 636.454,139.596 634.121,143.929 630.5,147.5C 632.074,142.68 634.407,138.347 637.5,134.5 Z"/></g>
<g><path style="opacity:0.22" fill="#d5def3" d="M 644.5,123.5 C 651.273,134.044 657.273,145.044 662.5,156.5C 658.227,150.291 654.393,143.624 651,136.5C 649.334,133.669 647.168,131.336 644.5,129.5C 645.38,127.389 645.38,125.389 644.5,123.5 Z"/></g>
<g><path style="opacity:0.263" fill="#cad6f1" d="M 639.5,130.5 C 639.771,132.38 639.104,133.713 637.5,134.5C 637.229,132.62 637.896,131.287 639.5,130.5 Z"/></g>
<g><path style="opacity:0.004" fill="#fafaf5" d="M 644.5,129.5 C 643.833,130.167 643.833,130.167 644.5,129.5 Z"/></g>
<g><path style="opacity:0.067" fill="#d3ddf5" d="M 644.5,123.5 C 643.372,126.212 641.706,128.545 639.5,130.5C 640.352,127.777 641.519,125.11 643,122.5C 644.107,121.288 644.607,121.621 644.5,123.5 Z"/></g>
<g><path style="opacity:0.692" fill="#686868" d="M 581.5,132.5 C 569.678,133.495 557.678,133.828 545.5,133.5C 544.512,138.64 544.179,143.974 544.5,149.5C 543.511,144.025 543.178,138.358 543.5,132.5C 556.167,132.5 568.833,132.5 581.5,132.5 Z"/></g>
<g><path style="opacity:0.847" fill="#939fd7" d="M 617.5,129.5 C 616.618,133.593 614.951,137.26 612.5,140.5C 612.5,139.833 612.5,139.167 612.5,138.5C 613.41,135.008 615.076,132.008 617.5,129.5 Z"/></g>
<g><path style="opacity:0.02" fill="#efefef" d="M 896.5,163.5 C 895.506,154.014 895.173,144.348 895.5,134.5C 885.5,134.5 875.5,134.5 865.5,134.5C 865.666,144.506 865.5,154.506 865,164.5C 864.329,165.252 863.496,165.586 862.5,165.5C 862.783,164.711 863.283,164.044 864,163.5C 864.5,153.506 864.666,143.506 864.5,133.5C 875.167,133.5 885.833,133.5 896.5,133.5C 896.5,143.5 896.5,153.5 896.5,163.5 Z"/></g>
<g><path style="opacity:0.008" fill="#fcfdfc" d="M 866.5,135.5 C 867.833,136.167 867.833,136.167 866.5,135.5 Z"/></g>
<g><path style="opacity:0.169" fill="#c7c7c7" d="M 96.5,137.5 C 98.0075,139.181 99.0075,141.181 99.5,143.5C 97.461,142.089 96.461,140.089 96.5,137.5 Z"/></g>
<g><path style="opacity:0.039" fill="#d9d9d9" d="M 298.5,140.5 C 299.338,140.842 299.672,141.508 299.5,142.5C 297.302,142.591 296.969,141.925 298.5,140.5 Z"/></g>
<g><path style="opacity:0.506" fill="#a1a1a1" d="M 309.5,139.5 C 311.262,140.262 312.262,141.596 312.5,143.5C 310.738,142.738 309.738,141.404 309.5,139.5 Z"/></g>
<g><path style="opacity:0.008" fill="#e9f1fa" d="M 612.5,138.5 C 612.5,139.167 612.5,139.833 612.5,140.5C 609.904,144.03 607.571,147.697 605.5,151.5C 606.585,146.32 608.918,141.987 612.5,138.5 Z"/></g>
<g><path style="opacity:0.016" fill="#e3e3e3" d="M 87.5,142.5 C 88.3382,142.842 88.6716,143.508 88.5,144.5C 87.8333,144.5 87.5,144.833 87.5,145.5C 86.375,144.652 86.375,143.652 87.5,142.5 Z"/></g>
<g><path style="opacity:0.008" fill="#f7f8f7" d="M 298.5,144.5 C 299.833,145.167 299.833,145.167 298.5,144.5 Z"/></g>
<g><path style="opacity:0.129" fill="#cfcfcf" d="M 88.5,144.5 C 89.3382,144.842 89.6716,145.508 89.5,146.5C 88.8333,146.5 88.5,146.833 88.5,147.5C 87.6618,147.158 87.3284,146.492 87.5,145.5C 88.1667,145.5 88.5,145.167 88.5,144.5 Z"/></g>
<g><path style="opacity:0.475" fill="#989898" d="M 312.5,143.5 C 313.906,143.973 314.573,144.973 314.5,146.5C 313.094,146.027 312.427,145.027 312.5,143.5 Z"/></g>
<g><path style="opacity:0.796" fill="#8e8e8e" d="M 100.5,145.5 C 102.5,146.833 104.167,148.5 105.5,150.5C 102.833,149.833 101.167,148.167 100.5,145.5 Z"/></g>
<g><path style="opacity:0.243" fill="#c1c1c1" d="M 152.5,156.5 C 154.109,155.102 154.942,153.435 155,151.5C 153.649,149.981 152.149,148.648 150.5,147.5C 149.378,148.63 148.044,149.297 146.5,149.5C 149.855,145.441 153.021,145.775 156,150.5C 157.111,153.955 155.944,155.955 152.5,156.5 Z"/></g>
<g><path style="opacity:0.006" fill="#fbfcfb" d="M 720.5,147.5 C 720.897,146.475 721.563,146.308 722.5,147C 721.906,147.464 721.239,147.631 720.5,147.5 Z"/></g>
<g><path style="opacity:0.016" fill="#f6f7f6" d="M 756.5,147.5 C 755.833,146.167 755.833,146.167 756.5,147.5 Z"/></g>
<g><path style="opacity:0.008" fill="#f9faf9" d="M 302.5,147.5 C 301.833,148.167 301.833,148.167 302.5,147.5 Z"/></g>
<g><path style="opacity:0.008" fill="#f8f9f8" d="M 586.5,147.5 C 587.833,148.167 587.833,148.167 586.5,147.5 Z"/></g>
<g><path style="opacity:0.008" fill="#e8e8e8" d="M 89.5,146.5 C 90.3382,146.842 90.6716,147.508 90.5,148.5C 89.0755,150.031 88.4088,149.698 88.5,147.5C 89.1667,147.5 89.5,147.167 89.5,146.5 Z"/></g>
<g><path style="opacity:0.016" fill="#d8d8d8" d="M 303.5,147.5 C 304.906,147.973 305.573,148.973 305.5,150.5C 304.094,150.027 303.427,149.027 303.5,147.5 Z"/></g>
<g><path style="opacity:0.152" fill="#e0e0e0" d="M 545.5,133.5 C 545.337,138.05 545.671,142.716 546.5,147.5C 559.817,148.499 573.15,148.833 586.5,148.5C 586.5,148.833 586.5,149.167 586.5,149.5C 572.5,149.5 558.5,149.5 544.5,149.5C 544.179,143.974 544.512,138.64 545.5,133.5 Z"/></g>
<g><path style="opacity:0.357" fill="#aaaaaa" d="M 756.5,147.5 C 758.698,147.409 759.031,148.075 757.5,149.5C 744.323,149.829 731.323,149.495 718.5,148.5C 718.833,148.5 719.167,148.5 719.5,148.5C 732.011,148.829 744.345,148.495 756.5,147.5 Z"/></g>
<g><path style="opacity:0.016" fill="#cfcfcf" d="M 90.5,148.5 C 91.9063,148.973 92.573,149.973 92.5,151.5C 91.0937,151.027 90.427,150.027 90.5,148.5 Z"/></g>
<g><path style="opacity:0.016" fill="#f6f7f6" d="M 588.5,149.5 C 589.833,150.167 589.833,150.167 588.5,149.5 Z"/></g>
<g><path style="opacity:0.42" fill="#adadad" d="M 146.5,149.5 C 145.738,151.262 144.404,152.262 142.5,152.5C 143.262,150.738 144.596,149.738 146.5,149.5 Z"/></g>
<g><path style="opacity:0.318" fill="#9f9f9f" d="M 314.5,146.5 C 316.587,147.585 317.92,149.251 318.5,151.5C 316.413,150.415 315.08,148.749 314.5,146.5 Z"/></g>
<g><path style="opacity:0.164" fill="#dcdcdc" d="M 587.5,150.5 C 587.833,150.5 588.167,150.5 588.5,150.5C 588.203,154.767 588.536,158.934 589.5,163C 588.922,164.417 587.922,165.25 586.5,165.5C 586.5,165.167 586.5,164.833 586.5,164.5C 587.486,160.03 587.819,155.363 587.5,150.5 Z"/></g>
<g><path style="opacity:0.031" fill="#dedede" d="M 142.5,152.5 C 142.158,153.338 141.492,153.672 140.5,153.5C 140.409,151.302 141.075,150.969 142.5,152.5 Z"/></g>
<g><path style="opacity:0.008" fill="#d3d3d3" d="M 306.5,151.5 C 307.906,151.973 308.573,152.973 308.5,154.5C 308.167,154.5 307.833,154.5 307.5,154.5C 306.89,153.609 306.557,152.609 306.5,151.5 Z"/></g>
<g><path style="opacity:0.01" fill="#ebebeb" d="M 138.5,154.5 C 138.158,155.338 137.492,155.672 136.5,155.5C 135.496,153.323 136.162,152.989 138.5,154.5 Z"/></g>
<g><path style="opacity:0.016" fill="#eaeaea" d="M 140.5,153.5 C 140.158,154.338 139.492,154.672 138.5,154.5C 138.409,152.302 139.075,151.969 140.5,153.5 Z"/></g>
<g><path style="opacity:0.51" fill="#949494" d="M 318.5,151.5 C 319.906,151.973 320.573,152.973 320.5,154.5C 319.094,154.027 318.427,153.027 318.5,151.5 Z"/></g>
<g><path style="opacity:0.043" fill="#e6eefa" d="M 682.5,151.5 C 684.669,153.34 686.002,155.674 686.5,158.5C 684.412,156.664 683.079,154.331 682.5,151.5 Z"/></g>
<g><path style="opacity:0.008" fill="#dadada" d="M 94.5,153.5 C 95.5,153.833 96.1667,154.5 96.5,155.5C 94.0065,155.869 93.3398,155.203 94.5,153.5 Z"/></g>
<g><path style="opacity:0.004" fill="#f8f9f8" d="M 307.5,154.5 C 306.833,155.167 306.833,155.167 307.5,154.5 Z"/></g>
<g><path style="opacity:0.031" fill="#f6f6f6" d="M 225.5,129.5 C 213.962,130.186 202.295,130.853 190.5,131.5C 189.502,139.472 189.169,147.472 189.5,155.5C 205.009,155.17 220.342,155.504 235.5,156.5C 219.833,156.5 204.167,156.5 188.5,156.5C 188.5,147.5 188.5,138.5 188.5,129.5C 200.833,129.5 213.167,129.5 225.5,129.5 Z"/></g>
<g><path style="opacity:0.029" fill="#ececec" d="M 360.5,129.5 C 361.5,129.5 362.5,129.5 363.5,129.5C 361.628,137.97 360.961,146.637 361.5,155.5C 377.342,155.17 393.009,155.504 408.5,156.5C 392.5,156.5 376.5,156.5 360.5,156.5C 360.5,147.5 360.5,138.5 360.5,129.5 Z"/></g>
<g><path style="opacity:0.031" fill="#c2c2c2" d="M 113.5,155.5 C 116.373,155.802 119.039,156.469 121.5,157.5C 120.5,157.5 119.5,157.5 118.5,157.5C 116.447,157.598 114.78,156.931 113.5,155.5 Z"/></g>
<g><path style="opacity:0.006" fill="#fcfcfc" d="M 176.5,156.5 C 177.622,158.288 177.789,160.288 177,162.5C 176.505,160.527 176.338,158.527 176.5,156.5 Z"/></g>
<g><path style="opacity:0.012" fill="#d4d4d4" d="M 309.5,155.5 C 310.906,155.973 311.573,156.973 311.5,158.5C 310.833,158.167 310.167,157.833 309.5,157.5C 309.5,156.833 309.5,156.167 309.5,155.5 Z"/></g>
<g><path style="opacity:0.525" fill="#787878" d="M 136.5,155.5 C 134.189,157.068 131.522,157.902 128.5,158C 124.973,158.808 121.64,158.641 118.5,157.5C 119.5,157.5 120.5,157.5 121.5,157.5C 126.548,157.158 131.548,156.492 136.5,155.5 Z"/></g>
<g><path style="opacity:0.004" fill="#fafbfa" d="M 152.5,157.5 C 153.833,158.167 153.833,158.167 152.5,157.5 Z"/></g>
<g><path style="opacity:0.016" fill="#f6f7f6" d="M 309.5,157.5 C 308.833,158.167 308.833,158.167 309.5,157.5 Z"/></g>
<g><path style="opacity:0.106" fill="#d7e0f7" d="M 604.5,153.5 C 604.008,155.819 603.008,157.819 601.5,159.5C 601.461,156.911 602.461,154.911 604.5,153.5 Z"/></g>
<g><path style="opacity:0.545" fill="#a6a6a6" d="M 98.5,157.5 C 100.404,157.738 101.738,158.738 102.5,160.5C 101.883,160.611 101.383,160.944 101,161.5C 100.338,160.016 99.5045,158.683 98.5,157.5 Z"/></g>
<g><path style="opacity:0.314" fill="#9c9c9c" d="M 320.5,154.5 C 322.587,155.585 323.92,157.251 324.5,159.5C 322.413,158.415 321.08,156.749 320.5,154.5 Z"/></g>
<g><path style="opacity:0.01" fill="#e6ecf9" d="M 630.5,147.5 C 628.799,153.903 625.799,159.57 621.5,164.5C 621.557,163.391 621.89,162.391 622.5,161.5C 624.676,156.472 627.343,151.806 630.5,147.5 Z"/></g>
<g><path style="opacity:0.043" fill="#dfdfdf" d="M 145.5,161.5 C 145.842,160.662 146.508,160.328 147.5,160.5C 147.591,162.698 146.925,163.031 145.5,161.5 Z"/></g>
<g><path style="opacity:0.008" fill="#f9faf9" d="M 348.5,160.5 C 349.833,161.167 349.833,161.167 348.5,160.5 Z"/></g>
<g><path style="opacity:0.008" fill="#f7f8f7" d="M 893.5,160.5 C 894.833,161.167 894.833,161.167 893.5,160.5 Z"/></g>
<g><path style="opacity:0.004" fill="#f8f9f8" d="M 148.5,161.5 C 149.833,162.167 149.833,162.167 148.5,161.5 Z"/></g>
<g><path style="opacity:0.051" fill="#e0e9f8" d="M 662.5,156.5 C 664.387,158.789 665.721,161.455 666.5,164.5C 663.863,162.518 662.53,159.852 662.5,156.5 Z"/></g>
<g><path style="opacity:0.212" fill="#b8b8b8" d="M 104.5,161.5 C 106.819,161.992 108.819,162.992 110.5,164.5C 107.911,164.539 105.911,163.539 104.5,161.5 Z"/></g>
<g><path style="opacity:0.004" fill="#fafbfa" d="M 348.5,162.5 C 349.833,163.167 349.833,163.167 348.5,162.5 Z"/></g>
<g><path style="opacity:0.004" fill="#f9faf9" d="M 893.5,162.5 C 894.833,163.167 894.833,163.167 893.5,162.5 Z"/></g>
<g><path style="opacity:0.063" fill="#e2ebf8" d="M 601.5,159.5 C 600.506,161.334 600.506,163.001 601.5,164.5C 601.5,164.833 601.5,165.167 601.5,165.5C 600.351,165.209 599.684,164.376 599.5,163C 599.387,161.301 600.053,160.134 601.5,159.5 Z"/></g>
<g><path style="opacity:0.012" fill="#cfcfcf" d="M 141.5,163.5 C 140.531,164.309 139.698,165.309 139,166.5C 137.989,165.663 136.822,165.33 135.5,165.5C 137.214,164.262 139.214,163.595 141.5,163.5 Z"/></g>
<g><path style="opacity:0.012" fill="#f9f9f9" d="M 178.5,164.5 C 178.833,164.5 179.167,164.5 179.5,164.5C 179.5,164.833 179.5,165.167 179.5,165.5C 178.325,165.719 177.325,165.386 176.5,164.5C 176.97,163.537 177.637,163.537 178.5,164.5 Z"/></g>
<g><path style="opacity:0.629" fill="#676767" d="M 188.5,156.5 C 204.167,156.5 219.833,156.5 235.5,156.5C 236.496,156.414 237.329,156.748 238,157.5C 238.711,159.899 238.544,162.232 237.5,164.5C 218.178,165.5 198.845,165.833 179.5,165.5C 179.5,165.167 179.5,164.833 179.5,164.5C 198.5,164.5 217.5,164.5 236.5,164.5C 236.5,162.167 236.5,159.833 236.5,157.5C 220.325,157.83 204.325,157.496 188.5,156.5 Z"/></g>
<g><path style="opacity:0.622" fill="#838383" d="M 324.5,159.5 C 326.975,160.687 327.975,162.687 327.5,165.5C 323.629,165.815 319.962,165.482 316.5,164.5C 319.898,164.82 323.232,164.487 326.5,163.5C 325.37,162.378 324.703,161.044 324.5,159.5 Z"/></g>
<g><path style="opacity:0.004" fill="#f8f9f8" d="M 451.5,164.5 C 452.833,165.167 452.833,165.167 451.5,164.5 Z"/></g>
<g><path style="opacity:0.625" fill="#727272" d="M 499.5,163.5 C 499.833,163.5 500.167,163.5 500.5,163.5C 494.926,165.453 488.926,166.12 482.5,165.5C 482.5,165.167 482.5,164.833 482.5,164.5C 488.358,164.822 494.025,164.489 499.5,163.5 Z"/></g>
<g><path style="opacity:0.624" fill="#7d7d7d" d="M 526.5,85.5 C 526.833,85.5 527.167,85.5 527.5,85.5C 527.833,85.5 528.167,85.5 528.5,85.5C 527.51,111.759 527.176,138.092 527.5,164.5C 547.167,164.5 566.833,164.5 586.5,164.5C 586.5,164.833 586.5,165.167 586.5,165.5C 566.257,165.827 546.091,165.493 526,164.5C 525.177,138.095 525.343,111.761 526.5,85.5 Z"/></g>
<g><path style="opacity:0.624" fill="#a8b1d7" d="M 622.5,161.5 C 621.89,162.391 621.557,163.391 621.5,164.5C 621.082,165.222 620.416,165.722 619.5,166C 613.319,166.819 607.319,166.653 601.5,165.5C 601.5,165.167 601.5,164.833 601.5,164.5C 607.833,164.5 614.167,164.5 620.5,164.5C 620.285,162.821 620.952,161.821 622.5,161.5 Z"/></g>
<g><path style="opacity:0.615" fill="#8090c1" d="M 666.5,164.5 C 673.167,164.5 679.833,164.5 686.5,164.5C 682.03,165.486 677.363,165.819 672.5,165.5C 670.444,166.161 668.444,165.828 666.5,164.5 Z"/></g>
<g><path style="opacity:0.624" fill="#919191" d="M 717.5,85.5 C 712.238,85.1953 707.072,85.5286 702,86.5C 701.5,112.498 701.333,138.498 701.5,164.5C 720.167,164.5 738.833,164.5 757.5,164.5C 757.5,159.5 757.5,154.5 757.5,149.5C 759.047,151.807 759.713,154.473 759.5,157.5C 759.441,159.891 759.107,162.225 758.5,164.5C 739.167,165.833 719.833,165.833 700.5,164.5C 699.343,138.876 699.176,113.209 700,87.5C 700.374,86.5838 700.874,85.7504 701.5,85C 707.016,84.1826 712.35,84.3493 717.5,85.5 Z"/></g>
<g><path style="opacity:0.622" fill="#767676" d="M 914.5,163.5 C 914.649,164.552 914.483,165.552 914,166.5C 908.4,165.854 902.9,165.187 897.5,164.5C 903.259,164.786 908.925,164.452 914.5,163.5 Z"/></g>
<g><path style="opacity:0.004" fill="#fafbfa" d="M 351.5,165.5 C 350.833,166.167 350.833,166.167 351.5,165.5 Z"/></g>
<g><path style="opacity:0.016" fill="#f7f8f7" d="M 482.5,165.5 C 481.833,166.167 481.833,166.167 482.5,165.5 Z"/></g>
<g><path style="opacity:0.01" fill="#f0f6fc" d="M 686.5,159.5 C 688.687,161.282 689.02,163.448 687.5,166C 682.316,166.816 677.316,166.65 672.5,165.5C 677.363,165.819 682.03,165.486 686.5,164.5C 687.494,163.001 687.494,161.334 686.5,159.5 Z"/></g>
<g><path style="opacity:0.004" fill="#fafbfa" d="M 112.5,166.5 C 113.833,167.167 113.833,167.167 112.5,166.5 Z"/></g>
<g><path style="opacity:0.059" fill="#dcdcdc" d="M 135.5,165.5 C 130.245,167.524 124.911,167.857 119.5,166.5C 124.854,166.431 130.187,166.098 135.5,165.5 Z"/></g>
<g><path style="opacity:0.004" fill="#fbfcfb" d="M 180.5,166.5 C 181.833,167.167 181.833,167.167 180.5,166.5 Z"/></g>
<g><path style="opacity:0.004" fill="#fafbfa" d="M 266.5,166.5 C 267.833,167.167 267.833,167.167 266.5,166.5 Z"/></g>
<g><path style="opacity:0.004" fill="#fbfcfb" d="M 354.5,166.5 C 355.833,167.167 355.833,167.167 354.5,166.5 Z"/></g>
<g><path style="opacity:0.008" fill="#fbfcfb" d="M 131.5,167.5 C 132.833,168.167 132.833,168.167 131.5,167.5 Z"/></g>
</svg>
