<?xml version="1.0" encoding="UTF-8"?>
<!DOCTYPE svg PUBLIC "-//W3C//DTD SVG 1.1//EN" "http://www.w3.org/Graphics/SVG/1.1/DTD/svg11.dtd">
<svg xmlns="http://www.w3.org/2000/svg" version="1.1" width="248px" height="114px" style="shape-rendering:geometricPrecision; text-rendering:geometricPrecision; image-rendering:optimizeQuality; fill-rule:evenodd; clip-rule:evenodd" xmlns:xlink="http://www.w3.org/1999/xlink">
<g><path style="opacity:0.447" fill="#a9c3ce" d="M 103.5,18.5 C 101.585,18.2155 99.9187,18.5489 98.5,19.5C 97.9569,19.44 97.6236,19.1067 97.5,18.5C 99.6365,17.2072 101.636,17.2072 103.5,18.5 Z"/></g>
<g><path style="opacity:0.439" fill="#9fbbc8" d="M 113.5,18.5 C 115.265,17.5386 117.265,17.2053 119.5,17.5C 119.737,18.791 119.404,19.791 118.5,20.5C 117.448,18.744 115.781,18.0773 113.5,18.5 Z"/></g>
<g><path style="opacity:0.457" fill="#8dafbe" d="M 210.5,18.5 C 205.833,18.5 201.167,18.5 196.5,18.5C 196.5,19.8333 196.5,21.1667 196.5,22.5C 195.814,21.1516 194.814,19.985 193.5,19C 199.235,17.2468 204.901,17.0801 210.5,18.5 Z"/></g>
<g><path style="opacity:0.55" fill="#94cee0" d="M 154.5,17.5 C 159.5,17.5 164.5,17.5 169.5,17.5C 170.068,22.9477 167.568,24.9477 162,23.5C 156.432,24.9477 153.932,22.9477 154.5,17.5 Z"/></g>
<g><path style="opacity:1" fill="#0f6b8b" d="M 95.5,22.5 C 92.5,22.5 89.5,22.5 86.5,22.5C 86.5,23.8333 86.5,25.1667 86.5,26.5C 89.1667,26.5 91.8333,26.5 94.5,26.5C 95.8333,27.8333 95.8333,29.1667 94.5,30.5C 91.8333,30.5 89.1667,30.5 86.5,30.5C 86.5,32.1667 86.5,33.8333 86.5,35.5C 89.5,35.5 92.5,35.5 95.5,35.5C 95.5,36.8333 95.5,38.1667 95.5,39.5C 91.1667,39.5 86.8333,39.5 82.5,39.5C 82.5,32.5 82.5,25.5 82.5,18.5C 86.8333,18.5 91.1667,18.5 95.5,18.5C 95.5,19.8333 95.5,21.1667 95.5,22.5 Z"/></g>
<g><path style="opacity:1" fill="#407e99" d="M 103.5,18.5 C 105.559,21.6106 107.392,24.9439 109,28.5C 110.24,25.0221 111.74,21.6887 113.5,18.5C 115.781,18.0773 117.448,18.744 118.5,20.5C 116.11,27.689 112.777,34.3557 108.5,40.5C 104.899,33.6304 101.565,26.6304 98.5,19.5C 99.9187,18.5489 101.585,18.2155 103.5,18.5 Z"/></g>
<g><path style="opacity:1" fill="#1b6e8d" d="M 126.5,39.5 C 125.167,40.8333 123.833,40.8333 122.5,39.5C 122.5,32.5 122.5,25.5 122.5,18.5C 123.833,18.5 125.167,18.5 126.5,18.5C 126.5,25.5 126.5,32.5 126.5,39.5 Z"/></g>
<g><path style="opacity:1" fill="#4b849e" d="M 132.5,17.5 C 145.819,15.0001 151.986,20.3335 151,33.5C 147.999,38.5661 143.499,40.8994 137.5,40.5C 135.571,40.4604 133.738,40.1271 132,39.5C 131.204,32.0869 131.37,24.7535 132.5,17.5 Z M 137.5,23.5 C 145.558,23.1454 147.558,26.4787 143.5,33.5C 141.591,34.3482 139.591,34.6816 137.5,34.5C 137.5,30.8333 137.5,27.1667 137.5,23.5 Z"/></g>
<g><path style="opacity:0.999" fill="#347895" d="M 185.5,27.5 C 185.783,28.2891 186.283,28.9558 187,29.5C 187.499,25.8484 187.665,22.1817 187.5,18.5C 188.919,17.5489 190.585,17.2155 192.5,17.5C 192.831,25.1955 192.497,32.8622 191.5,40.5C 187.182,36.6821 183.015,32.6821 179,28.5C 178.211,32.0915 178.378,35.5915 179.5,39C 177.75,40.3186 175.75,40.8186 173.5,40.5C 173.5,32.8333 173.5,25.1667 173.5,17.5C 178.35,19.6722 182.35,23.0055 185.5,27.5 Z"/></g>
<g><path style="opacity:0.09" fill="#e5f1f1" d="M 187.5,18.5 C 187.665,22.1817 187.499,25.8484 187,29.5C 186.283,28.9558 185.783,28.2891 185.5,27.5C 186.167,24.5 186.833,21.5 187.5,18.5 Z"/></g>
<g><path style="opacity:1" fill="#2a7492" d="M 210.5,18.5 C 211.833,19.8333 211.833,21.1667 210.5,22.5C 208.833,22.5 207.167,22.5 205.5,22.5C 205.5,28.1667 205.5,33.8333 205.5,39.5C 203.833,39.5 202.167,39.5 200.5,39.5C 200.5,34.1667 200.5,28.8333 200.5,23.5C 198.901,23.7678 197.568,23.4345 196.5,22.5C 196.5,21.1667 196.5,19.8333 196.5,18.5C 201.167,18.5 205.833,18.5 210.5,18.5 Z"/></g>
<g><path style="opacity:0.075" fill="#deeaec" d="M 95.5,22.5 C 92.9723,23.1657 90.3056,23.8324 87.5,24.5C 89.9688,25.1681 92.3021,25.8347 94.5,26.5C 91.8333,26.5 89.1667,26.5 86.5,26.5C 86.5,25.1667 86.5,23.8333 86.5,22.5C 89.5,22.5 92.5,22.5 95.5,22.5 Z"/></g>
<g><path style="opacity:0.276" fill="#acc3ce" d="M 95.5,22.5 C 95.5,21.1667 95.5,19.8333 95.5,18.5C 91.1667,18.5 86.8333,18.5 82.5,18.5C 82.5,25.5 82.5,32.5 82.5,39.5C 81.5084,32.3524 81.175,25.0191 81.5,17.5C 86.5,17.5 91.5,17.5 96.5,17.5C 96.7845,19.4147 96.4511,21.0813 95.5,22.5 Z"/></g>
<g><path style="opacity:0.914" fill="#63bfd6" d="M 168.5,26.5 C 168.5,27.8333 168.5,29.1667 168.5,30.5C 164.167,30.5 159.833,30.5 155.5,30.5C 155.5,29.1667 155.5,27.8333 155.5,26.5C 159.833,25.1667 164.167,25.1667 168.5,26.5 Z"/></g>
<g><path style="opacity:0.093" fill="#dfeced" d="M 210.5,22.5 C 209.432,23.4345 208.099,23.7678 206.5,23.5C 206.821,29.0262 206.488,34.3595 205.5,39.5C 205.5,33.8333 205.5,28.1667 205.5,22.5C 207.167,22.5 208.833,22.5 210.5,22.5 Z"/></g>
<g><path style="opacity:0.616" fill="#90b0be" d="M 126.5,39.5 C 126.5,32.5 126.5,25.5 126.5,18.5C 125.167,18.5 123.833,18.5 122.5,18.5C 122.5,25.5 122.5,32.5 122.5,39.5C 121.508,32.3524 121.175,25.0191 121.5,17.5C 123.5,17.5 125.5,17.5 127.5,17.5C 127.825,25.0191 127.492,32.3524 126.5,39.5 Z"/></g>
<g><path style="opacity:0.424" fill="#9ed5e4" d="M 155.5,26.5 C 155.5,27.8333 155.5,29.1667 155.5,30.5C 159.833,30.5 164.167,30.5 168.5,30.5C 168.5,29.1667 168.5,27.8333 168.5,26.5C 169.451,27.9187 169.784,29.5853 169.5,31.5C 164.5,31.5 159.5,31.5 154.5,31.5C 154.216,29.5853 154.549,27.9187 155.5,26.5 Z"/></g>
<g><path style="opacity:0.393" fill="#aec7d1" d="M 94.5,30.5 C 92.3926,31.4682 90.0593,31.8016 87.5,31.5C 87.5,32.5 87.5,33.5 87.5,34.5C 90.5,34.5 93.5,34.5 96.5,34.5C 96.5,36.5 96.5,38.5 96.5,40.5C 91.6367,40.8195 86.97,40.4861 82.5,39.5C 86.8333,39.5 91.1667,39.5 95.5,39.5C 95.5,38.1667 95.5,36.8333 95.5,35.5C 92.5,35.5 89.5,35.5 86.5,35.5C 86.5,33.8333 86.5,32.1667 86.5,30.5C 89.1667,30.5 91.8333,30.5 94.5,30.5 Z"/></g>
<g><path style="opacity:0.372" fill="#addbe9" d="M 169.5,35.5 C 164.833,35.5 160.167,35.5 155.5,35.5C 155.5,36.8333 155.5,38.1667 155.5,39.5C 154.549,38.0813 154.216,36.4147 154.5,34.5C 159.695,34.1795 164.695,34.5128 169.5,35.5 Z"/></g>
<g><path style="opacity:0.999" fill="#51b3d2" d="M 169.5,35.5 C 169.5,37.1667 169.5,38.8333 169.5,40.5C 164.637,40.8195 159.97,40.4861 155.5,39.5C 155.5,38.1667 155.5,36.8333 155.5,35.5C 160.167,35.5 164.833,35.5 169.5,35.5 Z"/></g>
<g><path style="opacity:0.086" fill="#eef6f6" d="M 200.5,39.5 C 202.167,39.5 203.833,39.5 205.5,39.5C 203.833,42.1667 202.167,42.1667 200.5,39.5 Z"/></g>
<g><path style="opacity:1" fill="#407d99" d="M 48.5,43.5 C 52.853,42.7992 56.5197,43.9659 59.5,47C 59.0459,48.6217 58.0459,49.7884 56.5,50.5C 49.1515,47.4453 45.9848,49.7787 47,57.5C 49.6121,60.5759 52.7787,61.2425 56.5,59.5C 61.9114,62.3021 61.5781,64.4688 55.5,66C 44.1199,66.9533 39.2866,61.7866 41,50.5C 42.7424,47.2543 45.2424,44.921 48.5,43.5 Z"/></g>
<g><path style="opacity:1" fill="#327794" d="M 81.5,44.5 C 81.5,51.5 81.5,58.5 81.5,65.5C 80.1667,65.5 78.8333,65.5 77.5,65.5C 77.5,62.5 77.5,59.5 77.5,56.5C 74.2869,56.19 71.2869,56.5233 68.5,57.5C 67.5269,59.9479 67.1936,62.6146 67.5,65.5C 66.1667,65.5 64.8333,65.5 63.5,65.5C 62.1667,58.5 62.1667,51.5 63.5,44.5C 64.8333,44.5 66.1667,44.5 67.5,44.5C 67.1936,47.3854 67.5269,50.0521 68.5,52.5C 71.1667,52.5 73.8333,52.5 76.5,52.5C 76.3359,49.8127 76.5026,47.146 77,44.5C 78.6155,43.1991 80.1155,43.1991 81.5,44.5 Z"/></g>
<g><path style="opacity:1" fill="#2f7592" d="M 105.5,64.5 C 104.081,65.4511 102.415,65.7845 100.5,65.5C 100.167,64.8333 99.8333,64.1667 99.5,63.5C 98.2067,62.8418 96.7067,62.5085 95,62.5C 93.0145,62.5687 91.5145,63.2353 90.5,64.5C 90.5,65.1667 90.1667,65.5 89.5,65.5C 87.5168,65.8432 86.1834,65.1765 85.5,63.5C 88.2734,56.4863 91.6068,49.8196 95.5,43.5C 99.6471,50.1269 102.98,57.1269 105.5,64.5 Z M 96.5,56.5 C 95.8333,57.8333 95.1667,57.8333 94.5,56.5C 95.1667,55.1667 95.8333,55.1667 96.5,56.5 Z"/></g>
<g><path style="opacity:1" fill="#1f708f" d="M 120.5,53.5 C 120.783,54.2891 121.283,54.9558 122,55.5C 122.499,51.8484 122.665,48.1817 122.5,44.5C 123.833,44.5 125.167,44.5 126.5,44.5C 126.825,51.6866 126.491,58.6866 125.5,65.5C 121.536,62.0371 117.702,58.3705 114,54.5C 113.501,58.4862 113.334,62.4862 113.5,66.5C 111.833,66.5 110.167,66.5 108.5,66.5C 108.169,58.8045 108.503,51.1378 109.5,43.5C 113.213,46.8838 116.879,50.2171 120.5,53.5 Z"/></g>
<g><path style="opacity:0.162" fill="#dbe7e7" d="M 122.5,44.5 C 122.665,48.1817 122.499,51.8484 122,55.5C 121.283,54.9558 120.783,54.2891 120.5,53.5C 121.167,50.5 121.833,47.5 122.5,44.5 Z"/></g>
<g><path style="opacity:1" fill="#3f7d99" d="M 144.5,60.5 C 145.043,60.44 145.376,60.1067 145.5,59.5C 144.675,58.6143 143.675,58.281 142.5,58.5C 142.5,57.1667 142.5,55.8333 142.5,54.5C 145.167,54.5 147.833,54.5 150.5,54.5C 150.789,58.1064 150.456,61.6064 149.5,65C 140.691,68.6715 134.524,66.1715 131,57.5C 130.353,49.4654 134.02,44.7988 142,43.5C 145.073,43.5229 147.74,44.5229 150,46.5C 150.507,47.9961 150.007,49.1627 148.5,50C 145.54,49.6799 142.54,49.6799 139.5,50C 135.5,53.3333 135.5,56.6667 139.5,60C 141.134,60.4935 142.801,60.6602 144.5,60.5 Z"/></g>
<g><path style="opacity:0.639" fill="#7da3b5" d="M 63.5,44.5 C 64.9187,43.5489 66.5853,43.2155 68.5,43.5C 68.5,46.5 68.5,49.5 68.5,52.5C 67.5269,50.0521 67.1936,47.3854 67.5,44.5C 66.1667,44.5 64.8333,44.5 63.5,44.5 Z"/></g>
<g><path style="opacity:1" fill="#66b0cf" d="M 155.5,43.5 C 160.167,43.5 164.833,43.5 169.5,43.5C 169.5,45.5 169.5,47.5 169.5,49.5C 164.821,49.6658 160.155,49.4992 155.5,49C 154.248,47.1722 154.248,45.3388 155.5,43.5 Z"/></g>
<g><path style="opacity:0.609" fill="#759eb1" d="M 122.5,44.5 C 123.919,43.5489 125.585,43.2155 127.5,43.5C 127.831,51.1955 127.497,58.8622 126.5,66.5C 125.893,66.3764 125.56,66.0431 125.5,65.5C 126.491,58.6866 126.825,51.6866 126.5,44.5C 125.167,44.5 123.833,44.5 122.5,44.5 Z"/></g>
<g><path style="opacity:1" fill="#3592b4" d="M 154.5,52.5 C 159.5,52.5 164.5,52.5 169.5,52.5C 169.5,54.1667 169.5,55.8333 169.5,57.5C 164.5,57.5 159.5,57.5 154.5,57.5C 154.5,55.8333 154.5,54.1667 154.5,52.5 Z"/></g>
<g><path style="opacity:0.075" fill="#e0ebef" d="M 94.5,56.5 C 95.1667,57.8333 95.8333,57.8333 96.5,56.5C 97.7514,57.472 97.418,58.1386 95.5,58.5C 93.582,58.1386 93.2486,57.472 94.5,56.5 Z"/></g>
<g><path style="opacity:0.345" fill="#c1d3dc" d="M 142.5,58.5 C 143.675,58.281 144.675,58.6143 145.5,59.5C 145.376,60.1067 145.043,60.44 144.5,60.5C 143.833,59.8333 143.167,59.1667 142.5,58.5 Z"/></g>
<g><path style="opacity:0.329" fill="#abc3ce" d="M 81.5,44.5 C 82.4916,51.6476 82.825,58.9809 82.5,66.5C 80.5,66.5 78.5,66.5 76.5,66.5C 76.5,63.5 76.5,60.5 76.5,57.5C 73.8333,57.5 71.1667,57.5 68.5,57.5C 71.2869,56.5233 74.2869,56.19 77.5,56.5C 77.5,59.5 77.5,62.5 77.5,65.5C 78.8333,65.5 80.1667,65.5 81.5,65.5C 81.5,58.5 81.5,51.5 81.5,44.5 Z"/></g>
<g><path style="opacity:0.647" fill="#7aa2b4" d="M 68.5,57.5 C 68.5,60.5 68.5,63.5 68.5,66.5C 66.5853,66.7845 64.9187,66.4511 63.5,65.5C 64.8333,65.5 66.1667,65.5 67.5,65.5C 67.1936,62.6146 67.5269,59.9479 68.5,57.5 Z"/></g>
<g><path style="opacity:0.077" fill="#e7f1f2" d="M 99.5,63.5 C 96.3915,63.2641 93.3915,63.5975 90.5,64.5C 91.5145,63.2353 93.0145,62.5687 95,62.5C 96.7067,62.5085 98.2067,62.8418 99.5,63.5 Z"/></g>
<g><path style="opacity:1" fill="#5c8da6" d="M 155.5,60.5 C 160.167,60.5 164.833,60.5 169.5,60.5C 169.5,62.5 169.5,64.5 169.5,66.5C 164.821,66.6658 160.155,66.4992 155.5,66C 154.248,64.1722 154.248,62.3388 155.5,60.5 Z"/></g>
<g><path style="opacity:0.235" fill="#c3d7dd" d="M 85.5,63.5 C 86.1834,65.1765 87.5168,65.8432 89.5,65.5C 88.0813,66.4511 86.4147,66.7845 84.5,66.5C 84.2627,65.209 84.596,64.209 85.5,63.5 Z"/></g>
<g><path style="opacity:0.231" fill="#cedfe3" d="M 105.5,64.5 C 106.043,64.56 106.376,64.8933 106.5,65.5C 104.364,66.7928 102.364,66.7928 100.5,65.5C 102.415,65.7845 104.081,65.4511 105.5,64.5 Z"/></g>
<g><path style="opacity:0.318" fill="#b1ddea" d="M 128.5,74.5 C 130.693,73.2031 133.027,73.2031 135.5,74.5C 135.376,75.1067 135.043,75.44 134.5,75.5C 132.735,74.5386 130.735,74.2053 128.5,74.5 Z"/></g>
<g><path style="opacity:1" fill="#abcfe2" d="M 190.5,73.5 C 193.125,74.4657 193.125,75.4657 190.5,76.5C 189.438,75.5754 189.438,74.5754 190.5,73.5 Z"/></g>
<g><path style="opacity:0.189" fill="#adc0cd" d="M 42.5,73.5 C 43.5,73.5 44.5,73.5 45.5,73.5C 45.5,76.8333 45.5,80.1667 45.5,83.5C 44.5,83.5 43.5,83.5 42.5,83.5C 42.5,80.1667 42.5,76.8333 42.5,73.5 Z"/></g>
<g><path style="opacity:0.925" fill="#6e97ac" d="M 52.5,79.5 C 52.6591,76.7994 53.8258,74.7994 56,73.5C 56.5,73.8333 57,74.1667 57.5,74.5C 54.8645,76.064 55.0311,77.3974 58,78.5C 61.8406,77.0052 63.174,78.3385 62,82.5C 58.9162,83.959 56.9162,82.959 56,79.5C 55.0013,84.5354 53.8347,84.5354 52.5,79.5 Z M 58.5,79.5 C 60.337,79.6395 60.6704,80.3061 59.5,81.5C 58.7025,81.0431 58.3691,80.3764 58.5,79.5 Z"/></g>
<g><path style="opacity:0.998" fill="#4fb7d2" d="M 128.5,74.5 C 130.735,74.2053 132.735,74.5386 134.5,75.5C 132.656,77.2789 131.99,79.6122 132.5,82.5C 132.44,83.0431 132.107,83.3764 131.5,83.5C 130.957,80.2548 129.957,77.2548 128.5,74.5 Z"/></g>
<g><path style="opacity:0.005" fill="#fefffe" d="M 134.5,75.5 C 133.935,77.9521 133.268,80.2854 132.5,82.5C 131.99,79.6122 132.656,77.2789 134.5,75.5 Z"/></g>
<g><path style="opacity:1" fill="#48aecd" d="M 158.5,75.5 C 157.527,77.9479 157.194,80.6146 157.5,83.5C 157.167,83.5 156.833,83.5 156.5,83.5C 156.5,80.8333 156.5,78.1667 156.5,75.5C 156.62,74.4138 157.287,73.7472 158.5,73.5C 161.083,74.2418 161.083,74.9085 158.5,75.5 Z"/></g>
<g><path style="opacity:0.173" fill="#bbdeec" d="M 191.5,77.5 C 191.5,79.5 191.5,81.5 191.5,83.5C 190.833,83.5 190.167,83.5 189.5,83.5C 188.432,82.5655 187.099,82.2322 185.5,82.5C 185.664,79.8127 185.497,77.146 185,74.5C 184.502,77.4816 184.335,80.4816 184.5,83.5C 183.521,80.3752 183.187,77.0419 183.5,73.5C 184.5,73.5 185.5,73.5 186.5,73.5C 186.5,76.1667 186.5,78.8333 186.5,81.5C 187.5,81.5 188.5,81.5 189.5,81.5C 189.157,79.5168 189.824,78.1834 191.5,77.5 Z"/></g>
<g><path style="opacity:0.627" fill="#89a9bb" d="M 52.5,79.5 C 52.5,80.8333 52.5,82.1667 52.5,83.5C 51.5,83.5 50.5,83.5 49.5,83.5C 49.4427,78.3183 48.776,78.3183 47.5,83.5C 46.5344,81.604 46.2011,79.604 46.5,77.5C 48.8863,77.2587 50.8863,77.9254 52.5,79.5 Z"/></g>
<g><path style="opacity:0.535" fill="#88aabb" d="M 118.5,77.5 C 119.978,77.238 121.311,77.5713 122.5,78.5C 122.291,79.086 121.957,79.586 121.5,80C 123.074,80.3357 124.408,81.1691 125.5,82.5C 123.167,83.8333 120.833,83.8333 118.5,82.5C 119.052,80.9974 119.052,79.3307 118.5,77.5 Z"/></g>
<g><path style="opacity:0.529" fill="#91cedf" d="M 134.5,77.5 C 135.978,77.238 137.311,77.5713 138.5,78.5C 135.757,85.339 134.424,85.0056 134.5,77.5 Z"/></g>
<g><path style="opacity:0.041" fill="#fcfdfd" d="M 191.5,77.5 C 191.833,77.5 192.167,77.5 192.5,77.5C 192.557,78.609 192.89,79.609 193.5,80.5C 192.833,81.5 192.167,82.5 191.5,83.5C 191.5,81.5 191.5,79.5 191.5,77.5 Z"/></g>
<g><path style="opacity:0.573" fill="#81a3b6" d="M 63.5,77.5 C 67.8839,77.1744 72.2172,77.5078 76.5,78.5C 77.3094,80.0709 77.6427,81.7376 77.5,83.5C 76.5,83.5 75.5,83.5 74.5,83.5C 74.4427,78.3183 73.776,78.3183 72.5,83.5C 71.1667,78.1667 69.8333,78.1667 68.5,83.5C 67.1667,78.1667 65.8333,78.1667 64.5,83.5C 63.5344,81.604 63.2011,79.604 63.5,77.5 Z"/></g>
<g><path style="opacity:0.49" fill="#8ccbde" d="M 156.5,75.5 C 156.5,78.1667 156.5,80.8333 156.5,83.5C 154.028,83.3672 151.361,83.2005 148.5,83C 147.874,82.2496 147.374,81.4162 147,80.5C 146,84.5 145,84.5 144,80.5C 143.517,81.448 143.351,82.448 143.5,83.5C 141.833,83.5 140.167,83.5 138.5,83.5C 138.833,81.5 139.167,79.5 139.5,77.5C 141.451,77.2267 142.951,77.8934 144,79.5C 144.674,78.4216 145.674,77.7549 147,77.5C 149.491,78.6748 151.991,78.6748 154.5,77.5C 154.351,78.552 154.517,79.552 155,80.5C 155.198,78.6183 155.698,76.9516 156.5,75.5 Z"/></g>
<g><path style="opacity:0.537" fill="#8ac9dd" d="M 158.5,75.5 C 158.777,78.4589 160.11,79.1256 162.5,77.5C 164.029,77.5288 165.196,78.1955 166,79.5C 168.041,78.2478 170.375,77.5812 173,77.5C 175.167,77.8333 177.333,78.1667 179.5,78.5C 180.734,80.3983 180.401,82.065 178.5,83.5C 177.719,82.2713 177.219,80.938 177,79.5C 176.781,80.938 176.281,82.2713 175.5,83.5C 174.757,82.0921 173.923,80.7588 173,79.5C 172.091,84.7298 170.925,84.7298 169.5,79.5C 168.833,80.8333 168.167,82.1667 167.5,83.5C 166.808,82.9747 166.308,82.3081 166,81.5C 162.555,84.5563 160.222,83.8896 159,79.5C 158.79,81.0581 158.29,82.3915 157.5,83.5C 157.194,80.6146 157.527,77.9479 158.5,75.5 Z M 162.5,79.5 C 163.773,80.0768 163.773,80.7435 162.5,81.5C 161.537,81.0302 161.537,80.3635 162.5,79.5 Z"/></g>
<g><path style="opacity:0.529" fill="#7da0b4" d="M 102.5,78.5 C 99.8333,79.8333 99.8333,81.1667 102.5,82.5C 101.432,83.4345 100.099,83.7678 98.5,83.5C 98.762,82.0222 98.4287,80.6888 97.5,79.5C 97.0941,80.5575 97.0941,81.8908 97.5,83.5C 96.0222,83.762 94.6888,83.4287 93.5,82.5C 94.8549,81.3247 94.6883,80.3247 93,79.5C 91.7533,82.3286 90.2533,84.9952 88.5,87.5C 88.1667,85.5 87.8333,83.5 87.5,81.5C 85.5607,83.6176 83.394,83.951 81,82.5C 80.3123,81.6683 80.479,81.0016 81.5,80.5C 85.1951,81.2514 85.0285,80.5848 81,78.5C 79.8333,74.3333 81.3333,72.8333 85.5,74C 86.7112,74.8928 86.7112,75.7261 85.5,76.5C 81.8049,75.7486 81.9715,76.4152 86,78.5C 88.0902,77.2092 89.4236,77.8758 90,80.5C 90.3742,79.5838 90.8742,78.7504 91.5,78C 94.4372,77.8999 97.1039,77.0666 99.5,75.5C 100.548,76.548 101.548,77.548 102.5,78.5 Z"/></g>
<g><path style="opacity:0.584" fill="#87a8b9" d="M 102.5,82.5 C 102.5,81.1667 102.5,79.8333 102.5,78.5C 104.708,76.8571 106.541,77.1904 108,79.5C 110.47,77.5135 113.303,77.0135 116.5,78C 117.76,79.8138 117.76,81.6471 116.5,83.5C 115.224,78.3183 114.557,78.3183 114.5,83.5C 112.058,83.6463 111.391,82.813 112.5,81C 112,80.5 111.5,80 111,79.5C 110.377,83.9316 109.377,84.2649 108,80.5C 107.517,81.448 107.351,82.448 107.5,83.5C 105.708,83.634 104.042,83.3007 102.5,82.5 Z"/></g>
<g><path style="opacity:1" fill="#2ca2c6" d="M 189.5,83.5 C 187.833,83.5 186.167,83.5 184.5,83.5C 184.335,80.4816 184.502,77.4816 185,74.5C 185.497,77.146 185.664,79.8127 185.5,82.5C 187.099,82.2322 188.432,82.5655 189.5,83.5 Z"/></g>
<g><path style="opacity:0.106" fill="#d2ebf2" d="M 199.5,77.5 C 198.766,78.7079 198.433,80.0413 198.5,81.5C 197.833,81.5 197.167,81.5 196.5,81.5C 195.833,80.5 195.167,79.5 194.5,78.5C 196.042,77.6993 197.708,77.366 199.5,77.5 Z"/></g>
<g><path style="opacity:0.831" fill="#79c1d8" d="M 199.5,77.5 C 202.162,78.6393 204.829,78.8059 207.5,78C 208.833,78.6667 208.833,79.3333 207.5,80C 208.552,81.1192 209.719,81.6192 211,81.5C 211.591,82.4835 211.257,83.1501 210,83.5C 208.31,82.8505 206.477,82.8505 204.5,83.5C 207.098,82.5278 207.098,81.5278 204.5,80.5C 204.167,80.5 203.833,80.5 203.5,80.5C 202.25,80.4226 201.417,79.756 201,78.5C 199.385,80.0107 199.385,81.344 201,82.5C 202.107,81.2881 202.607,81.6214 202.5,83.5C 200.528,84.5167 199.195,83.85 198.5,81.5C 198.433,80.0413 198.766,78.7079 199.5,77.5 Z"/></g>
<g><path style="opacity:1" fill="#70bed7" d="M 192.5,77.5 C 193.492,77.3284 194.158,77.6618 194.5,78.5C 195.167,79.5 195.833,80.5 196.5,81.5C 195.14,84.0155 194.14,83.6822 193.5,80.5C 192.89,79.609 192.557,78.609 192.5,77.5 Z"/></g>
<g><path style="opacity:0.161" fill="#d0e9f1" d="M 203.5,80.5 C 203.833,81.8333 204.167,81.8333 204.5,80.5C 207.098,81.5278 207.098,82.5278 204.5,83.5C 203.833,83.5 203.167,83.5 202.5,83.5C 202.607,81.6214 202.107,81.2881 201,82.5C 199.385,81.344 199.385,80.0107 201,78.5C 201.417,79.756 202.25,80.4226 203.5,80.5 Z"/></g>
</svg>
