<?xml version="1.0" encoding="UTF-8"?>
<!DOCTYPE svg PUBLIC "-//W3C//DTD SVG 1.1//EN" "http://www.w3.org/Graphics/SVG/1.1/DTD/svg11.dtd">
<svg xmlns="http://www.w3.org/2000/svg" version="1.1" width="710px" height="352px" style="shape-rendering:geometricPrecision; text-rendering:geometricPrecision; image-rendering:optimizeQuality; fill-rule:evenodd; clip-rule:evenodd" xmlns:xlink="http://www.w3.org/1999/xlink">
<g><path style="opacity:1" fill="#131313" d="M 305.5,-0.5 C 305.833,-0.5 306.167,-0.5 306.5,-0.5C 317.745,55.3936 328.745,111.394 339.5,167.5C 339.43,168.772 339.097,169.938 338.5,171C 333.5,171.667 328.5,171.667 323.5,171C 321.667,170.5 320.5,169.333 320,167.5C 313.337,134.191 306.837,100.858 300.5,67.5C 300.662,65.4727 300.495,63.4727 300,61.5C 298.812,62.5634 298.312,63.8967 298.5,65.5C 284.026,106.431 269.026,147.098 253.5,187.5C 252.596,188.209 252.263,189.209 252.5,190.5C 250.705,194.519 248.705,198.519 246.5,202.5C 245.253,197.731 243.253,193.397 240.5,189.5C 225.902,148.041 210.902,106.707 195.5,65.5C 194.012,62.8136 193.345,63.1469 193.5,66.5C 187.171,100.486 180.838,134.486 174.5,168.5C 174.182,169.647 173.516,170.481 172.5,171C 168.486,171.39 164.486,171.89 160.5,172.5C 156.501,172.689 154.501,170.856 154.5,167C 164.974,112.13 175.641,57.297 186.5,2.5C 187.5,1.16667 188.5,1.16667 189.5,2.5C 208.543,53.9573 227.21,105.624 245.5,157.5C 246.032,160.46 246.699,160.793 247.5,158.5C 267.13,105.58 286.463,52.58 305.5,-0.5 Z"/></g>
<g><path style="opacity:0.549" fill="#888888" d="M 187.5,-0.5 C 187.833,-0.5 188.167,-0.5 188.5,-0.5C 189.11,0.391047 189.443,1.39105 189.5,2.5C 188.5,1.16667 187.5,1.16667 186.5,2.5C 186.557,1.39105 186.89,0.391047 187.5,-0.5 Z"/></g>
<g><path style="opacity:0.392" fill="#aaaaaa" d="M 505.5,-0.5 C 505.833,-0.5 506.167,-0.5 506.5,-0.5C 506.5,0.166667 506.5,0.833333 506.5,1.5C 505.833,1.83333 505.167,2.16667 504.5,2.5C 504.557,1.39105 504.89,0.391047 505.5,-0.5 Z"/></g>
<g><path style="opacity:1" fill="#101010" d="M 506.5,1.5 C 513.931,17.3628 521.097,33.3628 528,49.5C 529.145,52.4318 529.978,55.4318 530.5,58.5C 530.427,60.0269 531.094,61.0269 532.5,61.5C 548.394,97.2842 563.727,133.284 578.5,169.5C 572.021,170.491 565.354,170.824 558.5,170.5C 551.872,155.903 545.205,141.237 538.5,126.5C 527.377,125.844 516.211,125.51 505,125.5C 493.407,125.353 481.907,125.853 470.5,127C 464.233,140.869 458.233,154.869 452.5,169C 452.164,170.03 451.497,170.53 450.5,170.5C 444.167,170.5 437.833,170.5 431.5,170.5C 431.5,169.5 431.5,168.5 431.5,167.5C 454.889,113.721 478.555,60.0548 502.5,6.5C 503.906,6.02694 504.573,5.02694 504.5,3.5C 504.5,3.16667 504.5,2.83333 504.5,2.5C 505.167,2.16667 505.833,1.83333 506.5,1.5 Z M 504.5,46.5 C 505.167,46.5 505.833,46.5 506.5,46.5C 513.742,66.4594 521.742,86.1261 530.5,105.5C 513.866,107.486 496.866,108.152 479.5,107.5C 487.551,87.0635 495.884,66.7301 504.5,46.5 Z"/></g>
<g><path style="opacity:1" fill="#121212" d="M 708.5,19.5 C 708.825,26.6866 708.491,33.6866 707.5,40.5C 702.809,36.8027 698.142,33.136 693.5,29.5C 693.027,28.0937 692.027,27.427 690.5,27.5C 653.749,12.6985 624.583,21.6985 603,54.5C 591.322,77.4785 591.822,100.145 604.5,122.5C 604.427,124.027 605.094,125.027 606.5,125.5C 606.427,127.027 607.094,128.027 608.5,128.5C 610.167,129.5 611.5,130.833 612.5,132.5C 612.5,134.5 613.5,135.5 615.5,135.5C 643.303,158.361 671.969,159.361 701.5,138.5C 703.027,138.573 704.027,137.906 704.5,136.5C 706.017,136.489 707.184,135.823 708,134.5C 708.5,141.826 708.666,149.159 708.5,156.5C 685.729,171.499 661.063,175.333 634.5,168C 626.881,165.524 619.881,162.024 613.5,157.5C 613.027,156.094 612.027,155.427 610.5,155.5C 600.807,149.473 593.14,141.473 587.5,131.5C 587.715,129.821 587.048,128.821 585.5,128.5C 570.09,98.8639 571.09,69.8639 588.5,41.5C 589.906,41.0269 590.573,40.0269 590.5,38.5C 590.833,37.5 591.5,36.8333 592.5,36.5C 593.906,36.0269 594.573,35.0269 594.5,33.5C 594.369,32.7611 594.536,32.0944 595,31.5C 601.155,25.1642 607.988,19.8308 615.5,15.5C 617.027,15.573 618.027,14.9063 618.5,13.5C 623.307,10.0995 628.64,7.76622 634.5,6.5C 637.152,6.59047 639.485,5.92381 641.5,4.5C 664.801,-0.506022 686.468,3.32731 706.5,16C 707.823,16.8159 708.489,17.9826 708.5,19.5 Z"/></g>
<g><path style="opacity:0.376" fill="#9b9b9b" d="M 504.5,3.5 C 504.573,5.02694 503.906,6.02694 502.5,6.5C 502.427,4.97306 503.094,3.97306 504.5,3.5 Z"/></g>
<g><path style="opacity:0.953" fill="#646464" d="M 641.5,4.5 C 639.485,5.92381 637.152,6.59047 634.5,6.5C 636.515,5.07619 638.848,4.40953 641.5,4.5 Z"/></g>
<g><path style="opacity:1" fill="#151515" d="M 117.5,7.5 C 122.267,7.19076 126.934,7.69076 131.5,9C 132.893,10.1711 133.727,11.6711 134,13.5C 134.667,65.5 134.667,117.5 134,169.5C 133.5,170 133,170.5 132.5,171C 127.5,171.667 122.5,171.667 117.5,171C 116.151,170.228 115.318,169.061 115,167.5C 114.333,114.833 114.333,62.1667 115,9.5C 115.995,8.93406 116.828,8.26739 117.5,7.5 Z"/></g>
<g><path style="opacity:1" fill="#0f0f0f" d="M 433.5,21.5 C 433.738,23.4044 434.738,24.7377 436.5,25.5C 438.796,27.4006 440.629,29.7339 442,32.5C 448.379,48.468 447.712,64.1347 440,79.5C 431.677,91.5817 420.177,98.4151 405.5,100C 397.5,100.333 389.5,100.667 381.5,101C 380.692,101.308 380.025,101.808 379.5,102.5C 378.677,125.124 378.177,147.79 378,170.5C 372.918,171.637 367.751,171.804 362.5,171C 361.692,170.692 361.025,170.192 360.5,169.5C 359.338,116.208 359.171,62.8742 360,9.5C 360.75,8.87424 361.584,8.37424 362.5,8C 377.526,7.21646 392.526,7.54979 407.5,9C 417.689,10.2631 426.356,14.4298 433.5,21.5 Z M 421.5,71.5 C 420.094,71.9731 419.427,72.9731 419.5,74.5C 418.833,74.5 418.5,74.8333 418.5,75.5C 416.973,75.427 415.973,76.0937 415.5,77.5C 406.748,81.0444 397.581,82.7111 388,82.5C 385.111,82.453 382.278,82.1196 379.5,81.5C 378.334,63.5093 378.167,45.5093 379,27.5C 388.791,26.279 398.624,26.4457 408.5,28C 424.182,34.3244 430.015,45.8244 426,62.5C 425.014,65.8057 423.514,68.8057 421.5,71.5 Z"/></g>
<g><path style="opacity:0.698" fill="#8e8e8e" d="M 618.5,13.5 C 618.027,14.9063 617.027,15.573 615.5,15.5C 615.973,14.0937 616.973,13.427 618.5,13.5 Z"/></g>
<g><path style="opacity:0.769" fill="#8f8f8f" d="M 433.5,21.5 C 435.262,22.2623 436.262,23.5956 436.5,25.5C 434.738,24.7377 433.738,23.4044 433.5,21.5 Z"/></g>
<g><path style="opacity:0.502" fill="#727272" d="M 708.5,19.5 C 708.833,19.5 709.167,19.5 709.5,19.5C 709.5,26.8333 709.5,34.1667 709.5,41.5C 708.508,41.6716 707.842,41.3382 707.5,40.5C 708.491,33.6866 708.825,26.6866 708.5,19.5 Z"/></g>
<g><path style="opacity:0.565" fill="#838383" d="M 690.5,27.5 C 692.027,27.427 693.027,28.0937 693.5,29.5C 691.973,29.573 690.973,28.9063 690.5,27.5 Z"/></g>
<g><path style="opacity:0.8" fill="#828282" d="M 594.5,33.5 C 594.573,35.0269 593.906,36.0269 592.5,36.5C 592.427,34.9731 593.094,33.9731 594.5,33.5 Z"/></g>
<g><path style="opacity:0.502" fill="#8d8d8d" d="M 590.5,38.5 C 590.573,40.0269 589.906,41.0269 588.5,41.5C 588.427,39.9731 589.094,38.9731 590.5,38.5 Z"/></g>
<g><path style="opacity:0.208" fill="#ababab" d="M 506.5,46.5 C 505.833,46.5 505.167,46.5 504.5,46.5C 505.167,43.8333 505.833,43.8333 506.5,46.5 Z"/></g>
<g><path style="opacity:0.329" fill="#a2a2a2" d="M 530.5,58.5 C 531.906,58.9731 532.573,59.9731 532.5,61.5C 531.094,61.0269 530.427,60.0269 530.5,58.5 Z"/></g>
<g><path style="opacity:0.169" fill="#cbcbcb" d="M 195.5,65.5 C 194.833,65.8333 194.167,66.1667 193.5,66.5C 193.345,63.1469 194.012,62.8136 195.5,65.5 Z"/></g>
<g><path style="opacity:0.275" fill="#b5b5b5" d="M 300.5,67.5 C 299.833,66.8333 299.167,66.1667 298.5,65.5C 298.312,63.8967 298.812,62.5634 300,61.5C 300.495,63.4727 300.662,65.4727 300.5,67.5 Z"/></g>
<g><path style="opacity:0.459" fill="#9b9b9b" d="M 421.5,71.5 C 421.573,73.0269 420.906,74.0269 419.5,74.5C 419.427,72.9731 420.094,71.9731 421.5,71.5 Z"/></g>
<g><path style="opacity:0.784" fill="#7a7a7a" d="M 418.5,75.5 C 418.027,76.9063 417.027,77.573 415.5,77.5C 415.973,76.0937 416.973,75.427 418.5,75.5 Z"/></g>
<g><path style="opacity:0.502" fill="#828282" d="M 530.5,105.5 C 531.404,106.209 531.737,107.209 531.5,108.5C 513.992,108.83 496.659,108.497 479.5,107.5C 496.866,108.152 513.866,107.486 530.5,105.5 Z"/></g>
<g><path style="opacity:0.298" fill="#a8a8a8" d="M 604.5,122.5 C 605.906,122.973 606.573,123.973 606.5,125.5C 605.094,125.027 604.427,124.027 604.5,122.5 Z"/></g>
<g><path style="opacity:0.737" fill="#8f8f8f" d="M 606.5,125.5 C 607.906,125.973 608.573,126.973 608.5,128.5C 607.094,128.027 606.427,127.027 606.5,125.5 Z"/></g>
<g><path style="opacity:0.937" fill="#7b7b7b" d="M 585.5,128.5 C 587.048,128.821 587.715,129.821 587.5,131.5C 586.599,130.71 585.932,129.71 585.5,128.5 Z"/></g>
<g><path style="opacity:0.722" fill="#9d9d9d" d="M 612.5,132.5 C 613.833,133.167 614.833,134.167 615.5,135.5C 613.5,135.5 612.5,134.5 612.5,132.5 Z"/></g>
<g><path style="opacity:0.627" fill="#6c6c6c" d="M 709.5,132.5 C 709.5,140.5 709.5,148.5 709.5,156.5C 709.167,156.5 708.833,156.5 708.5,156.5C 708.666,149.159 708.5,141.826 708,134.5C 707.184,135.823 706.017,136.489 704.5,136.5C 705.585,134.413 707.251,133.08 709.5,132.5 Z"/></g>
<g><path style="opacity:0.737" fill="#868686" d="M 704.5,136.5 C 704.027,137.906 703.027,138.573 701.5,138.5C 701.973,137.094 702.973,136.427 704.5,136.5 Z"/></g>
<g><path style="opacity:0.58" fill="#7d7d7d" d="M 610.5,155.5 C 612.027,155.427 613.027,156.094 613.5,157.5C 611.973,157.573 610.973,156.906 610.5,155.5 Z"/></g>
<g><path style="opacity:0.376" fill="#c4c4c4" d="M 245.5,157.5 C 246.167,157.833 246.833,158.167 247.5,158.5C 246.699,160.793 246.032,160.46 245.5,157.5 Z"/></g>
<g><path style="opacity:0.986" fill="#78ace8" d="M 29.5,197.5 C 29.5,196.5 29.5,195.5 29.5,194.5C 28.5,194.5 27.5,194.5 26.5,194.5C 33.8052,187.04 42.1385,180.873 51.5,176C 59.8842,171.327 68.5508,167.661 77.5,165C 78.7112,165.893 78.7112,166.726 77.5,167.5C 60.1167,175.49 44.1167,185.49 29.5,197.5 Z"/></g>
<g><path style="opacity:0.753" fill="#4a4a4a" d="M 431.5,167.5 C 431.5,168.5 431.5,169.5 431.5,170.5C 437.833,170.5 444.167,170.5 450.5,170.5C 443.679,171.655 436.679,171.821 429.5,171C 430.085,169.698 430.751,168.531 431.5,167.5 Z"/></g>
<g><path style="opacity:0.753" fill="#444444" d="M 578.5,169.5 C 579.043,169.56 579.376,169.893 579.5,170.5C 572.344,171.819 565.344,171.819 558.5,170.5C 565.354,170.824 572.021,170.491 578.5,169.5 Z"/></g>
<g><path style="opacity:0.992" fill="#7fb1ed" d="M 77.5,205.5 C 77.5,204.167 77.5,202.833 77.5,201.5C 76.1667,201.5 74.8333,201.5 73.5,201.5C 77.4571,194.21 83.1238,188.543 90.5,184.5C 91.521,185.002 91.6877,185.668 91,186.5C 85.4841,192.232 80.9841,198.565 77.5,205.5 Z"/></g>
<g><path style="opacity:0.024" fill="#c8d2dd" d="M 253.5,187.5 C 253.557,188.609 253.89,189.609 254.5,190.5C 253.833,190.5 253.167,190.5 252.5,190.5C 252.263,189.209 252.596,188.209 253.5,187.5 Z"/></g>
<g><path style="opacity:1" fill="#3c96f8" d="M 240.5,189.5 C 243.253,193.397 245.253,197.731 246.5,202.5C 248.705,198.519 250.705,194.519 252.5,190.5C 253.167,190.5 253.833,190.5 254.5,190.5C 263.035,189.924 268.702,193.591 271.5,201.5C 268.193,207.163 263.193,210.33 256.5,211C 245.56,212.822 235.226,211.156 225.5,206C 221.846,201.543 222.512,197.543 227.5,194C 231.833,192.181 236.167,190.681 240.5,189.5 Z"/></g>
<g><path style="opacity:1" fill="#459afb" d="M 365.5,198.5 C 365.263,197.209 365.596,196.209 366.5,195.5C 376.08,208.704 375.58,221.704 365,234.5C 354.525,244.658 342.359,252.158 328.5,257C 272.419,274.928 216.419,274.594 160.5,256C 146.74,250.564 134.906,242.398 125,231.5C 117.709,219.435 117.709,207.435 125,195.5C 127.486,192.204 129.319,192.204 130.5,195.5C 127.187,204.605 128.02,213.271 133,221.5C 141.431,231.251 151.597,238.751 163.5,244C 217.605,263.286 271.938,263.953 326.5,246C 340.38,240.656 352.213,232.489 362,221.5C 365.051,214.166 366.218,206.499 365.5,198.5 Z"/></g>
<g><path style="opacity:1" fill="#3596fc" d="M 26.5,194.5 C 27.5,194.5 28.5,194.5 29.5,194.5C 29.5,195.5 29.5,196.5 29.5,197.5C 24.8542,202.782 20.6876,208.448 17,214.5C 8.61666,233.533 11.2833,250.867 25,266.5C 39.0144,281.506 55.5144,293.006 74.5,301C 112.995,316.623 152.995,325.956 194.5,329C 259.755,335.194 323.755,328.86 386.5,310C 409.447,302.031 430.447,290.697 449.5,276C 461.105,264.955 469.271,251.789 474,236.5C 475.557,226.638 474.057,217.305 469.5,208.5C 469.263,207.209 469.596,206.209 470.5,205.5C 486.811,222.431 490.978,242.098 483,264.5C 475.412,279.759 464.578,292.259 450.5,302C 428.812,316.125 405.479,326.791 380.5,334C 348.304,343.275 315.637,349.109 282.5,351.5C 255.5,351.5 228.5,351.5 201.5,351.5C 157.815,348.461 115.482,338.961 74.5,323C 52.3124,314.127 32.8124,301.293 16,284.5C 8.05063,275.75 2.55063,265.75 -0.5,254.5C -0.5,247.5 -0.5,240.5 -0.5,233.5C 2.02346,226.777 4.8568,220.11 8,213.5C 13.0215,205.979 19.1881,199.646 26.5,194.5 Z"/></g>
<g><path style="opacity:1" fill="#4f9ef9" d="M 326.5,192.5 C 331.804,196.913 333.637,202.58 332,209.5C 327.859,218.975 321.026,225.808 311.5,230C 283.408,240.803 254.408,244.136 224.5,240C 208.395,238.187 193.395,233.187 179.5,225C 174.527,221.032 170.694,216.199 168,210.5C 167.068,205.011 167.568,199.677 169.5,194.5C 170.689,193.571 172.022,193.238 173.5,193.5C 171.905,202.888 174.905,210.388 182.5,216C 191.818,222.779 202.151,227.445 213.5,230C 247.241,238.092 279.907,235.092 311.5,221C 318.386,217.114 323.553,211.614 327,204.5C 327.607,200.463 327.44,196.463 326.5,192.5 Z"/></g>
<g><path style="opacity:0.247" fill="#d8ebfe" d="M 366.5,195.5 C 365.596,196.209 365.263,197.209 365.5,198.5C 364.218,197.292 364.218,195.958 365.5,194.5C 366.107,194.624 366.44,194.957 366.5,195.5 Z"/></g>
<g><path style="opacity:0.624" fill="#beddfd" d="M 410.5,199.5 C 409.662,199.842 409.328,200.508 409.5,201.5C 408.086,199.956 407.753,198.289 408.5,196.5C 409.425,197.357 410.092,198.357 410.5,199.5 Z"/></g>
<g><path style="opacity:1" fill="#3c97fb" d="M 410.5,199.5 C 420.107,209.967 423.274,222.3 420,236.5C 414.6,249.123 406.434,259.623 395.5,268C 365.286,286.073 332.619,297.406 297.5,302C 253.62,307.233 209.954,305.899 166.5,298C 144.196,293.454 122.863,286.121 102.5,276C 88.0491,267.883 76.5491,256.716 68,242.5C 62.6325,229.013 63.6325,216.013 71,203.5C 71.7083,202.619 72.5416,201.953 73.5,201.5C 74.8333,201.5 76.1667,201.5 77.5,201.5C 77.5,202.833 77.5,204.167 77.5,205.5C 74.8071,219.916 78.3071,232.583 88,243.5C 102.489,257.337 119.322,267.504 138.5,274C 206.18,294.906 274.18,295.906 342.5,277C 361.595,271.121 378.928,262.121 394.5,250C 410.309,237.08 415.309,220.913 409.5,201.5C 409.328,200.508 409.662,199.842 410.5,199.5 Z"/></g>
<g><path style="opacity:0.875" fill="#a8cefd" d="M 470.5,205.5 C 469.596,206.209 469.263,207.209 469.5,208.5C 467.7,207.105 467.366,205.439 468.5,203.5C 469.522,203.855 470.189,204.522 470.5,205.5 Z"/></g>
</svg>
