<?xml version="1.0" encoding="UTF-8"?>
<!DOCTYPE svg PUBLIC "-//W3C//DTD SVG 1.1//EN" "http://www.w3.org/Graphics/SVG/1.1/DTD/svg11.dtd">
<svg xmlns="http://www.w3.org/2000/svg" version="1.1" width="780px" height="320px" style="shape-rendering:geometricPrecision; text-rendering:geometricPrecision; image-rendering:optimizeQuality; fill-rule:evenodd; clip-rule:evenodd" xmlns:xlink="http://www.w3.org/1999/xlink">
<g><path style="opacity:1" fill="#3dbbd7" d="M 218.5,29.5 C 218.427,31.0269 219.094,32.0269 220.5,32.5C 223.096,40.8346 222.096,48.8346 217.5,56.5C 215.787,57.6354 215.12,59.302 215.5,61.5C 215.167,64.1667 214.833,66.8333 214.5,69.5C 215.5,69.5 216.5,69.5 217.5,69.5C 218.906,69.0269 219.573,68.0269 219.5,66.5C 219.942,63.6679 221.275,62.6679 223.5,63.5C 224.968,64.7791 225.635,66.4458 225.5,68.5C 223.012,74.985 218.345,78.985 211.5,80.5C 202.429,78.023 199.429,72.3563 202.5,63.5C 203.924,61.4855 204.59,59.1522 204.5,56.5C 205.099,53.0369 206.099,49.7036 207.5,46.5C 209.534,44.3452 209.867,42.0118 208.5,39.5C 207.828,38.7326 206.995,38.0659 206,37.5C 204.385,38.3862 202.885,39.3862 201.5,40.5C 199.866,39.4188 198.533,38.0855 197.5,36.5C 199.5,35.1667 201.167,33.5 202.5,31.5C 206.384,27.7741 211.051,26.6074 216.5,28C 217.416,28.2784 218.082,28.7784 218.5,29.5 Z"/></g>
<g><path style="opacity:1" fill="#37bad6" d="M 277.5,44.5 C 274.098,44.6576 270.764,44.3242 267.5,43.5C 267.785,41.712 267.452,40.0453 266.5,38.5C 265.28,39.7111 264.113,39.7111 263,38.5C 262.5,39 262,39.5 261.5,40C 262.337,41.0113 262.67,42.1779 262.5,43.5C 262.5,44.1667 262.167,44.5 261.5,44.5C 260.788,43.2613 259.788,42.7613 258.5,43C 259.731,44.1827 259.731,45.3493 258.5,46.5C 257.548,44.9547 257.215,43.288 257.5,41.5C 259.408,40.5144 260.408,38.8477 260.5,36.5C 264.815,27.1557 271.315,25.1557 280,30.5C 282.454,35.8394 281.621,40.506 277.5,44.5 Z"/></g>
<g><path style="opacity:1" fill="#37bad6" d="M 177.5,28.5 C 181.847,28.9198 185.847,29.5865 189.5,30.5C 190.222,30.9175 190.722,31.5842 191,32.5C 191.498,35.4816 191.665,38.4816 191.5,41.5C 190.596,42.209 190.263,43.209 190.5,44.5C 190.5,44.8333 190.5,45.1667 190.5,45.5C 189.596,46.209 189.263,47.209 189.5,48.5C 188.308,49.5659 188.641,50.3992 190.5,51C 189.833,51.6667 189.167,52.3333 188.5,53C 190.155,54.4443 190.822,56.2776 190.5,58.5C 188.703,65.5255 186.369,72.3588 183.5,79C 179.5,79.6667 175.5,79.6667 171.5,79C 170.272,77.5098 170.272,76.0098 171.5,74.5C 173.41,71.5475 174.41,68.2142 174.5,64.5C 175.924,62.4855 176.59,60.1522 176.5,57.5C 176.5,56.8333 176.5,56.1667 176.5,55.5C 178.28,54.0101 178.946,52.0101 178.5,49.5C 179.005,46.1589 179.172,42.8255 179,39.5C 178.333,38.8333 177.667,38.1667 177,37.5C 176.329,38.2524 175.496,38.5858 174.5,38.5C 172.876,38.6399 171.71,37.9733 171,36.5C 170.517,37.448 170.351,38.448 170.5,39.5C 169.127,39.6567 167.793,39.49 166.5,39C 167.823,38.1841 168.489,37.0174 168.5,35.5C 170.637,32.027 173.637,29.6936 177.5,28.5 Z"/></g>
<g><path style="opacity:1" fill="#70cde0" d="M 177.5,28.5 C 180.304,27.3622 183.304,27.1955 186.5,28C 187.942,28.3768 188.942,29.2101 189.5,30.5C 185.847,29.5865 181.847,28.9198 177.5,28.5 Z"/></g>
<g><path style="opacity:0.396" fill="#b9e9f1" d="M 218.5,29.5 C 219.906,29.9731 220.573,30.9731 220.5,32.5C 219.094,32.0269 218.427,31.0269 218.5,29.5 Z"/></g>
<g><path style="opacity:1" fill="#5ac4dc" d="M 157.5,28.5 C 154.68,28.2475 152.014,28.7475 149.5,30C 150.672,30.4186 151.672,31.0853 152.5,32C 151.049,31.7374 149.716,31.9041 148.5,32.5C 149.641,33.4255 149.641,34.2588 148.5,35C 152.19,35.6904 153.357,37.8571 152,41.5C 151.617,42.056 151.117,42.3893 150.5,42.5C 150.286,40.8561 150.62,39.3561 151.5,38C 150.975,37.3076 150.308,36.8076 149.5,36.5C 147.24,38.1768 145.573,40.3434 144.5,43C 141.788,43.7381 139.455,43.0714 137.5,41C 139.773,35.0604 143.773,30.727 149.5,28C 152.367,27.1993 155.034,27.3659 157.5,28.5 Z"/></g>
<g><path style="opacity:0.522" fill="#b9e8f1" d="M 202.5,31.5 C 201.167,33.5 199.5,35.1667 197.5,36.5C 198.167,33.8333 199.833,32.1667 202.5,31.5 Z"/></g>
<g><path style="opacity:0.698" fill="#a6e2ee" d="M 253.5,30.5 C 255.239,32.3749 256.239,34.7082 256.5,37.5C 255.418,39.6728 255.418,41.6728 256.5,43.5C 256.5,44.1667 256.5,44.8333 256.5,45.5C 255.442,46.6002 254.608,47.9336 254,49.5C 254.783,43.1682 254.616,36.8349 253.5,30.5 Z"/></g>
<g><path style="opacity:1" fill="#57c3db" d="M 241.5,29.5 C 240.859,30.4822 240.193,31.4822 239.5,32.5C 241.015,34.0822 242.681,35.4155 244.5,36.5C 241.204,38.1301 238.537,40.4635 236.5,43.5C 235.062,43.2811 233.729,42.7811 232.5,42C 231.226,41.0228 231.226,40.1894 232.5,39.5C 233.906,39.0269 234.573,38.0269 234.5,36.5C 235.833,33.1667 238.167,30.8333 241.5,29.5 Z"/></g>
<g><path style="opacity:0.31" fill="#bee9f1" d="M 234.5,36.5 C 234.573,38.0269 233.906,39.0269 232.5,39.5C 232.427,37.9731 233.094,36.9731 234.5,36.5 Z"/></g>
<g><path style="opacity:1" fill="#76cee1" d="M 267.5,43.5 C 266.685,42.5707 265.852,41.5707 265,40.5C 264.148,41.5707 263.315,42.5707 262.5,43.5C 262.67,42.1779 262.337,41.0113 261.5,40C 262,39.5 262.5,39 263,38.5C 264.113,39.7111 265.28,39.7111 266.5,38.5C 267.452,40.0453 267.785,41.712 267.5,43.5 Z"/></g>
<g><path style="opacity:1" fill="#65c7dd" d="M 168.5,35.5 C 168.489,37.0174 167.823,38.1841 166.5,39C 167.793,39.49 169.127,39.6567 170.5,39.5C 170.351,38.448 170.517,37.448 171,36.5C 171.71,37.9733 172.876,38.6399 174.5,38.5C 170.224,41.7212 166.891,45.7212 164.5,50.5C 164.338,48.4727 164.505,46.4727 165,44.5C 165.889,45.8882 166.389,45.7215 166.5,44C 166.361,42.699 165.695,41.8656 164.5,41.5C 164.845,38.8021 166.178,36.8021 168.5,35.5 Z"/></g>
<g><path style="opacity:1" fill="#8cd5e6" d="M 260.5,36.5 C 260.408,38.8477 259.408,40.5144 257.5,41.5C 257.75,39.326 258.75,37.6594 260.5,36.5 Z"/></g>
<g><path style="opacity:1" fill="#30b9d5" d="M 157.5,28.5 C 159.934,29.7713 161.434,31.7713 162,34.5C 162.543,37.8678 162.376,41.2011 161.5,44.5C 160.297,45.9425 159.797,47.6092 160,49.5C 161.372,48.0899 162.205,46.4233 162.5,44.5C 163.906,44.0269 164.573,43.0269 164.5,41.5C 165.695,41.8656 166.361,42.699 166.5,44C 166.389,45.7215 165.889,45.8882 165,44.5C 164.505,46.4727 164.338,48.4727 164.5,50.5C 162.146,56.5755 159.812,62.5755 157.5,68.5C 156.357,68.9081 155.357,69.5748 154.5,70.5C 155.309,72.0709 155.643,73.7376 155.5,75.5C 155.5,75.8333 155.5,76.1667 155.5,76.5C 151.265,77.436 146.931,77.7693 142.5,77.5C 142.833,74.8333 143.167,72.1667 143.5,69.5C 143.232,67.901 143.566,66.5676 144.5,65.5C 145.924,63.4855 146.59,61.1522 146.5,58.5C 148.04,56.1617 148.706,53.4951 148.5,50.5C 148.565,47.5718 149.232,44.9052 150.5,42.5C 151.117,42.3893 151.617,42.056 152,41.5C 153.357,37.8571 152.19,35.6904 148.5,35C 149.641,34.2588 149.641,33.4255 148.5,32.5C 149.716,31.9041 151.049,31.7374 152.5,32C 151.672,31.0853 150.672,30.4186 149.5,30C 152.014,28.7475 154.68,28.2475 157.5,28.5 Z"/></g>
<g><path style="opacity:0.42" fill="#afe4ef" d="M 164.5,41.5 C 164.573,43.0269 163.906,44.0269 162.5,44.5C 162.427,42.9731 163.094,41.9731 164.5,41.5 Z"/></g>
<g><path style="opacity:0.035" fill="#ceeff4" d="M 191.5,41.5 C 191.328,42.4916 191.662,43.1583 192.5,43.5C 192.672,44.4916 192.338,45.1583 191.5,45.5C 191.5,44.8333 191.167,44.5 190.5,44.5C 190.263,43.209 190.596,42.209 191.5,41.5 Z"/></g>
<g><path style="opacity:0.651" fill="#ade5ee" d="M 208.5,39.5 C 209.867,42.0118 209.534,44.3452 207.5,46.5C 207.993,44.1944 208.326,41.861 208.5,39.5 Z"/></g>
<g><path style="opacity:0.929" fill="#8bd7e6" d="M 267.5,43.5 C 270.764,44.3242 274.098,44.6576 277.5,44.5C 273.886,47.3128 270.552,46.9795 267.5,43.5 Z"/></g>
<g><path style="opacity:0.831" fill="#97ddea" d="M 244.5,42.5 C 244.59,45.1522 243.924,47.4855 242.5,49.5C 242.41,46.8478 243.076,44.5145 244.5,42.5 Z"/></g>
<g><path style="opacity:1" fill="#68c8de" d="M 257.5,41.5 C 257.215,43.288 257.548,44.9547 258.5,46.5C 259.731,45.3493 259.731,44.1827 258.5,43C 259.788,42.7613 260.788,43.2613 261.5,44.5C 260.083,47.669 258.417,50.669 256.5,53.5C 256.5,50.8333 256.5,48.1667 256.5,45.5C 256.5,44.8333 256.5,44.1667 256.5,43.5C 256.328,42.5084 256.662,41.8417 257.5,41.5 Z"/></g>
<g><path style="opacity:0.118" fill="#d1f1f5" d="M 161.5,44.5 C 161.833,44.5 162.167,44.5 162.5,44.5C 162.205,46.4233 161.372,48.0899 160,49.5C 159.797,47.6092 160.297,45.9425 161.5,44.5 Z"/></g>
<g><path style="opacity:0.188" fill="#beeaf2" d="M 190.5,45.5 C 190.833,45.5 191.167,45.5 191.5,45.5C 191.374,47.6216 190.707,48.6216 189.5,48.5C 189.263,47.209 189.596,46.209 190.5,45.5 Z"/></g>
<g><path style="opacity:1" fill="#2bb8d4" d="M 253.5,30.5 C 254.616,36.8349 254.783,43.1682 254,49.5C 254.608,47.9336 255.442,46.6002 256.5,45.5C 256.5,48.1667 256.5,50.8333 256.5,53.5C 255.208,58.3816 253.541,63.0483 251.5,67.5C 250.076,69.5145 249.41,71.8478 249.5,74.5C 249.5,74.8333 249.5,75.1667 249.5,75.5C 245.827,77.3177 241.827,77.9843 237.5,77.5C 237.5,74.5 237.5,71.5 237.5,68.5C 237.366,66.7085 237.699,65.0418 238.5,63.5C 240.163,61.5615 240.829,59.2282 240.5,56.5C 241.924,54.4855 242.59,52.1522 242.5,49.5C 243.924,47.4855 244.59,45.1522 244.5,42.5C 244.5,40.5 244.5,38.5 244.5,36.5C 242.681,35.4155 241.015,34.0822 239.5,32.5C 240.193,31.4822 240.859,30.4822 241.5,29.5C 243.117,28.0277 245.117,27.361 247.5,27.5C 250.308,27.0777 252.308,28.0777 253.5,30.5 Z"/></g>
<g><path style="opacity:1" fill="#53c2da" d="M 197.5,36.5 C 198.533,38.0855 199.866,39.4188 201.5,40.5C 196.802,45.9014 193.135,51.9014 190.5,58.5C 190.822,56.2776 190.155,54.4443 188.5,53C 189.167,52.3333 189.833,51.6667 190.5,51C 188.641,50.3992 188.308,49.5659 189.5,48.5C 190.707,48.6216 191.374,47.6216 191.5,45.5C 192.338,45.1583 192.672,44.4916 192.5,43.5C 193.443,40.5999 195.11,38.2666 197.5,36.5 Z"/></g>
<g><path style="opacity:0.941" fill="#9bdcea" d="M 178.5,49.5 C 178.946,52.0101 178.28,54.0101 176.5,55.5C 176.875,53.3024 177.542,51.3024 178.5,49.5 Z"/></g>
<g><path style="opacity:0.867" fill="#9adcea" d="M 148.5,50.5 C 148.706,53.4951 148.04,56.1617 146.5,58.5C 146.565,55.5718 147.232,52.9052 148.5,50.5 Z"/></g>
<g><path style="opacity:0.396" fill="#b5e7f0" d="M 242.5,49.5 C 242.59,52.1522 241.924,54.4855 240.5,56.5C 240.41,53.8478 241.076,51.5145 242.5,49.5 Z"/></g>
<g><path style="opacity:0.773" fill="#95dbe8" d="M 217.5,56.5 C 217.598,58.5529 216.931,60.2196 215.5,61.5C 215.12,59.302 215.787,57.6354 217.5,56.5 Z"/></g>
<g><path style="opacity:0.765" fill="#9ddfeb" d="M 204.5,56.5 C 204.59,59.1522 203.924,61.4855 202.5,63.5C 202.41,60.8478 203.076,58.5145 204.5,56.5 Z"/></g>
<g><path style="opacity:0.741" fill="#b0e4ee" d="M 240.5,56.5 C 240.829,59.2282 240.163,61.5615 238.5,63.5C 238.721,60.9327 239.388,58.5994 240.5,56.5 Z"/></g>
<g><path style="opacity:0.816" fill="#a1e0ed" d="M 146.5,58.5 C 146.59,61.1522 145.924,63.4855 144.5,65.5C 144.41,62.8478 145.076,60.5145 146.5,58.5 Z"/></g>
<g><path style="opacity:0.573" fill="#9ddfeb" d="M 176.5,57.5 C 176.59,60.1522 175.924,62.4855 174.5,64.5C 174.41,61.8478 175.076,59.5145 176.5,57.5 Z"/></g>
<g><path style="opacity:0.925" fill="#a2dfeb" d="M 223.5,63.5 C 227.839,63.8368 228.506,65.5035 225.5,68.5C 225.635,66.4458 224.968,64.7791 223.5,63.5 Z"/></g>
<g><path style="opacity:1" fill="#43bdd7" d="M 283.5,66.5 C 283.5,69.5 283.5,72.5 283.5,75.5C 283.084,77.7525 281.751,79.2525 279.5,80C 269.431,80.5786 266.264,76.0786 270,66.5C 274.625,61.1934 279.125,61.1934 283.5,66.5 Z"/></g>
<g><path style="opacity:0.573" fill="#bae8f0" d="M 174.5,64.5 C 174.41,68.2142 173.41,71.5475 171.5,74.5C 171.899,70.8835 172.899,67.5502 174.5,64.5 Z"/></g>
<g><path style="opacity:0.322" fill="#c5ecf3" d="M 219.5,66.5 C 219.573,68.0269 218.906,69.0269 217.5,69.5C 217.427,67.9731 218.094,66.9731 219.5,66.5 Z"/></g>
<g><path style="opacity:1" fill="#86d2e4" d="M 157.5,68.5 C 157.279,71.0673 156.612,73.4006 155.5,75.5C 155.643,73.7376 155.309,72.0709 154.5,70.5C 155.357,69.5748 156.357,68.9081 157.5,68.5 Z"/></g>
<g><path style="opacity:0.004" fill="#d8f3f6" d="M 251.5,67.5 C 251.59,70.1522 250.924,72.4855 249.5,74.5C 249.41,71.8478 250.076,69.5145 251.5,67.5 Z"/></g>
<g><path style="opacity:0.765" fill="#98dcea" d="M 283.5,66.5 C 286.167,69.5 286.167,72.5 283.5,75.5C 283.5,72.5 283.5,69.5 283.5,66.5 Z"/></g>
<g><path style="opacity:0.612" fill="#c7ecf3" d="M 143.5,69.5 C 143.167,72.1667 142.833,74.8333 142.5,77.5C 146.298,78.4834 150.298,78.8168 154.5,78.5C 150.354,79.647 146.02,79.8136 141.5,79C 140.798,75.5909 141.465,72.4242 143.5,69.5 Z"/></g>
<g><path style="opacity:0.743" fill="#70d1e4" d="M 155.5,76.5 C 155.672,77.4916 155.338,78.1583 154.5,78.5C 150.298,78.8168 146.298,78.4834 142.5,77.5C 146.931,77.7693 151.265,77.436 155.5,76.5 Z"/></g>
<g><path style="opacity:0.757" fill="#70cfe2" d="M 237.5,68.5 C 237.5,71.5 237.5,74.5 237.5,77.5C 241.827,77.9843 245.827,77.3177 249.5,75.5C 249.737,76.791 249.404,77.791 248.5,78.5C 244.167,78.5 239.833,78.5 235.5,78.5C 235.5,77.5 235.5,76.5 235.5,75.5C 235.721,72.9327 236.388,70.5994 237.5,68.5 Z"/></g>
<g><path style="opacity:0.058" fill="#eef9fb" d="M 235.5,75.5 C 235.5,76.5 235.5,77.5 235.5,78.5C 239.833,78.5 244.167,78.5 248.5,78.5C 244.03,79.4861 239.363,79.8195 234.5,79.5C 234.232,77.901 234.566,76.5676 235.5,75.5 Z"/></g>
<g><path style="opacity:1" fill="#2bb8d4" d="M 246.5,115.5 C 247.528,119.879 249.861,123.213 253.5,125.5C 254.674,126.514 255.34,127.847 255.5,129.5C 255.171,132.228 255.837,134.562 257.5,136.5C 263.403,159.049 257.736,178.216 240.5,194C 238.423,195.705 236.09,196.872 233.5,197.5C 232.178,197.67 231.011,197.337 230,196.5C 229.52,198.133 228.687,199.466 227.5,200.5C 225.214,200.595 223.214,201.262 221.5,202.5C 212.167,205.167 202.833,205.167 193.5,202.5C 191.485,201.076 189.152,200.41 186.5,200.5C 181.173,198.841 176.507,196.174 172.5,192.5C 172.511,190.983 173.177,189.816 174.5,189C 173.167,189 171.833,189 170.5,189C 170.221,185.896 168.221,184.063 164.5,183.5C 164.715,181.821 164.048,180.821 162.5,180.5C 160.609,177.386 159.276,174.052 158.5,170.5C 157.688,159.854 157.354,149.187 157.5,138.5C 158.924,136.485 159.59,134.152 159.5,131.5C 161.797,129.377 163.13,126.71 163.5,123.5C 165.111,119.949 167.444,116.949 170.5,114.5C 173.089,113.581 175.089,111.914 176.5,109.5C 176.973,108.094 177.973,107.427 179.5,107.5C 181.027,107.573 182.027,106.906 182.5,105.5C 200.11,97.4023 217.777,97.569 235.5,106C 239.949,108.284 243.616,111.451 246.5,115.5 Z M 229.5,169.5 C 228.388,171.599 227.721,173.933 227.5,176.5C 226.105,179.621 224.438,182.621 222.5,185.5C 220.973,185.427 219.973,186.094 219.5,187.5C 211.323,190.443 203.323,190.109 195.5,186.5C 194.167,184.5 192.5,182.833 190.5,181.5C 189.403,178.314 188.07,175.314 186.5,172.5C 184.303,159.889 183.97,147.222 185.5,134.5C 186.612,132.401 187.279,130.067 187.5,127.5C 188.551,125.071 189.884,122.738 191.5,120.5C 192.5,119.5 193.5,118.5 194.5,117.5C 216.032,109.861 227.865,117.528 230,140.5C 230.693,150.189 230.527,159.856 229.5,169.5 Z"/></g>
<g><path style="opacity:1" fill="#2db8d5" d="M 365.5,118.5 C 366.301,121.782 367.968,124.448 370.5,126.5C 371.674,127.514 372.34,128.847 372.5,130.5C 372.41,133.152 373.076,135.485 374.5,137.5C 380.312,161.231 373.645,180.731 354.5,196C 342.093,203.463 328.76,205.963 314.5,203.5C 312.095,202.232 309.428,201.565 306.5,201.5C 306.167,201.5 305.833,201.5 305.5,201.5C 303.824,199.166 301.491,198.166 298.5,198.5C 286.42,192.757 278.754,183.424 275.5,170.5C 275.975,167.918 275.308,165.918 273.5,164.5C 272.197,156.803 272.197,149.136 273.5,141.5C 274.117,141.389 274.617,141.056 275,140.5C 275.696,137.522 276.196,134.522 276.5,131.5C 281.102,119.059 289.435,109.893 301.5,104C 303.436,103.187 305.436,102.687 307.5,102.5C 310.152,102.59 312.485,101.924 314.5,100.5C 330.975,97.5625 345.975,101.062 359.5,111C 362.118,113.106 364.118,115.606 365.5,118.5 Z M 335.5,116.5 C 336.833,118.5 338.5,120.167 340.5,121.5C 341.596,124.032 342.929,126.365 344.5,128.5C 344.41,131.152 345.076,133.485 346.5,135.5C 347.833,146.833 347.833,158.167 346.5,169.5C 345.262,171.214 344.595,173.214 344.5,175.5C 343.227,177.713 342.227,180.046 341.5,182.5C 339.5,183.833 337.833,185.5 336.5,187.5C 315.843,193.747 304.343,186.08 302,164.5C 301.296,154.144 301.463,143.811 302.5,133.5C 303.612,131.401 304.279,129.067 304.5,126.5C 309.784,115.663 318.451,111.829 330.5,115C 332.154,115.608 333.821,116.108 335.5,116.5 Z"/></g>
<g><path style="opacity:1" fill="#7ad0e3" d="M 465.5,101.5 C 456.716,101.084 448.049,101.751 439.5,103.5C 446.636,99.7889 454.302,98.6222 462.5,100C 463.737,100.232 464.737,100.732 465.5,101.5 Z"/></g>
<g><path style="opacity:1" fill="#21b6d4" d="M 567.5,100.5 C 569.438,102.163 571.772,102.829 574.5,102.5C 575.959,102.433 577.292,102.766 578.5,103.5C 578.577,104.75 579.244,105.583 580.5,106C 580.167,106.333 579.833,106.667 579.5,107C 582.279,107.561 584.946,108.394 587.5,109.5C 589.167,110.5 590.5,111.833 591.5,113.5C 591.738,115.404 592.738,116.738 594.5,117.5C 596.588,119.336 597.921,121.669 598.5,124.5C 599.025,128.533 600.358,132.2 602.5,135.5C 602.5,136.167 602.5,136.833 602.5,137.5C 602.5,142.833 602.5,148.167 602.5,153.5C 580.167,153.5 557.833,153.5 535.5,153.5C 535.187,157.042 535.521,160.375 536.5,163.5C 537.434,164.568 537.768,165.901 537.5,167.5C 537.054,170.01 537.72,172.01 539.5,173.5C 541.779,179.113 545.779,183.113 551.5,185.5C 552.635,187.213 554.302,187.88 556.5,187.5C 556.833,187.5 557.167,187.5 557.5,187.5C 564.104,188.889 570.77,188.555 577.5,186.5C 577.863,185.817 578.196,185.15 578.5,184.5C 580.027,184.573 581.027,183.906 581.5,182.5C 582.167,181.167 583.167,180.167 584.5,179.5C 585.906,179.027 586.573,178.027 586.5,176.5C 588.741,175.7 589.741,174.034 589.5,171.5C 593.5,171.5 597.5,171.5 601.5,171.5C 601.5,172.833 601.5,174.167 601.5,175.5C 598.357,187.485 591.024,195.985 579.5,201C 567.59,204.876 555.59,205.376 543.5,202.5C 541.316,200.415 538.649,199.415 535.5,199.5C 533.847,199.34 532.514,198.674 531.5,197.5C 531.027,196.094 530.027,195.427 528.5,195.5C 527.058,194.18 526.392,192.514 526.5,190.5C 524.784,190.371 523.117,190.038 521.5,189.5C 521.371,186.13 519.705,184.13 516.5,183.5C 516.715,181.821 516.048,180.821 514.5,180.5C 513.559,178.95 512.893,177.284 512.5,175.5C 512.405,173.214 511.738,171.214 510.5,169.5C 510.435,166.572 509.768,163.905 508.5,161.5C 508.5,156.167 508.5,150.833 508.5,145.5C 510.34,139.97 512.007,134.303 513.5,128.5C 514.079,125.669 515.412,123.336 517.5,121.5C 518.906,121.027 519.573,120.027 519.5,118.5C 519.833,117.5 520.5,116.833 521.5,116.5C 525.1,114.57 528.1,111.903 530.5,108.5C 531.659,106.75 533.326,105.75 535.5,105.5C 536.496,105.414 537.329,105.748 538,106.5C 540.696,104.551 543.529,102.885 546.5,101.5C 550.391,99.9926 554.558,99.3259 559,99.5C 562.021,99.5022 564.854,99.8356 567.5,100.5 Z M 564.5,114.5 C 566.463,115.82 568.463,117.154 570.5,118.5C 572.45,121.406 574.117,124.406 575.5,127.5C 575.433,128.959 575.766,130.292 576.5,131.5C 576.397,134.219 576.731,136.885 577.5,139.5C 577.058,140.739 576.391,141.739 575.5,142.5C 562.568,142.396 549.568,142.063 536.5,141.5C 536.5,140.167 536.5,138.833 536.5,137.5C 537.657,134.727 538.324,131.727 538.5,128.5C 540.689,122.309 544.689,117.642 550.5,114.5C 555.167,113.167 559.833,113.167 564.5,114.5 Z"/></g>
<g><path style="opacity:0.788" fill="#9bdeeb" d="M 722.5,100.5 C 720.302,100.409 719.969,101.075 721.5,102.5C 720.833,102.5 720.167,102.5 719.5,102.5C 718.791,101.596 717.791,101.263 716.5,101.5C 717.263,100.732 718.263,100.232 719.5,100C 717.115,99.4436 714.782,99.6103 712.5,100.5C 712.611,99.8826 712.944,99.3826 713.5,99C 716.167,98.3333 718.833,98.3333 721.5,99C 722.056,99.3826 722.389,99.8826 722.5,100.5 Z"/></g>
<g><path style="opacity:1" fill="#29b7d4" d="M 113.5,100.5 C 115.438,102.163 117.772,102.829 120.5,102.5C 131.671,105.672 139.338,112.672 143.5,123.5C 143.608,128.87 143.275,134.203 142.5,139.5C 140.233,145.98 135.567,148.98 128.5,148.5C 126.41,148.427 124.41,148.094 122.5,147.5C 122.027,146.094 121.027,145.427 119.5,145.5C 113.638,140.695 112.138,134.695 115,127.5C 116.644,124.689 118.81,122.356 121.5,120.5C 120.118,118.451 118.452,116.785 116.5,115.5C 115.01,113.72 113.01,113.054 110.5,113.5C 97.2245,112.133 87.8912,117.466 82.5,129.5C 81.5,129.5 80.5,129.5 79.5,129.5C 79.5,132.833 79.5,136.167 79.5,139.5C 79.5,139.833 79.5,140.167 79.5,140.5C 78.8345,144.151 78.5012,147.985 78.5,152C 78.2814,157.432 78.9481,162.599 80.5,167.5C 80.7135,169.144 80.3802,170.644 79.5,172C 81.6041,175.385 84.2707,178.218 87.5,180.5C 99.8452,189.753 112.179,189.753 124.5,180.5C 126.262,179.738 127.262,178.404 127.5,176.5C 128.326,173.515 129.659,170.849 131.5,168.5C 135.833,168.5 140.167,168.5 144.5,168.5C 144.167,170.5 143.833,172.5 143.5,174.5C 141.763,182.317 137.763,188.651 131.5,193.5C 127.63,191.686 125.963,193.019 126.5,197.5C 122.318,195.988 119.318,197.322 117.5,201.5C 115.533,201.739 113.699,201.406 112,200.5C 110.955,201.373 110.122,202.373 109.5,203.5C 103.513,204.784 97.5134,204.784 91.5,203.5C 88.0935,201.926 84.4268,200.926 80.5,200.5C 66.2964,195.631 57.2964,185.965 53.5,171.5C 53.9465,168.99 53.2798,166.99 51.5,165.5C 51.5,164.833 51.5,164.167 51.5,163.5C 51.0575,153.014 52.0575,142.68 54.5,132.5C 54.4021,130.447 55.0687,128.78 56.5,127.5C 57.9063,127.027 58.573,126.027 58.5,124.5C 58.427,122.973 59.0937,121.973 60.5,121.5C 61.9063,121.027 62.573,120.027 62.5,118.5C 65.9481,113.713 70.2814,110.046 75.5,107.5C 77.3911,106.464 79.2245,106.464 81,107.5C 81.6622,106.016 82.4955,104.683 83.5,103.5C 86.1522,103.59 88.4855,102.924 90.5,101.5C 97.9974,99.3348 105.664,99.0014 113.5,100.5 Z"/></g>
<g><path style="opacity:0.706" fill="#9ddeeb" d="M 113.5,100.5 C 116.067,100.721 118.401,101.388 120.5,102.5C 117.772,102.829 115.438,102.163 113.5,100.5 Z"/></g>
<g><path style="opacity:0.776" fill="#98deeb" d="M 314.5,100.5 C 312.485,101.924 310.152,102.59 307.5,102.5C 309.515,101.076 311.848,100.41 314.5,100.5 Z"/></g>
<g><path style="opacity:0.602" fill="#89d8e8" d="M 421.5,101.5 C 421.5,101.833 421.5,102.167 421.5,102.5C 408.833,102.5 396.167,102.5 383.5,102.5C 383.5,107.5 383.5,112.5 383.5,117.5C 388.363,117.181 393.03,117.514 397.5,118.5C 392.167,118.5 386.833,118.5 381.5,118.5C 381.5,112.833 381.5,107.167 381.5,101.5C 394.833,101.5 408.167,101.5 421.5,101.5 Z"/></g>
<g><path style="opacity:1" fill="#22b6d4" d="M 465.5,101.5 C 471.441,102.449 476.441,105.116 480.5,109.5C 480.427,111.027 481.094,112.027 482.5,112.5C 484.262,113.262 485.262,114.596 485.5,116.5C 485.427,118.027 486.094,119.027 487.5,119.5C 487.92,121.674 487.92,123.674 487.5,125.5C 487.846,126.696 488.346,126.696 489,125.5C 489.374,127.491 490.207,129.158 491.5,130.5C 492.434,131.568 492.768,132.901 492.5,134.5C 492.5,144.5 492.5,154.5 492.5,164.5C 489.99,184.581 478.99,196.914 459.5,201.5C 453.064,201.673 446.731,201.006 440.5,199.5C 435.458,198.318 431.458,195.651 428.5,191.5C 430.832,190.838 431.499,189.505 430.5,187.5C 431.522,186.646 432.355,185.646 433,184.5C 433.862,186.087 434.529,187.754 435,189.5C 435.667,188.167 435.667,186.833 435,185.5C 433.915,184.264 433.082,182.931 432.5,181.5C 434.368,182.263 436.035,183.263 437.5,184.5C 439.848,185.952 442.514,186.618 445.5,186.5C 448.205,186.684 450.538,186.017 452.5,184.5C 452.842,183.662 453.508,183.328 454.5,183.5C 456.027,183.573 457.027,182.906 457.5,181.5C 459.262,180.738 460.262,179.404 460.5,177.5C 463.431,174.987 464.765,171.653 464.5,167.5C 464.5,167.167 464.5,166.833 464.5,166.5C 465.222,166.082 465.722,165.416 466,164.5C 466.823,156.323 466.656,148.323 465.5,140.5C 465.5,139.833 465.5,139.167 465.5,138.5C 464.862,135.237 464.862,132.071 465.5,129C 463.935,127.588 462.269,126.421 460.5,125.5C 454.159,117.105 446.159,115.272 436.5,120C 433.642,121.694 431.309,123.861 429.5,126.5C 426.897,125.238 424.231,124.238 421.5,123.5C 422.906,123.027 423.573,122.027 423.5,120.5C 424.34,118.147 425.674,116.147 427.5,114.5C 428.906,114.027 429.573,113.027 429.5,111.5C 429.833,110.5 430.5,109.833 431.5,109.5C 433.749,108.92 435.415,107.587 436.5,105.5C 438.027,105.573 439.027,104.906 439.5,103.5C 448.049,101.751 456.716,101.084 465.5,101.5 Z"/></g>
<g><path style="opacity:0.835" fill="#8cd9e8" d="M 567.5,100.5 C 570.152,100.41 572.485,101.076 574.5,102.5C 571.772,102.829 569.438,102.163 567.5,100.5 Z"/></g>
<g><path style="opacity:0.843" fill="#87d6e7" d="M 682.5,100.5 C 679.855,102.31 676.855,103.31 673.5,103.5C 676.084,101.528 679.084,100.528 682.5,100.5 Z"/></g>
<g><path style="opacity:1" fill="#7acfe2" d="M 690.5,100.5 C 694.165,100.502 697.165,101.835 699.5,104.5C 698.153,103.829 696.986,103.829 696,104.5C 693.984,103.253 692.151,101.919 690.5,100.5 Z"/></g>
<g><path style="opacity:0.851" fill="#8dd9e9" d="M 90.5,101.5 C 88.4855,102.924 86.1522,103.59 83.5,103.5C 85.5145,102.076 87.8478,101.41 90.5,101.5 Z"/></g>
<g><path style="opacity:0.271" fill="#c0ebf3" d="M 421.5,101.5 C 422.167,107.833 422.833,114.167 423.5,120.5C 423.573,122.027 422.906,123.027 421.5,123.5C 421.5,116.5 421.5,109.5 421.5,102.5C 421.5,102.167 421.5,101.833 421.5,101.5 Z"/></g>
<g><path style="opacity:0.961" fill="#6fcee1" d="M 546.5,101.5 C 543.529,102.885 540.696,104.551 538,106.5C 537.329,105.748 536.496,105.414 535.5,105.5C 538.8,103.358 542.467,102.025 546.5,101.5 Z"/></g>
<g><path style="opacity:0.163" fill="#dff4f9" d="M 713.5,102.5 C 713.842,101.662 714.508,101.328 715.5,101.5C 716.568,102.434 717.901,102.768 719.5,102.5C 719.5,102.833 719.5,103.167 719.5,103.5C 717.833,103.5 716.167,103.5 714.5,103.5C 714.5,102.833 714.167,102.5 713.5,102.5 Z"/></g>
<g><path style="opacity:1" fill="#14b5d3" d="M 421.5,102.5 C 421.5,109.5 421.5,116.5 421.5,123.5C 424.231,124.238 426.897,125.238 429.5,126.5C 427.312,131.055 425.312,135.722 423.5,140.5C 422.065,143.55 421.398,146.883 421.5,150.5C 421.505,152.696 421.838,154.696 422.5,156.5C 423.352,160.794 424.018,165.127 424.5,169.5C 424.357,171.262 424.691,172.929 425.5,174.5C 425.154,175.696 424.654,175.696 424,174.5C 423.727,176.101 423.227,177.601 422.5,179C 424.74,180.513 426.24,182.013 427,183.5C 428.221,182.728 429.221,181.728 430,180.5C 430.671,181.252 431.504,181.586 432.5,181.5C 433.082,182.931 433.915,184.264 435,185.5C 435.667,186.833 435.667,188.167 435,189.5C 434.529,187.754 433.862,186.087 433,184.5C 432.355,185.646 431.522,186.646 430.5,187.5C 431.499,189.505 430.832,190.838 428.5,191.5C 426.833,190.5 425.5,189.167 424.5,187.5C 424.539,186.244 424.039,185.244 423,184.5C 422.5,199.83 422.333,215.163 422.5,230.5C 429.167,230.5 435.833,230.5 442.5,230.5C 442.5,235.5 442.5,240.5 442.5,245.5C 422.833,245.5 403.167,245.5 383.5,245.5C 383.5,240.5 383.5,235.5 383.5,230.5C 388.43,230.803 393.263,230.469 398,229.5C 398.831,192.331 398.664,155.331 397.5,118.5C 393.03,117.514 388.363,117.181 383.5,117.5C 383.5,112.5 383.5,107.5 383.5,102.5C 396.167,102.5 408.833,102.5 421.5,102.5 Z"/></g>
<g><path style="opacity:1" fill="#26b7d4" d="M 690.5,100.5 C 692.151,101.919 693.984,103.253 696,104.5C 696.986,103.829 698.153,103.829 699.5,104.5C 700.5,104.833 701.167,105.5 701.5,106.5C 701.427,108.027 702.094,109.027 703.5,109.5C 708.862,120.865 705.862,129.365 694.5,135C 686.243,136.649 680.243,133.816 676.5,126.5C 676.5,123.5 676.5,120.5 676.5,117.5C 675.209,117.263 674.209,117.596 673.5,118.5C 668.113,121.554 664.113,125.887 661.5,131.5C 659.896,132.287 659.229,133.62 659.5,135.5C 658.544,151.798 658.211,168.132 658.5,184.5C 664.69,184.177 670.69,184.51 676.5,185.5C 676.5,190.833 676.5,196.167 676.5,201.5C 656.833,201.5 637.167,201.5 617.5,201.5C 616.167,196.167 616.167,190.833 617.5,185.5C 622.5,185.5 627.5,185.5 632.5,185.5C 632.5,163.167 632.5,140.833 632.5,118.5C 627.695,117.513 622.695,117.179 617.5,117.5C 617.5,112.167 617.5,106.833 617.5,101.5C 630.5,101.5 643.5,101.5 656.5,101.5C 656.334,109.174 656.5,116.841 657,124.5C 657.791,123.255 658.291,121.922 658.5,120.5C 659.383,117.296 661.05,114.629 663.5,112.5C 665.833,110.833 667.833,108.833 669.5,106.5C 669.5,105.833 669.833,105.5 670.5,105.5C 672.027,105.573 673.027,104.906 673.5,103.5C 676.855,103.31 679.855,102.31 682.5,100.5C 685.167,99.1667 687.833,99.1667 690.5,100.5 Z"/></g>
<g><path style="opacity:0.309" fill="#b7e8f1" d="M 656.5,101.5 C 657.167,107.833 657.833,114.167 658.5,120.5C 658.291,121.922 657.791,123.255 657,124.5C 656.5,116.841 656.334,109.174 656.5,101.5 Z"/></g>
<g><path style="opacity:0.714" fill="#a1e0ed" d="M 439.5,103.5 C 439.027,104.906 438.027,105.573 436.5,105.5C 436.973,104.094 437.973,103.427 439.5,103.5 Z"/></g>
<g><path style="opacity:0.651" fill="#a9e4ee" d="M 673.5,103.5 C 673.027,104.906 672.027,105.573 670.5,105.5C 670.973,104.094 671.973,103.427 673.5,103.5 Z"/></g>
<g><path style="opacity:1" fill="#48c0d9" d="M 722.5,100.5 C 724.144,100.81 725.144,101.81 725.5,103.5C 725.517,105.565 725.85,107.565 726.5,109.5C 726.5,109.833 726.5,110.167 726.5,110.5C 725.883,110.611 725.383,110.944 725,111.5C 724.809,109.292 724.309,107.292 723.5,105.5C 723.5,104.833 723.167,104.5 722.5,104.5C 722.5,103.833 722.167,103.5 721.5,103.5C 721.5,103.167 721.5,102.833 721.5,102.5C 719.969,101.075 720.302,100.409 722.5,100.5 Z"/></g>
<g><path style="opacity:1" fill="#6dcbdf" d="M 83.5,103.5 C 82.4955,104.683 81.6622,106.016 81,107.5C 79.2245,106.464 77.3911,106.464 75.5,107.5C 77.6123,105.229 80.279,103.896 83.5,103.5 Z"/></g>
<g><path style="opacity:0.573" fill="#aee6ee" d="M 182.5,105.5 C 182.027,106.906 181.027,107.573 179.5,107.5C 179.973,106.094 180.973,105.427 182.5,105.5 Z"/></g>
<g><path style="opacity:1" fill="#78cee1" d="M 578.5,103.5 C 582.054,104.769 585.054,106.769 587.5,109.5C 584.946,108.394 582.279,107.561 579.5,107C 579.833,106.667 580.167,106.333 580.5,106C 579.244,105.583 578.577,104.75 578.5,103.5 Z"/></g>
<g><path style="opacity:0.749" fill="#b3e5f0" d="M 725.5,103.5 C 727.151,105.402 727.484,107.402 726.5,109.5C 725.85,107.565 725.517,105.565 725.5,103.5 Z"/></g>
<g><path style="opacity:0.945" fill="#6acee1" d="M 716.5,105.5 C 716.5,106.833 717.167,107.5 718.5,107.5C 717.595,108.702 717.595,110.036 718.5,111.5C 717.883,111.389 717.383,111.056 717,110.5C 716.722,111.416 716.222,112.082 715.5,112.5C 715.198,109.941 715.532,107.607 716.5,105.5 Z"/></g>
<g><path style="opacity:0.999" fill="#1db6d3" d="M 714.5,103.5 C 716.167,103.5 717.833,103.5 719.5,103.5C 719.833,103.5 720.167,103.5 720.5,103.5C 720.706,106.495 720.04,109.162 718.5,111.5C 717.595,110.036 717.595,108.702 718.5,107.5C 719.833,106.833 719.833,106.167 718.5,105.5C 718.167,105.5 717.833,105.5 717.5,105.5C 717.167,105.5 716.833,105.5 716.5,105.5C 715.532,107.607 715.198,109.941 715.5,112.5C 714.523,109.713 714.19,106.713 714.5,103.5 Z"/></g>
<g><path style="opacity:0.435" fill="#bde9f2" d="M 716.5,105.5 C 716.833,105.5 717.167,105.5 717.5,105.5C 717.833,106.833 718.167,106.833 718.5,105.5C 719.833,106.167 719.833,106.833 718.5,107.5C 717.167,107.5 716.5,106.833 716.5,105.5 Z"/></g>
<g><path style="opacity:0.867" fill="#85d6e7" d="M 436.5,105.5 C 435.415,107.587 433.749,108.92 431.5,109.5C 432.585,107.413 434.251,106.08 436.5,105.5 Z"/></g>
<g><path style="opacity:0.396" fill="#afe5f0" d="M 701.5,106.5 C 702.906,106.973 703.573,107.973 703.5,109.5C 702.094,109.027 701.427,108.027 701.5,106.5 Z"/></g>
<g><path style="opacity:0.62" fill="#a5e1ed" d="M 669.5,106.5 C 667.833,108.833 665.833,110.833 663.5,112.5C 664.5,109.5 666.5,107.5 669.5,106.5 Z"/></g>
<g><path style="opacity:0.467" fill="#c2ecf4" d="M 480.5,109.5 C 481.906,109.973 482.573,110.973 482.5,112.5C 481.094,112.027 480.427,111.027 480.5,109.5 Z"/></g>
<g><path style="opacity:1" fill="#73cde1" d="M 716.5,101.5 C 716.167,101.5 715.833,101.5 715.5,101.5C 714.508,101.328 713.842,101.662 713.5,102.5C 713.5,102.833 713.5,103.167 713.5,103.5C 712.833,104.167 712.167,104.833 711.5,105.5C 709.77,109.717 711.103,112.717 715.5,114.5C 716.833,114.5 718.167,114.5 719.5,114.5C 720.833,114.5 721.5,115.167 721.5,116.5C 712.697,118.202 708.197,114.536 708,105.5C 708.612,102.885 710.112,101.219 712.5,100.5C 714.782,99.6103 717.115,99.4436 719.5,100C 718.263,100.232 717.263,100.732 716.5,101.5 Z"/></g>
<g><path style="opacity:0.004" fill="#dbf3f7" d="M 713.5,103.5 C 713.833,103.5 714.167,103.5 714.5,103.5C 714.19,106.713 714.523,109.713 715.5,112.5C 715.5,113.167 715.5,113.833 715.5,114.5C 711.103,112.717 709.77,109.717 711.5,105.5C 711.687,107.564 712.187,109.564 713,111.5C 713.497,108.854 713.664,106.187 713.5,103.5 Z"/></g>
<g><path style="opacity:0.792" fill="#8ed8e8" d="M 176.5,109.5 C 175.089,111.914 173.089,113.581 170.5,114.5C 171.911,112.086 173.911,110.419 176.5,109.5 Z"/></g>
<g><path style="opacity:0.745" fill="#a0dfec" d="M 429.5,111.5 C 429.573,113.027 428.906,114.027 427.5,114.5C 427.427,112.973 428.094,111.973 429.5,111.5 Z"/></g>
<g><path style="opacity:0.62" fill="#96ddeb" d="M 564.5,114.5 C 559.833,113.167 555.167,113.167 550.5,114.5C 552.29,113.003 554.456,112.336 557,112.5C 559.821,112.408 562.321,113.074 564.5,114.5 Z"/></g>
<g><path style="opacity:0.929" fill="#9adcea" d="M 110.5,113.5 C 113.01,113.054 115.01,113.72 116.5,115.5C 114.214,115.405 112.214,114.738 110.5,113.5 Z"/></g>
<g><path style="opacity:0.969" fill="#6dcce0" d="M 530.5,108.5 C 528.1,111.903 525.1,114.57 521.5,116.5C 523.9,113.097 526.9,110.43 530.5,108.5 Z"/></g>
<g><path style="opacity:0.98" fill="#93d9e7" d="M 720.5,103.5 C 720.833,103.5 721.167,103.5 721.5,103.5C 722.167,103.5 722.5,103.833 722.5,104.5C 721.737,107.141 721.57,109.808 722,112.5C 723.202,110.323 723.702,107.989 723.5,105.5C 724.309,107.292 724.809,109.292 725,111.5C 725.383,110.944 725.883,110.611 726.5,110.5C 725.581,113.089 723.914,115.089 721.5,116.5C 721.5,115.167 720.833,114.5 719.5,114.5C 719.443,113.391 719.11,112.391 718.5,111.5C 720.04,109.162 720.706,106.495 720.5,103.5 Z"/></g>
<g><path style="opacity:0.718" fill="#a9e2ec" d="M 591.5,113.5 C 593.262,114.262 594.262,115.596 594.5,117.5C 592.738,116.738 591.738,115.404 591.5,113.5 Z"/></g>
<g><path style="opacity:1" fill="#84d1e3" d="M 194.5,117.5 C 193.5,118.5 192.5,119.5 191.5,120.5C 191.121,117.433 192.121,116.433 194.5,117.5 Z"/></g>
<g><path style="opacity:0.769" fill="#b2e5ef" d="M 335.5,116.5 C 338.167,117.167 339.833,118.833 340.5,121.5C 338.5,120.167 336.833,118.5 335.5,116.5 Z"/></g>
<g><path style="opacity:0.531" fill="#ace4ef" d="M 617.5,101.5 C 617.5,106.833 617.5,112.167 617.5,117.5C 622.695,117.179 627.695,117.513 632.5,118.5C 632.167,118.5 631.833,118.5 631.5,118.5C 626.5,118.5 621.5,118.5 616.5,118.5C 616.178,112.642 616.511,106.975 617.5,101.5 Z"/></g>
<g><path style="opacity:0.333" fill="#b5e6ef" d="M 485.5,116.5 C 486.906,116.973 487.573,117.973 487.5,119.5C 486.094,119.027 485.427,118.027 485.5,116.5 Z"/></g>
<g><path style="opacity:0.729" fill="#a1dfed" d="M 62.5,118.5 C 62.573,120.027 61.9063,121.027 60.5,121.5C 60.427,119.973 61.0937,118.973 62.5,118.5 Z"/></g>
<g><path style="opacity:0.039" fill="#f4fbfc" d="M 631.5,118.5 C 631.833,118.5 632.167,118.5 632.5,118.5C 632.5,140.833 632.5,163.167 632.5,185.5C 627.5,185.5 622.5,185.5 617.5,185.5C 621.97,184.514 626.637,184.181 631.5,184.5C 631.5,162.5 631.5,140.5 631.5,118.5 Z"/></g>
<g><path style="opacity:0.337" fill="#bce9f1" d="M 519.5,118.5 C 519.573,120.027 518.906,121.027 517.5,121.5C 517.427,119.973 518.094,118.973 519.5,118.5 Z"/></g>
<g><path style="opacity:1" fill="#74cde0" d="M 246.5,115.5 C 249.815,118.125 252.149,121.458 253.5,125.5C 249.861,123.213 247.528,119.879 246.5,115.5 Z"/></g>
<g><path style="opacity:1" fill="#82d2e4" d="M 570.5,118.5 C 574.39,120.104 576.056,123.104 575.5,127.5C 574.117,124.406 572.45,121.406 570.5,118.5 Z"/></g>
<g><path style="opacity:0.608" fill="#a8e3ee" d="M 673.5,118.5 C 674.209,117.596 675.209,117.263 676.5,117.5C 676.5,120.5 676.5,123.5 676.5,126.5C 675.039,124.324 674.706,121.991 675.5,119.5C 675.043,118.702 674.376,118.369 673.5,118.5 Z"/></g>
<g><path style="opacity:0.712" fill="#65cee3" d="M 397.5,118.5 C 398.664,155.331 398.831,192.331 398,229.5C 393.263,230.469 388.43,230.803 383.5,230.5C 383.5,235.5 383.5,240.5 383.5,245.5C 382.512,240.36 382.179,235.026 382.5,229.5C 387.43,229.803 392.263,229.469 397,228.5C 397.5,191.835 397.667,155.168 397.5,118.5 Z"/></g>
<g><path style="opacity:1" fill="#70cce0" d="M 365.5,118.5 C 368.164,120.484 369.831,123.151 370.5,126.5C 367.968,124.448 366.301,121.782 365.5,118.5 Z"/></g>
<g><path style="opacity:1" fill="#6fcce0" d="M 487.5,119.5 C 489.642,122.8 490.975,126.467 491.5,130.5C 490.207,129.158 489.374,127.491 489,125.5C 488.346,126.696 487.846,126.696 487.5,125.5C 487.92,123.674 487.92,121.674 487.5,119.5 Z"/></g>
<g><path style="opacity:0.29" fill="#b8e7f2" d="M 58.5,124.5 C 58.573,126.027 57.9063,127.027 56.5,127.5C 56.427,125.973 57.0937,124.973 58.5,124.5 Z"/></g>
<g><path style="opacity:1" fill="#89d5e5" d="M 163.5,123.5 C 163.13,126.71 161.797,129.377 159.5,131.5C 159.896,128.279 161.229,125.612 163.5,123.5 Z"/></g>
<g><path style="opacity:0.937" fill="#a5dfec" d="M 598.5,124.5 C 600.601,127.797 601.935,131.463 602.5,135.5C 600.358,132.2 599.025,128.533 598.5,124.5 Z"/></g>
<g><path style="opacity:1" fill="#80d2e3" d="M 460.5,125.5 C 462.269,126.421 463.935,127.588 465.5,129C 464.862,132.071 464.862,135.237 465.5,138.5C 464.053,134.17 462.386,129.837 460.5,125.5 Z"/></g>
<g><path style="opacity:1" fill="#81d1e3" d="M 82.5,129.5 C 81.4887,132.94 80.4887,136.274 79.5,139.5C 79.5,136.167 79.5,132.833 79.5,129.5C 80.5,129.5 81.5,129.5 82.5,129.5 Z"/></g>
<g><path style="opacity:0.553" fill="#a9e3ee" d="M 304.5,126.5 C 304.279,129.067 303.612,131.401 302.5,133.5C 302.171,130.772 302.837,128.438 304.5,126.5 Z"/></g>
<g><path style="opacity:0.537" fill="#ace4ef" d="M 187.5,127.5 C 187.279,130.067 186.612,132.401 185.5,134.5C 185.171,131.772 185.837,129.438 187.5,127.5 Z"/></g>
<g><path style="opacity:0.012" fill="#d5f1f6" d="M 344.5,128.5 C 345.924,130.515 346.59,132.848 346.5,135.5C 345.076,133.485 344.41,131.152 344.5,128.5 Z"/></g>
<g><path style="opacity:0.933" fill="#a2e0ec" d="M 513.5,128.5 C 512.007,134.303 510.34,139.97 508.5,145.5C 508.789,139.328 510.456,133.662 513.5,128.5 Z"/></g>
<g><path style="opacity:0.765" fill="#a3dfed" d="M 372.5,130.5 C 373.924,132.515 374.59,134.848 374.5,137.5C 373.076,135.485 372.41,133.152 372.5,130.5 Z"/></g>
<g><path style="opacity:0.345" fill="#c1ebf2" d="M 661.5,131.5 C 661.34,133.153 660.674,134.486 659.5,135.5C 659.229,133.62 659.896,132.287 661.5,131.5 Z"/></g>
<g><path style="opacity:0.827" fill="#a1dfeb" d="M 159.5,131.5 C 159.59,134.152 158.924,136.485 157.5,138.5C 157.41,135.848 158.076,133.515 159.5,131.5 Z"/></g>
<g><path style="opacity:0.192" fill="#caeef5" d="M 538.5,128.5 C 538.324,131.727 537.657,134.727 536.5,137.5C 536.215,134.171 536.882,131.171 538.5,128.5 Z"/></g>
<g><path style="opacity:0.627" fill="#9bddeb" d="M 255.5,129.5 C 256.924,131.515 257.59,133.848 257.5,136.5C 255.837,134.562 255.171,132.228 255.5,129.5 Z"/></g>
<g><path style="opacity:0.773" fill="#9fdfec" d="M 143.5,123.5 C 146.136,128.98 145.803,134.313 142.5,139.5C 143.275,134.203 143.608,128.87 143.5,123.5 Z"/></g>
<g><path style="opacity:0.322" fill="#c0eaf2" d="M 576.5,131.5 C 578.082,134.876 578.749,138.542 578.5,142.5C 577.5,142.5 576.5,142.5 575.5,142.5C 576.391,141.739 577.058,140.739 577.5,139.5C 576.731,136.885 576.397,134.219 576.5,131.5 Z"/></g>
<g><path style="opacity:1" fill="#6ccce0" d="M 276.5,131.5 C 276.196,134.522 275.696,137.522 275,140.5C 274.617,141.056 274.117,141.389 273.5,141.5C 273.723,137.838 274.723,134.505 276.5,131.5 Z"/></g>
<g><path style="opacity:0.957" fill="#8ed8e8" d="M 54.5,132.5 C 52.0575,142.68 51.0575,153.014 51.5,163.5C 50.346,157.013 50.1794,150.346 51,143.5C 51.4985,139.509 52.6652,135.842 54.5,132.5 Z"/></g>
<g><path style="opacity:0.607" fill="#99ddeb" d="M 536.5,137.5 C 536.5,138.833 536.5,140.167 536.5,141.5C 549.568,142.063 562.568,142.396 575.5,142.5C 576.5,142.5 577.5,142.5 578.5,142.5C 564.343,143.496 550.01,143.829 535.5,143.5C 535.205,141.265 535.539,139.265 536.5,137.5 Z"/></g>
<g><path style="opacity:0.145" fill="#d2eff5" d="M 119.5,145.5 C 121.027,145.427 122.027,146.094 122.5,147.5C 120.973,147.573 119.973,146.906 119.5,145.5 Z"/></g>
<g><path style="opacity:0.897" fill="#8ad7e6" d="M 492.5,134.5 C 495.128,144.505 495.128,154.505 492.5,164.5C 492.5,154.5 492.5,144.5 492.5,134.5 Z"/></g>
<g><path style="opacity:1" fill="#7bd1e3" d="M 157.5,138.5 C 157.354,149.187 157.688,159.854 158.5,170.5C 156.239,164.84 155.239,158.84 155.5,152.5C 155.354,147.576 156.021,142.909 157.5,138.5 Z"/></g>
<g><path style="opacity:0.255" fill="#afe6f0" d="M 423.5,140.5 C 422.902,145.813 422.569,151.146 422.5,156.5C 421.838,154.696 421.505,152.696 421.5,150.5C 421.398,146.883 422.065,143.55 423.5,140.5 Z"/></g>
<g><path style="opacity:0.853" fill="#60cae0" d="M 602.5,137.5 C 604.012,142.929 604.679,148.596 604.5,154.5C 581.833,154.5 559.167,154.5 536.5,154.5C 536.5,157.5 536.5,160.5 536.5,163.5C 535.521,160.375 535.187,157.042 535.5,153.5C 557.833,153.5 580.167,153.5 602.5,153.5C 602.5,148.167 602.5,142.833 602.5,137.5 Z"/></g>
<g><path style="opacity:0.776" fill="#bbe8f1" d="M 79.5,140.5 C 79.3195,149.528 79.6529,158.528 80.5,167.5C 78.9481,162.599 78.2814,157.432 78.5,152C 78.5012,147.985 78.8345,144.151 79.5,140.5 Z"/></g>
<g><path style="opacity:0.976" fill="#99dbe9" d="M 465.5,140.5 C 466.656,148.323 466.823,156.323 466,164.5C 465.722,165.416 465.222,166.082 464.5,166.5C 465.377,157.867 465.711,149.2 465.5,140.5 Z"/></g>
<g><path style="opacity:0.929" fill="#88d5e6" d="M 273.5,164.5 C 275.308,165.918 275.975,167.918 275.5,170.5C 274.262,168.786 273.595,166.786 273.5,164.5 Z"/></g>
<g><path style="opacity:0.784" fill="#9edeec" d="M 51.5,165.5 C 53.2798,166.99 53.9465,168.99 53.5,171.5C 52.2616,169.786 51.595,167.786 51.5,165.5 Z"/></g>
<g><path style="opacity:0.479" fill="#a0e1ec" d="M 131.5,168.5 C 135.97,167.514 140.637,167.181 145.5,167.5C 145.829,170.228 145.163,172.562 143.5,174.5C 143.833,172.5 144.167,170.5 144.5,168.5C 140.167,168.5 135.833,168.5 131.5,168.5 Z"/></g>
<g><path style="opacity:0.075" fill="#d9f3f7" d="M 508.5,161.5 C 509.768,163.905 510.435,166.572 510.5,169.5C 508.96,167.162 508.294,164.495 508.5,161.5 Z"/></g>
<g><path style="opacity:0.882" fill="#91d7e7" d="M 601.5,175.5 C 601.5,174.167 601.5,172.833 601.5,171.5C 597.5,171.5 593.5,171.5 589.5,171.5C 589.741,174.034 588.741,175.7 586.5,176.5C 586.972,170.529 590.139,168.196 596,169.5C 602.733,168.039 604.566,170.039 601.5,175.5 Z"/></g>
<g><path style="opacity:1" fill="#75cee1" d="M 80.5,167.5 C 82.5607,171.953 84.8941,176.287 87.5,180.5C 84.2707,178.218 81.6041,175.385 79.5,172C 80.3802,170.644 80.7135,169.144 80.5,167.5 Z"/></g>
<g><path style="opacity:0.859" fill="#9eddeb" d="M 537.5,167.5 C 538.458,169.302 539.125,171.302 539.5,173.5C 537.72,172.01 537.054,170.01 537.5,167.5 Z"/></g>
<g><path style="opacity:0.565" fill="#b7e8f1" d="M 346.5,169.5 C 346.741,171.898 346.074,173.898 344.5,175.5C 344.595,173.214 345.262,171.214 346.5,169.5 Z"/></g>
<g><path style="opacity:0.016" fill="#cdeff4" d="M 510.5,169.5 C 511.738,171.214 512.405,173.214 512.5,175.5C 510.926,173.898 510.259,171.898 510.5,169.5 Z"/></g>
<g><path style="opacity:0.871" fill="#a2dfec" d="M 229.5,169.5 C 229.662,171.527 229.495,173.527 229,175.5C 228.617,176.056 228.117,176.389 227.5,176.5C 227.721,173.933 228.388,171.599 229.5,169.5 Z"/></g>
<g><path style="opacity:1" fill="#7cd1e3" d="M 464.5,167.5 C 464.765,171.653 463.431,174.987 460.5,177.5C 461.658,174.011 462.991,170.678 464.5,167.5 Z"/></g>
<g><path style="opacity:1" fill="#4ec0d9" d="M 424.5,169.5 C 426.657,173.807 429.324,177.807 432.5,181.5C 431.504,181.586 430.671,181.252 430,180.5C 429.221,181.728 428.221,182.728 427,183.5C 426.24,182.013 424.74,180.513 422.5,179C 423.227,177.601 423.727,176.101 424,174.5C 424.654,175.696 425.154,175.696 425.5,174.5C 424.691,172.929 424.357,171.262 424.5,169.5 Z"/></g>
<g><path style="opacity:0.733" fill="#a4e1ec" d="M 127.5,176.5 C 127.262,178.404 126.262,179.738 124.5,180.5C 124.738,178.596 125.738,177.262 127.5,176.5 Z"/></g>
<g><path style="opacity:0.725" fill="#aae2ed" d="M 460.5,177.5 C 460.262,179.404 459.262,180.738 457.5,181.5C 457.738,179.596 458.738,178.262 460.5,177.5 Z"/></g>
<g><path style="opacity:0.486" fill="#a4e1ec" d="M 586.5,176.5 C 586.573,178.027 585.906,179.027 584.5,179.5C 584.427,177.973 585.094,176.973 586.5,176.5 Z"/></g>
<g><path style="opacity:1" fill="#7cd0e2" d="M 186.5,172.5 C 188.07,175.314 189.403,178.314 190.5,181.5C 188.914,180.852 187.247,180.352 185.5,180C 186.428,179.612 187.095,178.945 187.5,178C 186.767,176.234 186.433,174.401 186.5,172.5 Z"/></g>
<g><path style="opacity:0.859" fill="#a2deec" d="M 162.5,180.5 C 164.048,180.821 164.715,181.821 164.5,183.5C 163.599,182.71 162.932,181.71 162.5,180.5 Z"/></g>
<g><path style="opacity:0.871" fill="#a5deec" d="M 514.5,180.5 C 516.048,180.821 516.715,181.821 516.5,183.5C 515.599,182.71 514.932,181.71 514.5,180.5 Z"/></g>
<g><path style="opacity:0.741" fill="#b2e4ef" d="M 190.5,181.5 C 192.5,182.833 194.167,184.5 195.5,186.5C 192.833,185.833 191.167,184.167 190.5,181.5 Z"/></g>
<g><path style="opacity:0.616" fill="#a8e3ee" d="M 457.5,181.5 C 457.027,182.906 456.027,183.573 454.5,183.5C 454.973,182.094 455.973,181.427 457.5,181.5 Z"/></g>
<g><path style="opacity:0.776" fill="#99ddeb" d="M 341.5,182.5 C 340.833,185.167 339.167,186.833 336.5,187.5C 337.833,185.5 339.5,183.833 341.5,182.5 Z"/></g>
<g><path style="opacity:0.663" fill="#9fe0ec" d="M 581.5,182.5 C 581.027,183.906 580.027,184.573 578.5,184.5C 578.973,183.094 579.973,182.427 581.5,182.5 Z"/></g>
<g><path style="opacity:1" fill="#70cbe0" d="M 516.5,183.5 C 519.705,184.13 521.371,186.13 521.5,189.5C 519.11,188.109 517.443,186.109 516.5,183.5 Z"/></g>
<g><path style="opacity:1" fill="#5fc5dc" d="M 164.5,183.5 C 168.221,184.063 170.221,185.896 170.5,189C 171.833,189 173.167,189 174.5,189C 173.177,189.816 172.511,190.983 172.5,192.5C 169.119,190.12 166.453,187.12 164.5,183.5 Z"/></g>
<g><path style="opacity:0.255" fill="#b6e8f0" d="M 437.5,184.5 C 442.509,185.752 447.509,185.752 452.5,184.5C 450.538,186.017 448.205,186.684 445.5,186.5C 442.514,186.618 439.848,185.952 437.5,184.5 Z"/></g>
<g><path style="opacity:0.588" fill="#a6e3ee" d="M 222.5,185.5 C 222.027,186.906 221.027,187.573 219.5,187.5C 219.973,186.094 220.973,185.427 222.5,185.5 Z"/></g>
<g><path style="opacity:0.435" fill="#b7e7f1" d="M 551.5,185.5 C 553.403,185.796 555.07,186.463 556.5,187.5C 554.302,187.88 552.635,187.213 551.5,185.5 Z"/></g>
<g><path style="opacity:0.773" fill="#94dbe9" d="M 578.5,184.5 C 578.196,185.15 577.863,185.817 577.5,186.5C 570.77,188.555 564.104,188.889 557.5,187.5C 564.77,188.072 571.77,187.072 578.5,184.5 Z"/></g>
<g><path style="opacity:1" fill="#77cee1" d="M 521.5,189.5 C 523.117,190.038 524.784,190.371 526.5,190.5C 526.392,192.514 527.058,194.18 528.5,195.5C 525.573,194.243 523.239,192.243 521.5,189.5 Z"/></g>
<g><path style="opacity:1" fill="#73cbdf" d="M 131.5,193.5 C 130.421,195.543 128.754,196.876 126.5,197.5C 125.963,193.019 127.63,191.686 131.5,193.5 Z"/></g>
<g><path style="opacity:0.31" fill="#bde9f1" d="M 528.5,195.5 C 530.027,195.427 531.027,196.094 531.5,197.5C 529.973,197.573 528.973,196.906 528.5,195.5 Z"/></g>
<g><path style="opacity:1" fill="#70cbdf" d="M 126.5,197.5 C 123.912,199.625 120.912,200.958 117.5,201.5C 119.318,197.322 122.318,195.988 126.5,197.5 Z"/></g>
<g><path style="opacity:1" fill="#86d3e4" d="M 233.5,197.5 C 232.089,199.539 230.089,200.539 227.5,200.5C 228.687,199.466 229.52,198.133 230,196.5C 231.011,197.337 232.178,197.67 233.5,197.5 Z"/></g>
<g><path style="opacity:0.902" fill="#97dce9" d="M 298.5,198.5 C 301.491,198.166 303.824,199.166 305.5,201.5C 302.843,201.065 300.509,200.065 298.5,198.5 Z"/></g>
<g><path style="opacity:0.804" fill="#b4e6f0" d="M 440.5,199.5 C 446.731,201.006 453.064,201.673 459.5,201.5C 452.962,203.093 446.629,202.427 440.5,199.5 Z"/></g>
<g><path style="opacity:0.808" fill="#abe3ee" d="M 80.5,200.5 C 84.4268,200.926 88.0935,201.926 91.5,203.5C 87.4661,203.483 83.7994,202.483 80.5,200.5 Z"/></g>
<g><path style="opacity:1" fill="#81d1e4" d="M 117.5,201.5 C 115.162,203.04 112.495,203.706 109.5,203.5C 110.122,202.373 110.955,201.373 112,200.5C 113.699,201.406 115.533,201.739 117.5,201.5 Z"/></g>
<g><path style="opacity:0.737" fill="#a2e1ec" d="M 186.5,200.5 C 189.152,200.41 191.485,201.076 193.5,202.5C 190.848,202.59 188.515,201.924 186.5,200.5 Z"/></g>
<g><path style="opacity:0.663" fill="#a5e1ed" d="M 535.5,199.5 C 538.649,199.415 541.316,200.415 543.5,202.5C 540.458,202.267 537.792,201.267 535.5,199.5 Z"/></g>
<g><path style="opacity:0.004" fill="#d4f1f6" d="M 227.5,200.5 C 225.898,202.074 223.898,202.741 221.5,202.5C 223.214,201.262 225.214,200.595 227.5,200.5 Z"/></g>
<g><path style="opacity:0.671" fill="#b3e6ef" d="M 306.5,201.5 C 309.428,201.565 312.095,202.232 314.5,203.5C 311.505,203.706 308.838,203.04 306.5,201.5 Z"/></g>
<g><path style="opacity:0.137" fill="#def4f7" d="M 676.5,185.5 C 677.489,190.975 677.822,196.642 677.5,202.5C 657.326,202.83 637.326,202.497 617.5,201.5C 637.167,201.5 656.833,201.5 676.5,201.5C 676.5,196.167 676.5,190.833 676.5,185.5 Z"/></g>
<g><path style="opacity:0.44" fill="#a7e3ee" d="M 424.5,187.5 C 423.504,201.323 423.171,215.323 423.5,229.5C 430.167,229.5 436.833,229.5 443.5,229.5C 443.5,235.167 443.5,240.833 443.5,246.5C 422.833,246.5 402.167,246.5 381.5,246.5C 381.178,240.642 381.511,234.975 382.5,229.5C 382.179,235.026 382.512,240.36 383.5,245.5C 403.167,245.5 422.833,245.5 442.5,245.5C 442.5,240.5 442.5,235.5 442.5,230.5C 435.833,230.5 429.167,230.5 422.5,230.5C 422.333,215.163 422.5,199.83 423,184.5C 424.039,185.244 424.539,186.244 424.5,187.5 Z"/></g>
<g><path style="opacity:0.608" fill="#a4e1ed" d="M 69.5,267.5 C 66.1667,267.5 62.8333,267.5 59.5,267.5C 62.8003,265.036 66.1336,265.036 69.5,267.5 Z"/></g>
<g><path style="opacity:0.682" fill="#a5e1ed" d="M 169.5,267.5 C 165.766,267.323 162.099,267.656 158.5,268.5C 161.904,265.063 165.571,264.73 169.5,267.5 Z"/></g>
<g><path style="opacity:0.647" fill="#a0e0ec" d="M 232.5,267.5 C 229.5,267.5 226.5,267.5 223.5,267.5C 226.5,264.833 229.5,264.833 232.5,267.5 Z"/></g>
<g><path style="opacity:0.435" fill="#b2e6f0" d="M 259.5,271.5 C 260.919,270.549 262.585,270.216 264.5,270.5C 264.5,269.5 264.5,268.5 264.5,267.5C 259.5,267.5 254.5,267.5 249.5,267.5C 249.5,268.5 249.5,269.5 249.5,270.5C 251.415,270.216 253.081,270.549 254.5,271.5C 254.5,277.5 254.5,283.5 254.5,289.5C 253.51,283.69 253.177,277.69 253.5,271.5C 251.833,271.5 250.167,271.5 248.5,271.5C 248.5,269.833 248.5,268.167 248.5,266.5C 254.167,266.5 259.833,266.5 265.5,266.5C 265.5,268.167 265.5,269.833 265.5,271.5C 263.5,271.5 261.5,271.5 259.5,271.5 Z"/></g>
<g><path style="opacity:0.426" fill="#a5e2ed" d="M 301.5,271.5 C 301.167,271.5 300.833,271.5 300.5,271.5C 303.625,270.521 306.958,270.187 310.5,270.5C 310.5,269.5 310.5,268.5 310.5,267.5C 305.833,267.5 301.167,267.5 296.5,267.5C 296.5,274.833 296.5,282.167 296.5,289.5C 296.5,289.833 296.5,290.167 296.5,290.5C 295.508,282.684 295.174,274.684 295.5,266.5C 300.833,266.5 306.167,266.5 311.5,266.5C 311.5,268.167 311.5,269.833 311.5,271.5C 308.167,271.5 304.833,271.5 301.5,271.5 Z"/></g>
<g><path style="opacity:0.631" fill="#b8e7f0" d="M 355.5,269.5 C 354.395,268.4 353.062,267.733 351.5,267.5C 351.783,266.711 352.283,266.044 353,265.5C 354.481,266.471 355.315,267.804 355.5,269.5 Z"/></g>
<g><path style="opacity:0.616" fill="#a4e1ed" d="M 383.5,267.5 C 380.167,267.5 376.833,267.5 373.5,267.5C 376.8,265.036 380.134,265.036 383.5,267.5 Z"/></g>
<g><path style="opacity:0.653" fill="#a0e0ec" d="M 436.5,267.5 C 433.167,267.5 429.833,267.5 426.5,267.5C 427.997,266.694 429.664,266.028 431.5,265.5C 433.336,266.028 435.003,266.694 436.5,267.5 Z"/></g>
<g><path style="opacity:0.437" fill="#9ee0ed" d="M 449.5,267.5 C 449.5,267.167 449.5,266.833 449.5,266.5C 454.5,266.5 459.5,266.5 464.5,266.5C 464.5,268.167 464.5,269.833 464.5,271.5C 461.167,271.5 457.833,271.5 454.5,271.5C 454.5,273.167 454.5,274.833 454.5,276.5C 457.247,276.187 459.914,276.52 462.5,277.5C 463.55,278.429 463.55,279.095 462.5,279.5C 459.855,277.758 456.855,277.091 453.5,277.5C 453.5,275.167 453.5,272.833 453.5,270.5C 456.833,270.5 460.167,270.5 463.5,270.5C 463.5,269.5 463.5,268.5 463.5,267.5C 458.833,267.5 454.167,267.5 449.5,267.5 Z"/></g>
<g><path style="opacity:0.659" fill="#a2e0ec" d="M 519.5,267.5 C 515.766,267.323 512.099,267.656 508.5,268.5C 511.96,265.337 515.626,265.004 519.5,267.5 Z"/></g>
<g><path style="opacity:0.584" fill="#a8e3ee" d="M 698.5,267.5 C 694.766,267.323 691.099,267.656 687.5,268.5C 690.877,264.929 694.543,264.596 698.5,267.5 Z"/></g>
<g><path style="opacity:0.239" fill="#caeef4" d="M 114.5,268.5 C 113.167,267.167 111.833,267.167 110.5,268.5C 112.109,264.832 113.443,264.832 114.5,268.5 Z"/></g>
<g><path style="opacity:0.037" fill="#f1fafb" d="M 143.5,266.5 C 143.5,266.833 143.5,267.167 143.5,267.5C 142.833,271.5 142.167,275.5 141.5,279.5C 140.833,279.5 140.5,279.167 140.5,278.5C 140.869,274.232 141.869,270.232 143.5,266.5 Z"/></g>
<g><path style="opacity:0.622" fill="#76d5e5" d="M 143.5,267.5 C 143.826,271.884 143.492,276.217 142.5,280.5C 141.893,280.376 141.56,280.043 141.5,279.5C 142.167,275.5 142.833,271.5 143.5,267.5 Z"/></g>
<g><path style="opacity:0.371" fill="#c5ecf3" d="M 274.5,275.5 C 274.5,275.833 274.5,276.167 274.5,276.5C 273.523,273.713 273.19,270.713 273.5,267.5C 272.167,267.5 270.833,267.5 269.5,267.5C 269.5,274.833 269.5,282.167 269.5,289.5C 268.508,282.018 268.175,274.352 268.5,266.5C 270.5,266.5 272.5,266.5 274.5,266.5C 274.5,269.5 274.5,272.5 274.5,275.5 Z"/></g>
<g><path style="opacity:1" fill="#84d3e4" d="M 630.5,272.5 C 628.527,270.416 626.527,269.083 624.5,268.5C 623.914,268.709 623.414,269.043 623,269.5C 620.894,267.709 618.394,267.042 615.5,267.5C 616.772,266.566 618.272,265.899 620,265.5C 622.995,266.276 625.828,267.443 628.5,269C 629.823,269.816 630.489,270.983 630.5,272.5 Z"/></g>
<g><path style="opacity:0.032" fill="#f2fafb" d="M 675.5,266.5 C 675.5,266.833 675.5,267.167 675.5,267.5C 675.666,271.846 675.499,276.179 675,280.5C 674.283,279.956 673.783,279.289 673.5,278.5C 674.167,274.5 674.833,270.5 675.5,266.5 Z"/></g>
<g><path style="opacity:0.669" fill="#6fd2e4" d="M 82.5,267.5 C 82.5,270.5 82.5,273.5 82.5,276.5C 81.5233,273.713 81.19,270.713 81.5,267.5C 80.5,267.5 79.5,267.5 78.5,267.5C 78.5,274.833 78.5,282.167 78.5,289.5C 79.5,289.5 80.5,289.5 81.5,289.5C 81.19,286.287 81.5233,283.287 82.5,280.5C 82.5,283.5 82.5,286.5 82.5,289.5C 81.0813,290.451 79.4147,290.784 77.5,290.5C 77.5,282.5 77.5,274.5 77.5,266.5C 79.4147,266.216 81.0813,266.549 82.5,267.5 Z"/></g>
<g><path style="opacity:1" fill="#22b6d4" d="M 130.5,267.5 C 131.5,267.833 132.167,268.5 132.5,269.5C 132.67,270.822 132.337,271.989 131.5,273C 132.167,274 132.833,275 133.5,276C 131.601,280.178 130.935,284.678 131.5,289.5C 130.5,289.5 129.5,289.5 128.5,289.5C 127.87,281.757 128.537,274.424 130.5,267.5 Z"/></g>
<g><path style="opacity:1" fill="#2eb8d5" d="M 143.5,267.5 C 144.5,267.5 145.5,267.5 146.5,267.5C 147.13,275.243 146.463,282.576 144.5,289.5C 142.167,287.833 140.167,285.833 138.5,283.5C 138.262,281.596 137.262,280.262 135.5,279.5C 135.216,277.585 135.549,275.919 136.5,274.5C 136.833,275.5 137.5,276.167 138.5,276.5C 139.5,276.833 140.167,277.5 140.5,278.5C 140.5,279.167 140.833,279.5 141.5,279.5C 141.56,280.043 141.893,280.376 142.5,280.5C 143.492,276.217 143.826,271.884 143.5,267.5 Z"/></g>
<g><path style="opacity:0.601" fill="#7ad6e6" d="M 143.5,267.5 C 143.5,267.167 143.5,266.833 143.5,266.5C 144.833,266.5 146.167,266.5 147.5,266.5C 147.666,274.507 147.5,282.507 147,290.5C 145.841,291.566 145.008,291.233 144.5,289.5C 146.463,282.576 147.13,275.243 146.5,267.5C 145.5,267.5 144.5,267.5 143.5,267.5 Z"/></g>
<g><path style="opacity:1" fill="#35bad6" d="M 169.5,267.5 C 169.678,268.695 170.011,269.862 170.5,271C 170.164,272.03 169.497,272.53 168.5,272.5C 166.126,271.314 163.792,271.314 161.5,272.5C 159.771,271.764 158.771,270.43 158.5,268.5C 162.099,267.656 165.766,267.323 169.5,267.5 Z"/></g>
<g><path style="opacity:0.248" fill="#c2ebf3" d="M 178.5,266.5 C 180.5,266.5 182.5,266.5 184.5,266.5C 184.5,274.5 184.5,282.5 184.5,290.5C 182.5,290.5 180.5,290.5 178.5,290.5C 178.5,282.5 178.5,274.5 178.5,266.5 Z"/></g>
<g><path style="opacity:1" fill="#13b5d3" d="M 179.5,267.5 C 180.833,267.5 182.167,267.5 183.5,267.5C 183.5,274.833 183.5,282.167 183.5,289.5C 182.167,289.5 180.833,289.5 179.5,289.5C 179.5,282.167 179.5,274.833 179.5,267.5 Z"/></g>
<g><path style="opacity:0.251" fill="#bce9f2" d="M 194.5,268.5 C 193.85,268.196 193.183,267.863 192.5,267.5C 191.503,274.803 191.169,282.137 191.5,289.5C 192.833,289.5 194.167,289.5 195.5,289.5C 195.5,289.833 195.5,290.167 195.5,290.5C 193.833,290.5 192.167,290.5 190.5,290.5C 190.334,282.493 190.5,274.493 191,266.5C 192.785,265.646 193.951,266.313 194.5,268.5 Z"/></g>
<g><path style="opacity:0.204" fill="#c8eef5" d="M 449.5,266.5 C 449.5,266.833 449.5,267.167 449.5,267.5C 449.5,274.833 449.5,282.167 449.5,289.5C 450.833,289.5 452.167,289.5 453.5,289.5C 452.081,290.451 450.415,290.784 448.5,290.5C 448.174,282.316 448.508,274.316 449.5,266.5 Z"/></g>
<g><path style="opacity:1" fill="#0cb4d2" d="M 449.5,267.5 C 454.167,267.5 458.833,267.5 463.5,267.5C 463.5,268.5 463.5,269.5 463.5,270.5C 460.167,270.5 456.833,270.5 453.5,270.5C 453.5,272.833 453.5,275.167 453.5,277.5C 456.855,277.091 459.855,277.758 462.5,279.5C 462.5,279.833 462.5,280.167 462.5,280.5C 459.5,280.5 456.5,280.5 453.5,280.5C 453.5,283.5 453.5,286.5 453.5,289.5C 452.167,289.5 450.833,289.5 449.5,289.5C 449.5,282.167 449.5,274.833 449.5,267.5 Z"/></g>
<g><path style="opacity:0.447" fill="#98dfeb" d="M 482.5,266.5 C 482.5,266.833 482.5,267.167 482.5,267.5C 481.167,267.5 479.833,267.5 478.5,267.5C 478.5,274.833 478.5,282.167 478.5,289.5C 479.833,289.5 481.167,289.5 482.5,289.5C 482.5,289.833 482.5,290.167 482.5,290.5C 480.833,290.5 479.167,290.5 477.5,290.5C 477.5,282.5 477.5,274.5 477.5,266.5C 479.167,266.5 480.833,266.5 482.5,266.5 Z"/></g>
<g><path style="opacity:1" fill="#1fb7d4" d="M 482.5,267.5 C 482.5,270.5 482.5,273.5 482.5,276.5C 485.833,276.5 489.167,276.5 492.5,276.5C 493.477,273.713 493.81,270.713 493.5,267.5C 494.833,267.5 496.167,267.5 497.5,267.5C 497.5,274.833 497.5,282.167 497.5,289.5C 496.167,289.5 494.833,289.5 493.5,289.5C 493.81,286.287 493.477,283.287 492.5,280.5C 489.167,280.5 485.833,280.5 482.5,280.5C 482.5,283.5 482.5,286.5 482.5,289.5C 481.167,289.5 479.833,289.5 478.5,289.5C 478.5,282.167 478.5,274.833 478.5,267.5C 479.833,267.5 481.167,267.5 482.5,267.5 Z"/></g>
<g><path style="opacity:0.048" fill="#e9f7fa" d="M 663.5,267.5 C 662.5,267.5 661.5,267.5 660.5,267.5C 660.5,274.833 660.5,282.167 660.5,289.5C 659.344,282.011 659.178,274.345 660,266.5C 661.579,265.2 662.745,265.534 663.5,267.5 Z"/></g>
<g><path style="opacity:1" fill="#7cd0e2" d="M 169.5,267.5 C 173.51,268.331 174.177,270.164 171.5,273C 170.251,273.74 169.251,273.573 168.5,272.5C 169.497,272.53 170.164,272.03 170.5,271C 170.011,269.862 169.678,268.695 169.5,267.5 Z"/></g>
<g><path style="opacity:0.643" fill="#bee9f1" d="M 235.5,268.5 C 237.781,269.634 237.781,270.968 235.5,272.5C 235.5,271.167 235.5,269.833 235.5,268.5 Z"/></g>
<g><path style="opacity:0.733" fill="#c1eaf2" d="M 385.5,268.5 C 388.167,269.833 388.167,271.167 385.5,272.5C 385.5,271.167 385.5,269.833 385.5,268.5 Z"/></g>
<g><path style="opacity:0.478" fill="#90ddea" d="M 497.5,267.5 C 496.167,267.5 494.833,267.5 493.5,267.5C 493.81,270.713 493.477,273.713 492.5,276.5C 492.5,276.167 492.5,275.833 492.5,275.5C 492.5,272.5 492.5,269.5 492.5,266.5C 494.415,266.216 496.081,266.549 497.5,267.5 Z"/></g>
<g><path style="opacity:1" fill="#9cdbe9" d="M 539.5,272.5 C 537.478,271.493 536.145,269.826 535.5,267.5C 534.824,268.602 534.158,269.602 533.5,270.5C 533.275,268.284 534.108,266.617 536,265.5C 537.705,267.577 538.872,269.91 539.5,272.5 Z"/></g>
<g><path style="opacity:1" fill="#6fcadf" d="M 650.5,275.5 C 649.25,275.423 648.417,274.756 648,273.5C 647.503,275.81 647.337,278.143 647.5,280.5C 646.728,279.306 645.728,278.306 644.5,277.5C 644.577,276.25 645.244,275.417 646.5,275C 643.057,274.779 642.724,273.779 645.5,272C 645,271.5 644.5,271 644,270.5C 642.983,272.376 642.149,274.376 641.5,276.5C 640.817,276.863 640.15,277.196 639.5,277.5C 640.533,273.102 642.367,269.102 645,265.5C 647.619,268.406 649.453,271.739 650.5,275.5 Z"/></g>
<g><path style="opacity:1" fill="#4cc0d9" d="M 698.5,267.5 C 701.134,269.519 700.967,271.519 698,273.5C 696.103,271.984 693.936,271.317 691.5,271.5C 691.33,272.822 691.663,273.989 692.5,275C 700.68,276.915 703.013,281.415 699.5,288.5C 695.477,289.59 691.144,289.59 686.5,288.5C 689.203,286.89 692.203,285.89 695.5,285.5C 695.67,284.178 695.337,283.011 694.5,282C 691.241,280.789 688.408,278.956 686,276.5C 685.115,273.462 685.615,270.795 687.5,268.5C 691.099,267.656 694.766,267.323 698.5,267.5 Z"/></g>
<g><path style="opacity:1" fill="#5ac4dc" d="M 114.5,268.5 C 116.07,271.314 117.403,274.314 118.5,277.5C 117.265,277.279 116.265,276.612 115.5,275.5C 114.548,277.045 114.215,278.712 114.5,280.5C 115.043,280.56 115.376,280.893 115.5,281.5C 113.604,282.466 111.604,282.799 109.5,282.5C 109.917,277.857 108.583,276.857 105.5,279.5C 106.93,275.646 108.597,271.979 110.5,268.5C 111.833,267.167 113.167,267.167 114.5,268.5 Z M 111.5,277.5 C 112.167,277.833 112.833,278.167 113.5,278.5C 113.328,279.492 113.662,280.158 114.5,280.5C 113.292,281.782 111.958,281.782 110.5,280.5C 111.127,279.583 111.461,278.583 111.5,277.5 Z"/></g>
<g><path style="opacity:1" fill="#75cce0" d="M 158.5,268.5 C 158.771,270.43 159.771,271.764 161.5,272.5C 159.016,274.545 158.016,277.212 158.5,280.5C 157.926,278.212 156.926,276.045 155.5,274C 156.451,273.282 156.617,272.449 156,271.5C 155.292,272.381 154.458,273.047 153.5,273.5C 154.167,270.833 155.833,269.167 158.5,268.5 Z"/></g>
<g><path style="opacity:1" fill="#29b8d4" d="M 223.5,267.5 C 226.5,267.5 229.5,267.5 232.5,267.5C 233.609,267.557 234.609,267.89 235.5,268.5C 235.5,269.833 235.5,271.167 235.5,272.5C 233.784,272.371 232.117,272.038 230.5,271.5C 230.167,271.5 229.833,271.5 229.5,271.5C 226.635,270.217 223.635,270.217 220.5,271.5C 219.537,271.03 219.537,270.363 220.5,269.5C 220.973,268.094 221.973,267.427 223.5,267.5 Z"/></g>
<g><path style="opacity:1" fill="#6dcbdf" d="M 220.5,269.5 C 219.537,270.363 219.537,271.03 220.5,271.5C 223.635,270.217 226.635,270.217 229.5,271.5C 226.794,271.688 224.461,272.688 222.5,274.5C 221.796,272.656 220.463,272.156 218.5,273C 217.915,274.302 217.249,275.469 216.5,276.5C 216.5,275.833 216.5,275.167 216.5,274.5C 217.136,272.205 218.469,270.539 220.5,269.5 Z"/></g>
<g><path style="opacity:0.59" fill="#a1e0ed" d="M 330.5,273.5 C 330.5,274.833 330.5,276.167 330.5,277.5C 329.189,275.44 329.189,273.274 330.5,271C 333.817,270.502 337.15,270.335 340.5,270.5C 340.5,269.5 340.5,268.5 340.5,267.5C 335.833,267.5 331.167,267.5 326.5,267.5C 326.5,274.833 326.5,282.167 326.5,289.5C 327.5,289.5 328.5,289.5 329.5,289.5C 329.336,286.813 329.503,284.146 330,281.5C 332.719,280.556 335.552,280.223 338.5,280.5C 338.5,280.833 338.5,281.167 338.5,281.5C 335.68,281.248 333.014,281.748 330.5,283C 333.085,289.256 331.251,291.423 325,289.5C 324.333,282.167 324.333,274.833 325,267.5C 330.407,266.527 335.907,266.193 341.5,266.5C 341.5,268.167 341.5,269.833 341.5,271.5C 338.15,271.335 334.817,271.502 331.5,272C 330.944,272.383 330.611,272.883 330.5,273.5 Z"/></g>
<g><path style="opacity:1" fill="#5ec5dc" d="M 351.5,267.5 C 353.062,267.733 354.395,268.4 355.5,269.5C 356.441,271.05 357.107,272.716 357.5,274.5C 356.228,273.333 354.894,272.499 353.5,272C 353.398,274.329 353.731,276.829 354.5,279.5C 353.778,279.082 353.278,278.416 353,277.5C 352.617,278.056 352.117,278.389 351.5,278.5C 351.532,276.381 350.532,275.048 348.5,274.5C 348.935,271.843 349.935,269.509 351.5,267.5 Z"/></g>
<g><path style="opacity:1" fill="#53c2da" d="M 373.5,267.5 C 376.833,267.5 380.167,267.5 383.5,267.5C 384.167,267.833 384.833,268.167 385.5,268.5C 385.5,269.833 385.5,271.167 385.5,272.5C 385.265,273.097 384.765,273.43 384,273.5C 377.58,269.679 373.413,271.345 371.5,278.5C 372.174,280.195 372.841,281.862 373.5,283.5C 370.591,281.361 369.924,278.527 371.5,275C 370.486,272.971 369.153,272.471 367.5,273.5C 368.5,270.5 370.5,268.5 373.5,267.5 Z"/></g>
<g><path style="opacity:0.627" fill="#ace4ee" d="M 508.5,268.5 C 507.167,270.5 505.5,272.167 503.5,273.5C 504.167,270.833 505.833,269.167 508.5,268.5 Z"/></g>
<g><path style="opacity:0.614" fill="#95ddeb" d="M 562.5,267.5 C 562.5,267.167 562.5,266.833 562.5,266.5C 567.5,266.5 572.5,266.5 577.5,266.5C 577.5,268.167 577.5,269.833 577.5,271.5C 574.167,271.5 570.833,271.5 567.5,271.5C 567.5,272.833 567.5,274.167 567.5,275.5C 570.385,275.194 573.052,275.527 575.5,276.5C 572.5,276.5 569.5,276.5 566.5,276.5C 566.5,274.5 566.5,272.5 566.5,270.5C 569.833,270.5 573.167,270.5 576.5,270.5C 576.5,269.5 576.5,268.5 576.5,267.5C 571.833,267.5 567.167,267.5 562.5,267.5 Z"/></g>
<g><path style="opacity:0.541" fill="#aee5ef" d="M 613.5,268.5 C 612.5,270.167 611.167,271.5 609.5,272.5C 609.833,270.167 611.167,268.833 613.5,268.5 Z"/></g>
<g><path style="opacity:0.557" fill="#b4e6f0" d="M 665.5,269.5 C 667.262,270.262 668.262,271.596 668.5,273.5C 666.738,272.738 665.738,271.404 665.5,269.5 Z"/></g>
<g><path style="opacity:1" fill="#9cdce9" d="M 71.5,268.5 C 74.106,269.85 74.106,271.35 71.5,273C 69.4652,273.599 67.7985,273.099 66.5,271.5C 68.1667,271.5 69.8333,271.5 71.5,271.5C 71.5,270.5 71.5,269.5 71.5,268.5 Z"/></g>
<g><path style="opacity:1" fill="#0cb4d2" d="M 259.5,271.5 C 258.51,277.31 258.177,283.31 258.5,289.5C 257.5,289.5 256.5,289.5 255.5,289.5C 255.823,283.31 255.49,277.31 254.5,271.5C 253.081,270.549 251.415,270.216 249.5,270.5C 249.5,269.5 249.5,268.5 249.5,267.5C 254.5,267.5 259.5,267.5 264.5,267.5C 264.5,268.5 264.5,269.5 264.5,270.5C 262.585,270.216 260.919,270.549 259.5,271.5 Z"/></g>
<g><path style="opacity:1" fill="#81d1e3" d="M 423.5,269.5 C 423.771,271.43 424.771,272.764 426.5,273.5C 426.34,275.153 425.674,276.486 424.5,277.5C 425.234,273.56 423.901,272.227 420.5,273.5C 420.738,271.596 421.738,270.262 423.5,269.5 Z"/></g>
<g><path style="opacity:0.906" fill="#86d6e7" d="M 554.5,275.5 C 553.534,272.555 552.2,269.888 550.5,267.5C 551.008,265.767 551.841,265.434 553,266.5C 553.696,269.478 554.196,272.478 554.5,275.5 Z"/></g>
<g><path style="opacity:0.357" fill="#c2eaf2" d="M 230.5,271.5 C 232.117,272.038 233.784,272.371 235.5,272.5C 233.545,273.93 231.879,273.597 230.5,271.5 Z"/></g>
<g><path style="opacity:0.998" fill="#1bb6d3" d="M 396.5,271.5 C 396.5,273.167 396.5,274.833 396.5,276.5C 399.167,276.5 401.833,276.5 404.5,276.5C 404.5,277.833 404.5,279.167 404.5,280.5C 401.833,280.5 399.167,280.5 396.5,280.5C 396.5,282.167 396.5,283.833 396.5,285.5C 399.625,286.479 402.958,286.813 406.5,286.5C 406.5,287.5 406.5,288.5 406.5,289.5C 401.833,289.5 397.167,289.5 392.5,289.5C 392.5,282.167 392.5,274.833 392.5,267.5C 397.167,267.5 401.833,267.5 406.5,267.5C 406.5,268.5 406.5,269.5 406.5,270.5C 402.958,270.187 399.625,270.521 396.5,271.5 Z"/></g>
<g><path style="opacity:1" fill="#50c0d9" d="M 519.5,267.5 C 526.279,270.529 528.613,275.529 526.5,282.5C 525.527,281.209 524.527,281.209 523.5,282.5C 522.831,280.369 522.165,278.369 521.5,276.5C 515.823,269.341 511.489,270.007 508.5,278.5C 508.467,281.102 509.467,283.102 511.5,284.5C 513.417,286.745 515.75,287.078 518.5,285.5C 519.705,286.577 520.372,287.91 520.5,289.5C 506.882,292.211 501.215,286.877 503.5,273.5C 505.5,272.167 507.167,270.5 508.5,268.5C 512.099,267.656 515.766,267.323 519.5,267.5 Z"/></g>
<g><path style="opacity:1" fill="#76cee1" d="M 130.5,267.5 C 128.537,274.424 127.87,281.757 128.5,289.5C 129.5,289.5 130.5,289.5 131.5,289.5C 130.935,284.678 131.601,280.178 133.5,276C 132.833,275 132.167,274 131.5,273C 132.337,271.989 132.67,270.822 132.5,269.5C 134.167,270.5 135.5,271.833 136.5,273.5C 136.5,273.833 136.5,274.167 136.5,274.5C 135.549,275.919 135.216,277.585 135.5,279.5C 134.542,279.047 133.708,278.381 133,277.5C 132.501,281.821 132.334,286.154 132.5,290.5C 130.801,290.66 129.134,290.494 127.5,290C 126.941,289.275 126.608,288.442 126.5,287.5C 126.666,281.167 126.666,274.834 126.5,268.5C 127.699,265.49 129.033,265.157 130.5,267.5 Z"/></g>
<g><path style="opacity:0.51" fill="#b3e7f0" d="M 136.5,273.5 C 137.906,273.973 138.573,274.973 138.5,276.5C 137.5,276.167 136.833,275.5 136.5,274.5C 136.5,274.167 136.5,273.833 136.5,273.5 Z"/></g>
<g><path style="opacity:0.703" fill="#66cfe2" d="M 254.5,271.5 C 255.49,277.31 255.823,283.31 255.5,289.5C 256.5,289.5 257.5,289.5 258.5,289.5C 258.177,283.31 258.51,277.31 259.5,271.5C 259.5,277.833 259.5,284.167 259.5,290.5C 257.585,290.784 255.919,290.451 254.5,289.5C 254.5,283.5 254.5,277.5 254.5,271.5 Z"/></g>
<g><path style="opacity:0.177" fill="#e0f5f9" d="M 93.5,266.5 C 93.5,266.833 93.5,267.167 93.5,267.5C 92.5233,270.287 92.19,273.287 92.5,276.5C 89.1667,276.5 85.8333,276.5 82.5,276.5C 82.5,273.5 82.5,270.5 82.5,267.5C 83.4731,269.948 83.8064,272.615 83.5,275.5C 86.1667,275.5 88.8333,275.5 91.5,275.5C 90.9455,271.988 91.6122,268.988 93.5,266.5 Z"/></g>
<g><path style="opacity:0.169" fill="#d9f3f7" d="M 300.5,271.5 C 300.833,271.5 301.167,271.5 301.5,271.5C 301.5,272.833 301.5,274.167 301.5,275.5C 304.385,275.194 307.052,275.527 309.5,276.5C 306.5,276.5 303.5,276.5 300.5,276.5C 300.5,274.833 300.5,273.167 300.5,271.5 Z"/></g>
<g><path style="opacity:0.166" fill="#cff0f6" d="M 396.5,271.5 C 396.833,271.5 397.167,271.5 397.5,271.5C 397.5,272.833 397.5,274.167 397.5,275.5C 400.167,275.5 402.833,275.5 405.5,275.5C 405.784,277.415 405.451,279.081 404.5,280.5C 404.5,279.167 404.5,277.833 404.5,276.5C 401.833,276.5 399.167,276.5 396.5,276.5C 396.5,274.833 396.5,273.167 396.5,271.5 Z"/></g>
<g><path style="opacity:0.18" fill="#d4f2f7" d="M 482.5,266.5 C 483.477,269.287 483.81,272.287 483.5,275.5C 486.5,275.5 489.5,275.5 492.5,275.5C 492.5,275.833 492.5,276.167 492.5,276.5C 489.167,276.5 485.833,276.5 482.5,276.5C 482.5,273.5 482.5,270.5 482.5,267.5C 482.5,267.167 482.5,266.833 482.5,266.5 Z"/></g>
<g><path style="opacity:1" fill="#21b7d4" d="M 550.5,267.5 C 552.2,269.888 553.534,272.555 554.5,275.5C 554.5,275.833 554.5,276.167 554.5,276.5C 554.586,280.857 554.92,285.19 555.5,289.5C 554.5,289.5 553.5,289.5 552.5,289.5C 552.737,288.209 552.404,287.209 551.5,286.5C 551.5,286.167 551.5,285.833 551.5,285.5C 551.813,282.753 551.48,280.086 550.5,277.5C 548.45,276.923 547.45,275.59 547.5,273.5C 547.992,271.181 548.992,269.181 550.5,267.5 Z"/></g>
<g><path style="opacity:0.993" fill="#1cb6d3" d="M 82.5,276.5 C 85.8333,276.5 89.1667,276.5 92.5,276.5C 92.19,273.287 92.5233,270.287 93.5,267.5C 94.5,267.5 95.5,267.5 96.5,267.5C 96.5,274.833 96.5,282.167 96.5,289.5C 95.5,289.5 94.5,289.5 93.5,289.5C 93.81,286.287 93.4767,283.287 92.5,280.5C 89.1667,280.5 85.8333,280.5 82.5,280.5C 81.5233,283.287 81.19,286.287 81.5,289.5C 80.5,289.5 79.5,289.5 78.5,289.5C 78.5,282.167 78.5,274.833 78.5,267.5C 79.5,267.5 80.5,267.5 81.5,267.5C 81.19,270.713 81.5233,273.713 82.5,276.5 Z"/></g>
<g><path style="opacity:0.255" fill="#d9f3f6" d="M 111.5,277.5 C 112.623,276.243 113.289,276.576 113.5,278.5C 112.833,278.167 112.167,277.833 111.5,277.5 Z"/></g>
<g><path style="opacity:0.94" fill="#36bbd6" d="M 194.5,268.5 C 198.167,271.5 201.5,274.833 204.5,278.5C 204.369,279.376 204.702,280.043 205.5,280.5C 206.492,276.217 206.826,271.884 206.5,267.5C 207.833,267.5 209.167,267.5 210.5,267.5C 210.5,275.167 210.5,282.833 210.5,290.5C 209.448,290.649 208.448,290.483 207.5,290C 204.331,285.999 200.997,282.166 197.5,278.5C 197.217,277.711 196.717,277.044 196,276.5C 195.501,280.821 195.334,285.154 195.5,289.5C 194.167,289.5 192.833,289.5 191.5,289.5C 191.169,282.137 191.503,274.803 192.5,267.5C 193.183,267.863 193.85,268.196 194.5,268.5 Z"/></g>
<g><path style="opacity:1" fill="#48bfd8" d="M 222.5,274.5 C 220.528,280.888 222.862,284.555 229.5,285.5C 230.5,285.5 231.5,285.5 232.5,285.5C 232.5,284.5 232.5,283.5 232.5,282.5C 231.5,282.5 230.5,282.5 229.5,282.5C 229.5,281.167 229.5,279.833 229.5,278.5C 231.833,278.5 234.167,278.5 236.5,278.5C 237.82,281.899 237.82,285.399 236.5,289C 231.262,291.144 226.262,290.977 221.5,288.5C 221.027,287.094 220.027,286.427 218.5,286.5C 218.167,285.833 217.833,285.167 217.5,284.5C 216.908,281.873 216.575,279.206 216.5,276.5C 217.249,275.469 217.915,274.302 218.5,273C 220.463,272.156 221.796,272.656 222.5,274.5 Z"/></g>
<g><path style="opacity:1" fill="#18b6d4" d="M 274.5,276.5 C 277.833,276.5 281.167,276.5 284.5,276.5C 284.5,273.5 284.5,270.5 284.5,267.5C 285.833,267.5 287.167,267.5 288.5,267.5C 288.5,274.833 288.5,282.167 288.5,289.5C 287.167,289.5 285.833,289.5 284.5,289.5C 284.5,286.5 284.5,283.5 284.5,280.5C 281.167,280.5 277.833,280.5 274.5,280.5C 273.523,283.287 273.19,286.287 273.5,289.5C 272.167,289.5 270.833,289.5 269.5,289.5C 269.5,282.167 269.5,274.833 269.5,267.5C 270.833,267.5 272.167,267.5 273.5,267.5C 273.19,270.713 273.523,273.713 274.5,276.5 Z"/></g>
<g><path style="opacity:0.318" fill="#bdeaf2" d="M 330.5,273.5 C 331.404,274.209 331.737,275.209 331.5,276.5C 334.167,276.5 336.833,276.5 339.5,276.5C 339.784,278.415 339.451,280.081 338.5,281.5C 338.5,281.167 338.5,280.833 338.5,280.5C 338.5,279.5 338.5,278.5 338.5,277.5C 335.833,277.5 333.167,277.5 330.5,277.5C 330.5,276.167 330.5,274.833 330.5,273.5 Z"/></g>
<g><path style="opacity:1" fill="#75cee1" d="M 547.5,273.5 C 547.45,275.59 548.45,276.923 550.5,277.5C 551.48,280.086 551.813,282.753 551.5,285.5C 550.691,283.708 550.191,281.708 550,279.5C 549.8,281.32 548.966,282.653 547.5,283.5C 547.261,281.533 547.594,279.699 548.5,278C 547.552,277.517 546.552,277.351 545.5,277.5C 545.66,275.847 546.326,274.514 547.5,273.5 Z"/></g>
<g><path style="opacity:0.2" fill="#d9f3f7" d="M 216.5,274.5 C 216.5,275.167 216.5,275.833 216.5,276.5C 216.575,279.206 216.908,281.873 217.5,284.5C 216.028,282.883 215.361,280.883 215.5,278.5C 215.511,276.955 215.844,275.622 216.5,274.5 Z"/></g>
<g><path style="opacity:1" fill="#0fb4d2" d="M 330.5,277.5 C 333.167,277.5 335.833,277.5 338.5,277.5C 338.5,278.5 338.5,279.5 338.5,280.5C 335.552,280.223 332.719,280.556 330,281.5C 329.503,284.146 329.336,286.813 329.5,289.5C 328.5,289.5 327.5,289.5 326.5,289.5C 326.5,282.167 326.5,274.833 326.5,267.5C 331.167,267.5 335.833,267.5 340.5,267.5C 340.5,268.5 340.5,269.5 340.5,270.5C 337.15,270.335 333.817,270.502 330.5,271C 329.189,273.274 329.189,275.44 330.5,277.5 Z"/></g>
<g><path style="opacity:0.48" fill="#96deeb" d="M 666.5,277.5 C 665.515,281.634 665.182,285.968 665.5,290.5C 663.585,290.784 661.919,290.451 660.5,289.5C 661.833,289.5 663.167,289.5 664.5,289.5C 664.174,285.116 664.508,280.783 665.5,276.5C 666.107,276.624 666.44,276.957 666.5,277.5 Z"/></g>
<g><path style="opacity:1" fill="#21b6d3" d="M 300.5,271.5 C 300.5,273.167 300.5,274.833 300.5,276.5C 303.5,276.5 306.5,276.5 309.5,276.5C 310.686,277.961 310.686,279.295 309.5,280.5C 306.5,280.5 303.5,280.5 300.5,280.5C 300.5,282.167 300.5,283.833 300.5,285.5C 303.625,286.479 306.958,286.813 310.5,286.5C 310.5,287.5 310.5,288.5 310.5,289.5C 305.833,289.5 301.167,289.5 296.5,289.5C 296.5,282.167 296.5,274.833 296.5,267.5C 301.167,267.5 305.833,267.5 310.5,267.5C 310.5,268.5 310.5,269.5 310.5,270.5C 306.958,270.187 303.625,270.521 300.5,271.5 Z"/></g>
<g><path style="opacity:0.531" fill="#92ddeb" d="M 397.5,271.5 C 397.167,271.5 396.833,271.5 396.5,271.5C 399.625,270.521 402.958,270.187 406.5,270.5C 406.5,269.5 406.5,268.5 406.5,267.5C 401.833,267.5 397.167,267.5 392.5,267.5C 392.5,274.833 392.5,282.167 392.5,289.5C 397.167,289.5 401.833,289.5 406.5,289.5C 406.5,288.5 406.5,287.5 406.5,286.5C 402.958,286.813 399.625,286.479 396.5,285.5C 396.833,285.5 397.167,285.5 397.5,285.5C 400.833,285.5 404.167,285.5 407.5,285.5C 407.5,287.167 407.5,288.833 407.5,290.5C 402.167,290.5 396.833,290.5 391.5,290.5C 391.5,282.5 391.5,274.5 391.5,266.5C 396.833,266.5 402.167,266.5 407.5,266.5C 407.5,268.167 407.5,269.833 407.5,271.5C 404.167,271.5 400.833,271.5 397.5,271.5 Z"/></g>
<g><path style="opacity:1" fill="#26b8d4" d="M 562.5,267.5 C 567.167,267.5 571.833,267.5 576.5,267.5C 576.5,268.5 576.5,269.5 576.5,270.5C 573.167,270.5 569.833,270.5 566.5,270.5C 566.5,272.5 566.5,274.5 566.5,276.5C 569.5,276.5 572.5,276.5 575.5,276.5C 576.833,277.833 576.833,279.167 575.5,280.5C 572.5,280.5 569.5,280.5 566.5,280.5C 566.5,282.5 566.5,284.5 566.5,286.5C 569.833,286.5 573.167,286.5 576.5,286.5C 576.5,287.5 576.5,288.5 576.5,289.5C 571.833,289.5 567.167,289.5 562.5,289.5C 562.5,282.167 562.5,274.833 562.5,267.5 Z"/></g>
<g><path style="opacity:1" fill="#53c3db" d="M 675.5,267.5 C 675.833,267.5 676.167,267.5 676.5,267.5C 676.5,272.167 676.5,276.833 676.5,281.5C 672.814,281.13 671.814,282.463 673.5,285.5C 671.11,284.109 669.443,282.109 668.5,279.5C 670.048,279.179 670.715,278.179 670.5,276.5C 669.448,276.649 668.448,276.483 667.5,276C 668.252,275.329 668.586,274.496 668.5,273.5C 670.5,274.833 672.167,276.5 673.5,278.5C 673.783,279.289 674.283,279.956 675,280.5C 675.499,276.179 675.666,271.846 675.5,267.5 Z"/></g>
<g><path style="opacity:0.053" fill="#f1fafb" d="M 197.5,278.5 C 196.833,282.5 196.167,286.5 195.5,290.5C 195.5,290.167 195.5,289.833 195.5,289.5C 195.334,285.154 195.501,280.821 196,276.5C 196.717,277.044 197.217,277.711 197.5,278.5 Z"/></g>
<g><path style="opacity:0.302" fill="#c0ebf3" d="M 274.5,281.5 C 274.5,281.167 274.5,280.833 274.5,280.5C 277.833,280.5 281.167,280.5 284.5,280.5C 284.5,283.5 284.5,286.5 284.5,289.5C 285.833,289.5 287.167,289.5 288.5,289.5C 288.5,282.167 288.5,274.833 288.5,267.5C 287.167,267.5 285.833,267.5 284.5,267.5C 284.5,270.5 284.5,273.5 284.5,276.5C 281.167,276.5 277.833,276.5 274.5,276.5C 274.5,276.167 274.5,275.833 274.5,275.5C 277.5,275.5 280.5,275.5 283.5,275.5C 283.5,272.5 283.5,269.5 283.5,266.5C 285.5,266.5 287.5,266.5 289.5,266.5C 289.5,274.5 289.5,282.5 289.5,290.5C 287.5,290.5 285.5,290.5 283.5,290.5C 283.5,287.5 283.5,284.5 283.5,281.5C 280.5,281.5 277.5,281.5 274.5,281.5 Z"/></g>
<g><path style="opacity:1" fill="#1ab5d3" d="M 676.5,267.5 C 677.5,267.5 678.5,267.5 679.5,267.5C 680.13,275.243 679.463,282.576 677.5,289.5C 675.833,288.5 674.5,287.167 673.5,285.5C 671.814,282.463 672.814,281.13 676.5,281.5C 676.5,276.833 676.5,272.167 676.5,267.5 Z"/></g>
<g><path style="opacity:0.004" fill="#fcfffe" d="M 121.5,280.5 C 122.833,281.167 122.833,281.167 121.5,280.5 Z"/></g>
<g><path style="opacity:0.004" fill="#dbf3f8" d="M 135.5,279.5 C 137.262,280.262 138.262,281.596 138.5,283.5C 136.738,282.738 135.738,281.404 135.5,279.5 Z"/></g>
<g><path style="opacity:1" fill="#44bdd7" d="M 165.5,278.5 C 167.833,278.5 170.167,278.5 172.5,278.5C 172.813,282.042 172.479,285.375 171.5,288.5C 170.761,288.631 170.094,288.464 169.5,288C 170.428,287.612 171.095,286.945 171.5,286C 170.095,285.793 169.095,284.627 168.5,282.5C 167.5,282.5 166.5,282.5 165.5,282.5C 164.167,281.167 164.167,279.833 165.5,278.5 Z"/></g>
<g><path style="opacity:0.607" fill="#a6e2ed" d="M 165.5,278.5 C 167.948,277.527 170.615,277.194 173.5,277.5C 174.089,281.971 173.423,285.971 171.5,289.5C 171.5,289.167 171.5,288.833 171.5,288.5C 172.479,285.375 172.813,282.042 172.5,278.5C 170.167,278.5 167.833,278.5 165.5,278.5 Z"/></g>
<g><path style="opacity:0.117" fill="#e8f7fa" d="M 309.5,280.5 C 307.052,281.473 304.385,281.806 301.5,281.5C 301.5,282.833 301.5,284.167 301.5,285.5C 301.167,285.5 300.833,285.5 300.5,285.5C 300.5,283.833 300.5,282.167 300.5,280.5C 303.5,280.5 306.5,280.5 309.5,280.5 Z"/></g>
<g><path style="opacity:0.122" fill="#e6f7fa" d="M 404.5,280.5 C 402.393,281.468 400.059,281.802 397.5,281.5C 397.5,282.833 397.5,284.167 397.5,285.5C 397.167,285.5 396.833,285.5 396.5,285.5C 396.5,283.833 396.5,282.167 396.5,280.5C 399.167,280.5 401.833,280.5 404.5,280.5 Z"/></g>
<g><path style="opacity:0.574" fill="#b1e5ef" d="M 462.5,280.5 C 460.657,281.283 458.657,281.95 456.5,282.5C 455.914,282.291 455.414,281.957 455,281.5C 454.817,284.365 454.317,287.031 453.5,289.5C 453.5,286.5 453.5,283.5 453.5,280.5C 456.5,280.5 459.5,280.5 462.5,280.5 Z"/></g>
<g><path style="opacity:0.431" fill="#9de0ec" d="M 675.5,267.5 C 675.5,267.167 675.5,266.833 675.5,266.5C 677.167,266.5 678.833,266.5 680.5,266.5C 680.666,274.507 680.5,282.507 680,290.5C 678.841,291.566 678.008,291.233 677.5,289.5C 679.463,282.576 680.13,275.243 679.5,267.5C 678.5,267.5 677.5,267.5 676.5,267.5C 676.167,267.5 675.833,267.5 675.5,267.5 Z"/></g>
<g><path style="opacity:1" fill="#4cc0d9" d="M 158.5,280.5 C 160.154,283.666 162.821,285.333 166.5,285.5C 168.048,285.179 168.715,284.179 168.5,282.5C 169.095,284.627 170.095,285.793 171.5,286C 171.095,286.945 170.428,287.612 169.5,288C 170.094,288.464 170.761,288.631 171.5,288.5C 171.5,288.833 171.5,289.167 171.5,289.5C 157.402,292.722 151.402,287.389 153.5,273.5C 154.458,273.047 155.292,272.381 156,271.5C 156.617,272.449 156.451,273.282 155.5,274C 156.926,276.045 157.926,278.212 158.5,280.5 Z"/></g>
<g><path style="opacity:1" fill="#42bdd7" d="M 357.5,274.5 C 359.736,278.645 361.736,282.978 363.5,287.5C 362.393,289.847 360.726,290.18 358.5,288.5C 357.662,288.158 357.328,287.492 357.5,286.5C 356.036,285.84 354.369,285.507 352.5,285.5C 350.36,285.556 348.694,286.223 347.5,287.5C 347.672,288.492 347.338,289.158 346.5,289.5C 344.517,289.843 343.183,289.176 342.5,287.5C 343.716,282.738 345.716,278.405 348.5,274.5C 350.532,275.048 351.532,276.381 351.5,278.5C 351.443,279.609 351.11,280.609 350.5,281.5C 351.919,282.451 353.585,282.784 355.5,282.5C 355.737,281.209 355.404,280.209 354.5,279.5C 353.731,276.829 353.398,274.329 353.5,272C 354.894,272.499 356.228,273.333 357.5,274.5 Z M 354.5,279.5 C 353.817,281.176 352.483,281.843 350.5,281.5C 351.11,280.609 351.443,279.609 351.5,278.5C 352.117,278.389 352.617,278.056 353,277.5C 353.278,278.416 353.778,279.082 354.5,279.5 Z"/></g>
<g><path style="opacity:0.353" fill="#b1e5ef" d="M 354.5,279.5 C 355.404,280.209 355.737,281.209 355.5,282.5C 353.585,282.784 351.919,282.451 350.5,281.5C 352.483,281.843 353.817,281.176 354.5,279.5 Z"/></g>
<g><path style="opacity:0.473" fill="#91ddea" d="M 492.5,280.5 C 493.477,283.287 493.81,286.287 493.5,289.5C 494.833,289.5 496.167,289.5 497.5,289.5C 496.081,290.451 494.415,290.784 492.5,290.5C 492.5,287.5 492.5,284.5 492.5,281.5C 492.5,281.167 492.5,280.833 492.5,280.5 Z"/></g>
<g><path style="opacity:1" fill="#39bbd6" d="M 644.5,277.5 C 643.069,278.78 642.402,280.447 642.5,282.5C 644.604,282.799 646.604,282.466 648.5,281.5C 648.376,280.893 648.043,280.56 647.5,280.5C 647.337,278.143 647.503,275.81 648,273.5C 648.417,274.756 649.25,275.423 650.5,275.5C 652.438,279.043 654.105,282.71 655.5,286.5C 655.5,287.5 655.5,288.5 655.5,289.5C 654.167,289.5 652.833,289.5 651.5,289.5C 650.662,289.158 650.328,288.492 650.5,287.5C 649.306,286.223 647.64,285.556 645.5,285.5C 643.631,285.507 641.964,285.84 640.5,286.5C 640.443,287.609 640.11,288.609 639.5,289.5C 637.585,289.784 635.919,289.451 634.5,288.5C 635.382,284.407 637.049,280.74 639.5,277.5C 640.15,277.196 640.817,276.863 641.5,276.5C 642.149,274.376 642.983,272.376 644,270.5C 644.5,271 645,271.5 645.5,272C 642.724,273.779 643.057,274.779 646.5,275C 645.244,275.417 644.577,276.25 644.5,277.5 Z M 644.5,277.5 C 645.728,278.306 646.728,279.306 647.5,280.5C 646.399,281.598 645.066,281.765 643.5,281C 644.337,279.989 644.67,278.822 644.5,277.5 Z"/></g>
<g><path style="opacity:0.335" fill="#aae4ee" d="M 644.5,277.5 C 644.67,278.822 644.337,279.989 643.5,281C 645.066,281.765 646.399,281.598 647.5,280.5C 648.043,280.56 648.376,280.893 648.5,281.5C 646.604,282.466 644.604,282.799 642.5,282.5C 642.402,280.447 643.069,278.78 644.5,277.5 Z"/></g>
<g><path style="opacity:1" fill="#27b8d5" d="M 663.5,267.5 C 664.5,267.833 665.167,268.5 665.5,269.5C 665.738,271.404 666.738,272.738 668.5,273.5C 668.586,274.496 668.252,275.329 667.5,276C 668.448,276.483 669.448,276.649 670.5,276.5C 670.715,278.179 670.048,279.179 668.5,279.5C 667.5,279.167 666.833,278.5 666.5,277.5C 666.44,276.957 666.107,276.624 665.5,276.5C 664.508,280.783 664.174,285.116 664.5,289.5C 663.167,289.5 661.833,289.5 660.5,289.5C 660.5,282.167 660.5,274.833 660.5,267.5C 661.5,267.5 662.5,267.5 663.5,267.5 Z"/></g>
<g><path style="opacity:0.047" fill="#effafb" d="M 82.5,280.5 C 85.8333,280.5 89.1667,280.5 92.5,280.5C 92.5,283.5 92.5,286.5 92.5,289.5C 91.5269,287.052 91.1936,284.385 91.5,281.5C 88.8333,281.5 86.1667,281.5 83.5,281.5C 83.8064,284.385 83.4731,287.052 82.5,289.5C 82.5,286.5 82.5,283.5 82.5,280.5 Z"/></g>
<g><path style="opacity:0.035" fill="#eff9fb" d="M 165.5,282.5 C 166.5,282.5 167.5,282.5 168.5,282.5C 168.715,284.179 168.048,285.179 166.5,285.5C 166.611,284.883 166.944,284.383 167.5,284C 166.584,283.722 165.918,283.222 165.5,282.5 Z"/></g>
<g><path style="opacity:0.368" fill="#a0e1ed" d="M 274.5,280.5 C 274.5,280.833 274.5,281.167 274.5,281.5C 274.5,284.5 274.5,287.5 274.5,290.5C 272.585,290.784 270.919,290.451 269.5,289.5C 270.833,289.5 272.167,289.5 273.5,289.5C 273.19,286.287 273.523,283.287 274.5,280.5 Z"/></g>
<g><path style="opacity:0.136" fill="#e1f6f9" d="M 492.5,280.5 C 492.5,280.833 492.5,281.167 492.5,281.5C 489.5,281.5 486.5,281.5 483.5,281.5C 483.81,284.713 483.477,287.713 482.5,290.5C 482.5,290.167 482.5,289.833 482.5,289.5C 482.5,286.5 482.5,283.5 482.5,280.5C 485.833,280.5 489.167,280.5 492.5,280.5 Z"/></g>
<g><path style="opacity:0.345" fill="#caeef4" d="M 68.5,284.5 C 71.3719,283.443 73.3719,284.61 74.5,288C 73.552,288.483 72.552,288.649 71.5,288.5C 71.9118,286.027 70.9118,284.694 68.5,284.5 Z"/></g>
<g><path style="opacity:0.553" fill="#88d9e8" d="M 93.5,267.5 C 93.5,267.167 93.5,266.833 93.5,266.5C 94.8333,266.5 96.1667,266.5 97.5,266.5C 97.2389,273.538 97.5722,280.538 98.5,287.5C 98.3918,288.442 98.0585,289.275 97.5,290C 95.6131,290.78 93.9464,290.613 92.5,289.5C 92.5,286.5 92.5,283.5 92.5,280.5C 93.4767,283.287 93.81,286.287 93.5,289.5C 94.5,289.5 95.5,289.5 96.5,289.5C 96.5,282.167 96.5,274.833 96.5,267.5C 95.5,267.5 94.5,267.5 93.5,267.5 Z"/></g>
<g><path style="opacity:0.99" fill="#41bcd7" d="M 118.5,277.5 C 118.916,280.406 119.582,283.239 120.5,286C 120.392,287.681 119.725,288.848 118.5,289.5C 117.596,288.791 117.263,287.791 117.5,286.5C 114.102,286.18 110.768,286.513 107.5,287.5C 107.137,288.183 106.804,288.85 106.5,289.5C 104.585,289.784 102.919,289.451 101.5,288.5C 102.463,285.256 103.796,282.256 105.5,279.5C 108.583,276.857 109.917,277.857 109.5,282.5C 111.604,282.799 113.604,282.466 115.5,281.5C 115.376,280.893 115.043,280.56 114.5,280.5C 114.215,278.712 114.548,277.045 115.5,275.5C 116.265,276.612 117.265,277.279 118.5,277.5 Z M 111.5,277.5 C 112.167,277.833 112.833,278.167 113.5,278.5C 113.328,279.492 113.662,280.158 114.5,280.5C 113.292,281.782 111.958,281.782 110.5,280.5C 111.127,279.583 111.461,278.583 111.5,277.5 Z"/></g>
<g><path style="opacity:0.175" fill="#caeef4" d="M 210.5,290.5 C 210.5,282.833 210.5,275.167 210.5,267.5C 209.167,267.5 207.833,267.5 206.5,267.5C 206.826,271.884 206.492,276.217 205.5,280.5C 204.702,280.043 204.369,279.376 204.5,278.5C 205.483,274.702 205.817,270.702 205.5,266.5C 207.5,266.5 209.5,266.5 211.5,266.5C 211.826,274.684 211.492,282.684 210.5,290.5 Z"/></g>
<g><path style="opacity:0.373" fill="#c7edf3" d="M 236.5,278.5 C 234.167,278.5 231.833,278.5 229.5,278.5C 229.5,279.833 229.5,281.167 229.5,282.5C 230.5,282.5 231.5,282.5 232.5,282.5C 232.5,283.5 232.5,284.5 232.5,285.5C 231.5,285.5 230.5,285.5 229.5,285.5C 232.258,284.033 231.925,283.367 228.5,283.5C 228.5,281.5 228.5,279.5 228.5,277.5C 231.385,277.194 234.052,277.527 236.5,278.5 Z"/></g>
<g><path style="opacity:1" fill="#49bfd8" d="M 373.5,283.5 C 376.278,285.758 379.278,286.091 382.5,284.5C 384.912,284.694 385.912,286.027 385.5,288.5C 383.538,290.017 381.205,290.684 378.5,290.5C 375.795,290.684 373.462,290.017 371.5,288.5C 371.027,287.094 370.027,286.427 368.5,286.5C 365.105,282.263 364.772,277.93 367.5,273.5C 369.153,272.471 370.486,272.971 371.5,275C 369.924,278.527 370.591,281.361 373.5,283.5 Z"/></g>
<g><path style="opacity:1" fill="#47bed8" d="M 539.5,272.5 C 540.705,275.234 542.205,277.901 544,280.5C 544.232,279.263 544.732,278.263 545.5,277.5C 546.552,277.351 547.552,277.517 548.5,278C 547.594,279.699 547.261,281.533 547.5,283.5C 547.598,285.553 546.931,287.22 545.5,288.5C 543.805,289.826 542.472,289.493 541.5,287.5C 541.34,285.847 540.674,284.514 539.5,283.5C 538.596,282.791 538.263,281.791 538.5,280.5C 538.217,279.711 537.717,279.044 537,278.5C 536.51,279.793 536.343,281.127 536.5,282.5C 536.702,284.95 536.369,287.283 535.5,289.5C 534.167,289.5 532.833,289.5 531.5,289.5C 531.5,287.833 531.5,286.167 531.5,284.5C 531.95,279.798 532.617,275.132 533.5,270.5C 534.158,269.602 534.824,268.602 535.5,267.5C 536.145,269.826 537.478,271.493 539.5,272.5 Z"/></g>
<g><path style="opacity:0.012" fill="#e3f5f8" d="M 538.5,280.5 C 537.833,281.167 537.167,281.833 536.5,282.5C 536.343,281.127 536.51,279.793 537,278.5C 537.717,279.044 538.217,279.711 538.5,280.5 Z"/></g>
<g><path style="opacity:0.925" fill="#93dbe9" d="M 554.5,276.5 C 555.915,280.958 556.915,285.625 557.5,290.5C 555.5,290.5 553.5,290.5 551.5,290.5C 551.5,289.167 551.5,287.833 551.5,286.5C 552.404,287.209 552.737,288.209 552.5,289.5C 553.5,289.5 554.5,289.5 555.5,289.5C 554.92,285.19 554.586,280.857 554.5,276.5 Z"/></g>
<g><path style="opacity:0.169" fill="#d6f2f6" d="M 689.5,284.5 C 688.391,284.557 687.391,284.89 686.5,285.5C 687.053,283.448 688.053,283.115 689.5,284.5 Z"/></g>
<g><path style="opacity:1" fill="#4cc0d9" d="M 59.5,267.5 C 62.8333,267.5 66.1667,267.5 69.5,267.5C 70.1667,267.833 70.8333,268.167 71.5,268.5C 71.5,269.5 71.5,270.5 71.5,271.5C 69.8333,271.5 68.1667,271.5 66.5,271.5C 61.4919,271.168 58.4919,273.502 57.5,278.5C 59.0474,284.44 62.7141,286.44 68.5,284.5C 70.9118,284.694 71.9118,286.027 71.5,288.5C 69.3211,289.926 66.8211,290.592 64,290.5C 61.4563,290.664 59.2897,289.997 57.5,288.5C 57.0269,287.094 56.0269,286.427 54.5,286.5C 50.4475,280.773 50.6142,275.107 55,269.5C 56.3297,268.418 57.8297,267.751 59.5,267.5 Z"/></g>
<g><path style="opacity:1" fill="#6fcbe0" d="M 521.5,276.5 C 522.165,278.369 522.831,280.369 523.5,282.5C 524.527,281.209 525.527,281.209 526.5,282.5C 525.661,285.855 523.661,288.188 520.5,289.5C 520.372,287.91 519.705,286.577 518.5,285.5C 515.75,287.078 513.417,286.745 511.5,284.5C 518.039,285.968 521.373,283.301 521.5,276.5 Z"/></g>
<g><path style="opacity:1" fill="#4dbed8" d="M 596.5,267.5 C 597.806,273.401 597.806,279.401 596.5,285.5C 598.948,286.473 601.615,286.806 604.5,286.5C 604.5,287.5 604.5,288.5 604.5,289.5C 600.5,289.5 596.5,289.5 592.5,289.5C 592.5,282.167 592.5,274.833 592.5,267.5C 593.833,267.5 595.167,267.5 596.5,267.5 Z"/></g>
<g><path style="opacity:0.392" fill="#aae4ee" d="M 357.5,286.5 C 354.061,286.253 350.728,286.586 347.5,287.5C 348.694,286.223 350.36,285.556 352.5,285.5C 354.369,285.507 356.036,285.84 357.5,286.5 Z"/></g>
<g><path style="opacity:0.394" fill="#b0e6f0" d="M 640.5,286.5 C 641.964,285.84 643.631,285.507 645.5,285.5C 647.64,285.556 649.306,286.223 650.5,287.5C 647.272,286.586 643.939,286.253 640.5,286.5 Z"/></g>
<g><path style="opacity:1" fill="#77cee2" d="M 689.5,284.5 C 691.379,285.341 693.379,285.675 695.5,285.5C 692.203,285.89 689.203,286.89 686.5,288.5C 685.167,287.5 685.167,286.5 686.5,285.5C 687.391,284.89 688.391,284.557 689.5,284.5 Z"/></g>
<g><path style="opacity:0.533" fill="#bceaf0" d="M 54.5,286.5 C 56.0269,286.427 57.0269,287.094 57.5,288.5C 55.9731,288.573 54.9731,287.906 54.5,286.5 Z"/></g>
<g><path style="opacity:0.986" fill="#79d0e3" d="M 118.5,277.5 C 119.143,279.076 120.143,280.41 121.5,281.5C 122.461,284.426 123.127,287.426 123.5,290.5C 121.585,290.784 119.919,290.451 118.5,289.5C 119.725,288.848 120.392,287.681 120.5,286C 119.582,283.239 118.916,280.406 118.5,277.5 Z"/></g>
<g><path style="opacity:0.514" fill="#c0eaf2" d="M 218.5,286.5 C 220.027,286.427 221.027,287.094 221.5,288.5C 219.973,288.573 218.973,287.906 218.5,286.5 Z"/></g>
<g><path style="opacity:0.494" fill="#c1ebf3" d="M 368.5,286.5 C 370.027,286.427 371.027,287.094 371.5,288.5C 369.973,288.573 368.973,287.906 368.5,286.5 Z"/></g>
<g><path style="opacity:0.694" fill="#b9e7f1" d="M 382.5,284.5 C 384.153,283.201 385.653,283.534 387,285.5C 387.585,286.998 387.085,287.998 385.5,288.5C 385.912,286.027 384.912,284.694 382.5,284.5 Z"/></g>
<g><path style="opacity:1" fill="#4ec0d9" d="M 426.5,267.5 C 429.833,267.5 433.167,267.5 436.5,267.5C 444.059,271.681 445.893,277.681 442,285.5C 437.86,290.211 432.694,291.711 426.5,290C 419.777,286.137 417.777,280.637 420.5,273.5C 423.901,272.227 425.234,273.56 424.5,277.5C 424.754,282.254 427.254,284.921 432,285.5C 438.871,282.844 440.038,278.677 435.5,273C 432.384,271.029 429.384,271.195 426.5,273.5C 424.771,272.764 423.771,271.43 423.5,269.5C 423.973,268.094 424.973,267.427 426.5,267.5 Z M 424.5,277.5 C 425.674,276.486 426.34,275.153 426.5,273.5C 429.384,271.195 432.384,271.029 435.5,273C 440.038,278.677 438.871,282.844 432,285.5C 427.254,284.921 424.754,282.254 424.5,277.5 Z"/></g>
<g><path style="opacity:0.141" fill="#d3f1f6" d="M 539.5,283.5 C 540.674,284.514 541.34,285.847 541.5,287.5C 539.896,286.713 539.229,285.38 539.5,283.5 Z"/></g>
<g><path style="opacity:0.631" fill="#aee3ef" d="M 610.5,286.5 C 612.027,286.427 613.027,287.094 613.5,288.5C 611.973,288.573 610.973,287.906 610.5,286.5 Z"/></g>
<g><path style="opacity:1" fill="#54c1da" d="M 615.5,267.5 C 618.394,267.042 620.894,267.709 623,269.5C 623.414,269.043 623.914,268.709 624.5,268.5C 626.527,269.083 628.527,270.416 630.5,272.5C 633.71,278.607 632.71,284.107 627.5,289C 622.591,291.141 617.924,290.974 613.5,288.5C 613.027,287.094 612.027,286.427 610.5,286.5C 607.021,282.015 606.687,277.348 609.5,272.5C 611.167,271.5 612.5,270.167 613.5,268.5C 613.842,267.662 614.508,267.328 615.5,267.5 Z M 623.5,284.5 C 620.642,285.885 617.976,285.552 615.5,283.5C 611.866,277.725 613.366,273.725 620,271.5C 627.135,274.34 628.301,278.673 623.5,284.5 Z"/></g>
<g><path style="opacity:0.588" fill="#90dbe9" d="M 615.5,283.5 C 617.976,285.552 620.642,285.885 623.5,284.5C 621.583,286.745 619.25,287.078 616.5,285.5C 615.702,285.043 615.369,284.376 615.5,283.5 Z"/></g>
<g><path style="opacity:0.527" fill="#b3e7f0" d="M 101.5,288.5 C 102.919,289.451 104.585,289.784 106.5,289.5C 104.636,290.793 102.636,290.793 100.5,289.5C 100.624,288.893 100.957,288.56 101.5,288.5 Z"/></g>
<g><path style="opacity:0.514" fill="#93ddeb" d="M 300.5,285.5 C 300.833,285.5 301.167,285.5 301.5,285.5C 304.833,285.5 308.167,285.5 311.5,285.5C 311.5,287.167 311.5,288.833 311.5,290.5C 306.5,290.5 301.5,290.5 296.5,290.5C 296.5,290.167 296.5,289.833 296.5,289.5C 301.167,289.5 305.833,289.5 310.5,289.5C 310.5,288.5 310.5,287.5 310.5,286.5C 306.958,286.813 303.625,286.479 300.5,285.5 Z"/></g>
<g><path style="opacity:0.506" fill="#a1e2ec" d="M 342.5,287.5 C 343.183,289.176 344.517,289.843 346.5,289.5C 345.081,290.451 343.415,290.784 341.5,290.5C 341.263,289.209 341.596,288.209 342.5,287.5 Z"/></g>
<g><path style="opacity:0.525" fill="#b1e6f0" d="M 363.5,287.5 C 364.404,288.209 364.737,289.209 364.5,290.5C 361.918,290.975 359.918,290.308 358.5,288.5C 360.726,290.18 362.393,289.847 363.5,287.5 Z"/></g>
<g><path style="opacity:0.518" fill="#a2e1ee" d="M 531.5,284.5 C 531.5,286.167 531.5,287.833 531.5,289.5C 532.833,289.5 534.167,289.5 535.5,289.5C 534.081,290.451 532.415,290.784 530.5,290.5C 530.205,288.265 530.539,286.265 531.5,284.5 Z"/></g>
<g><path style="opacity:0.804" fill="#9bdeeb" d="M 541.5,287.5 C 542.472,289.493 543.805,289.826 545.5,288.5C 544.817,290.176 543.483,290.843 541.5,290.5C 541.5,289.5 541.5,288.5 541.5,287.5 Z"/></g>
<g><path style="opacity:0.519" fill="#ace5ef" d="M 562.5,266.5 C 562.5,266.833 562.5,267.167 562.5,267.5C 562.5,274.833 562.5,282.167 562.5,289.5C 567.167,289.5 571.833,289.5 576.5,289.5C 576.5,288.5 576.5,287.5 576.5,286.5C 573.167,286.5 569.833,286.5 566.5,286.5C 566.5,284.5 566.5,282.5 566.5,280.5C 569.5,280.5 572.5,280.5 575.5,280.5C 573.052,281.473 570.385,281.806 567.5,281.5C 567.5,282.833 567.5,284.167 567.5,285.5C 570.833,285.5 574.167,285.5 577.5,285.5C 577.5,287.167 577.5,288.833 577.5,290.5C 572.167,290.5 566.833,290.5 561.5,290.5C 561.174,282.316 561.508,274.316 562.5,266.5 Z"/></g>
<g><path style="opacity:0.531" fill="#95deeb" d="M 596.5,267.5 C 595.167,267.5 593.833,267.5 592.5,267.5C 592.5,274.833 592.5,282.167 592.5,289.5C 596.5,289.5 600.5,289.5 604.5,289.5C 604.5,288.5 604.5,287.5 604.5,286.5C 601.615,286.806 598.948,286.473 596.5,285.5C 599.833,285.5 603.167,285.5 606.5,285.5C 606.714,287.144 606.38,288.644 605.5,290C 600.845,290.499 596.179,290.666 591.5,290.5C 591.5,282.5 591.5,274.5 591.5,266.5C 593.415,266.216 595.081,266.549 596.5,267.5 Z"/></g>
<g><path style="opacity:0.551" fill="#b1e6ef" d="M 634.5,288.5 C 635.919,289.451 637.585,289.784 639.5,289.5C 637.636,290.793 635.636,290.793 633.5,289.5C 633.624,288.893 633.957,288.56 634.5,288.5 Z"/></g>
<g><path style="opacity:0.278" fill="#bbeaf1" d="M 655.5,286.5 C 656.954,287.52 657.287,288.687 656.5,290C 654.613,290.78 652.946,290.613 651.5,289.5C 652.833,289.5 654.167,289.5 655.5,289.5C 655.5,288.5 655.5,287.5 655.5,286.5 Z"/></g>
<g><path style="opacity:0.788" fill="#6ccde1" d="M 699.5,288.5 C 697.71,289.997 695.544,290.664 693,290.5C 690.456,290.664 688.29,289.997 686.5,288.5C 691.144,289.59 695.477,289.59 699.5,288.5 Z"/></g>
</svg>
