<?xml version="1.0" encoding="UTF-8"?>
<!DOCTYPE svg PUBLIC "-//W3C//DTD SVG 1.1//EN" "http://www.w3.org/Graphics/SVG/1.1/DTD/svg11.dtd">
<svg xmlns="http://www.w3.org/2000/svg" version="1.1" width="666px" height="375px" style="shape-rendering:geometricPrecision; text-rendering:geometricPrecision; image-rendering:optimizeQuality; fill-rule:evenodd; clip-rule:evenodd" xmlns:xlink="http://www.w3.org/1999/xlink">
<g><path style="opacity:0.592" fill="#ced9e8" d="M 323.5,161.5 C 324.496,148.01 324.829,134.344 324.5,120.5C 310.829,120.333 297.163,120.5 283.5,121C 291.369,128.702 299.036,136.535 306.5,144.5C 297.755,137.259 289.421,129.426 281.5,121C 296.01,119.518 310.676,119.018 325.5,119.5C 325.667,134.17 325.5,148.837 325,163.5C 324.283,162.956 323.783,162.289 323.5,161.5 Z M 301.5,129.5 C 306.64,128.512 311.974,128.179 317.5,128.5C 317.774,133.263 317.441,137.93 316.5,142.5C 313.767,139.761 310.767,137.427 307.5,135.5C 305.833,133.167 303.833,131.167 301.5,129.5 Z"/></g>
<g><path style="opacity:0.985" fill="#5c7cb4" d="M 323.5,161.5 C 320.452,159.118 317.785,156.452 315.5,153.5C 314.933,151.97 314.267,150.47 313.5,149C 314.766,148.691 315.933,148.191 317,147.5C 317.333,147.833 317.667,148.167 318,148.5C 318.821,141.321 318.655,134.321 317.5,127.5C 311.491,127.334 305.491,127.501 299.5,128C 300.044,128.717 300.711,129.217 301.5,129.5C 303.833,131.167 305.833,133.167 307.5,135.5C 310.167,138.5 312.833,141.5 315.5,144.5C 315.349,147.718 314.516,148.051 313,145.5C 312.29,146.973 311.124,147.64 309.5,147.5C 307.856,147.19 306.856,146.19 306.5,144.5C 299.036,136.535 291.369,128.702 283.5,121C 297.163,120.5 310.829,120.333 324.5,120.5C 324.829,134.344 324.496,148.01 323.5,161.5 Z M 301.5,129.5 C 306.64,128.512 311.974,128.179 317.5,128.5C 317.774,133.263 317.441,137.93 316.5,142.5C 313.767,139.761 310.767,137.427 307.5,135.5C 305.833,133.167 303.833,131.167 301.5,129.5 Z"/></g>
<g><path style="opacity:0.013" fill="#f1f8fc" d="M 317.5,127.5 C 317.5,127.833 317.5,128.167 317.5,128.5C 311.974,128.179 306.64,128.512 301.5,129.5C 300.711,129.217 300.044,128.717 299.5,128C 305.491,127.501 311.491,127.334 317.5,127.5 Z"/></g>
<g><path style="opacity:0.004" fill="#d5e1ed" d="M 307.5,135.5 C 310.767,137.427 313.767,139.761 316.5,142.5C 316.5,143.167 316.833,143.5 317.5,143.5C 317.158,144.338 316.492,144.672 315.5,144.5C 312.833,141.5 310.167,138.5 307.5,135.5 Z"/></g>
<g><path style="opacity:0.009" fill="#fcfcfc" d="M 3.5,145.5 C 4.57346,146.251 4.74012,147.251 4,148.5C 3.51722,147.552 3.35055,146.552 3.5,145.5 Z"/></g>
<g><path style="opacity:0.998" fill="#b5b5b8" d="M 364.5,143.5 C 379.041,143.266 388.374,150.1 392.5,164C 390.56,167.278 387.56,168.778 383.5,168.5C 381.852,156.672 375.186,151.505 363.5,153C 356.237,156.253 353.404,161.753 355,169.5C 356.833,172.667 359.333,175.167 362.5,177C 369.167,180 375.833,183 382.5,186C 394.18,194.955 396.68,206.121 390,219.5C 381.358,228.953 370.858,231.787 358.5,228C 347.895,223.723 342.228,216.056 341.5,205C 344.432,204.047 347.432,203.547 350.5,203.5C 354.39,219.274 363.723,224.107 378.5,218C 385.452,209.972 385.119,202.305 377.5,195C 368.085,191.423 359.085,187.09 350.5,182C 343.523,173.118 342.69,163.618 348,153.5C 352.457,148.162 357.957,144.829 364.5,143.5 Z"/></g>
<g><path style="opacity:1" fill="#0d0d0d" d="M 20.5,146.5 C 21.0526,151.806 22.3859,156.806 24.5,161.5C 24.9229,166.54 26.2562,171.207 28.5,175.5C 28.5,175.833 28.5,176.167 28.5,176.5C 29.254,182.86 30.9207,188.86 33.5,194.5C 33.5,194.833 33.5,195.167 33.5,195.5C 33.1706,198.228 33.8372,200.562 35.5,202.5C 35.5,202.833 35.5,203.167 35.5,203.5C 35.6178,206.688 36.4511,209.688 38,212.5C 39.128,210.655 39.628,208.655 39.5,206.5C 41.0395,204.162 41.7062,201.495 41.5,198.5C 41.5,198.167 41.5,197.833 41.5,197.5C 43.4098,194.548 44.4098,191.214 44.5,187.5C 44.6997,184.37 45.3664,181.37 46.5,178.5C 48.1628,176.562 48.8294,174.228 48.5,171.5C 48.5,171.167 48.5,170.833 48.5,170.5C 50.7438,166.207 52.0771,161.54 52.5,156.5C 54.0395,154.162 54.7062,151.495 54.5,148.5C 54.5,148.167 54.5,147.833 54.5,147.5C 59.4053,146.555 64.4053,146.221 69.5,146.5C 69.5,173.167 69.5,199.833 69.5,226.5C 66.8333,226.5 64.1667,226.5 61.5,226.5C 61.6666,202.498 61.5,178.498 61,154.5C 60.023,156.74 59.523,159.073 59.5,161.5C 58.9448,165.397 57.9448,169.063 56.5,172.5C 54.7424,175.854 53.7424,179.521 53.5,183.5C 53.634,185.292 53.3007,186.958 52.5,188.5C 50.9261,190.102 50.2594,192.102 50.5,194.5C 49.4075,201.09 47.7409,207.423 45.5,213.5C 44.0762,215.515 43.4095,217.848 43.5,220.5C 43.7678,222.099 43.4345,223.432 42.5,224.5C 39.5,227.167 36.5,227.167 33.5,224.5C 33.5905,221.848 32.9238,219.515 31.5,217.5C 31.1667,217.5 30.8333,217.5 30.5,217.5C 29.1667,211.167 27.8333,204.833 26.5,198.5C 26.5905,195.848 25.9238,193.515 24.5,191.5C 23.5655,190.432 23.2322,189.099 23.5,187.5C 23.7406,185.102 23.0739,183.102 21.5,181.5C 20.3664,178.63 19.6997,175.63 19.5,172.5C 19.5905,169.848 18.9238,167.515 17.5,165.5C 16.5655,164.432 16.2322,163.099 16.5,161.5C 16.477,159.073 15.977,156.74 15,154.5C 14.5,178.498 14.3334,202.498 14.5,226.5C 11.8333,226.5 9.16667,226.5 6.5,226.5C 6.5,199.833 6.5,173.167 6.5,146.5C 11.1667,146.5 15.8333,146.5 20.5,146.5 Z"/></g>
<g><path style="opacity:1" fill="#849bc2" d="M 317.5,127.5 C 318.655,134.321 318.821,141.321 318,148.5C 317.667,148.167 317.333,147.833 317,147.5C 315.933,148.191 314.766,148.691 313.5,149C 314.267,150.47 314.933,151.97 315.5,153.5C 314.761,153.631 314.094,153.464 313.5,153C 312.279,150.966 310.945,149.133 309.5,147.5C 311.124,147.64 312.29,146.973 313,145.5C 314.516,148.051 315.349,147.718 315.5,144.5C 316.492,144.672 317.158,144.338 317.5,143.5C 316.833,143.5 316.5,143.167 316.5,142.5C 317.441,137.93 317.774,133.263 317.5,128.5C 317.5,128.167 317.5,127.833 317.5,127.5 Z"/></g>
<g><path style="opacity:0.708" fill="#c9c9ca" d="M 545.5,145.5 C 548.518,145.335 551.518,145.502 554.5,146C 554.957,146.414 555.291,146.914 555.5,147.5C 554.509,174.122 554.176,200.789 554.5,227.5C 551.5,227.5 548.5,227.5 545.5,227.5C 545.5,200.167 545.5,172.833 545.5,145.5 Z"/></g>
<g><path style="opacity:1" fill="#a9a8ac" d="M 546.5,146.5 C 548.833,146.5 551.167,146.5 553.5,146.5C 553.5,173.167 553.5,199.833 553.5,226.5C 551.167,226.5 548.833,226.5 546.5,226.5C 546.5,199.833 546.5,173.167 546.5,146.5 Z"/></g>
<g><path style="opacity:0.6" fill="#6c6c6c" d="M 20.5,146.5 C 15.8333,146.5 11.1667,146.5 6.5,146.5C 6.5,173.167 6.5,199.833 6.5,226.5C 9.16667,226.5 11.8333,226.5 14.5,226.5C 14.5,226.833 14.5,227.167 14.5,227.5C 11.5,227.5 8.5,227.5 5.5,227.5C 5.5,200.167 5.5,172.833 5.5,145.5C 10.6946,145.179 15.6946,145.513 20.5,146.5 Z"/></g>
<g><path style="opacity:0.447" fill="#8b8b8b" d="M 61.5,227.5 C 61.5,227.167 61.5,226.833 61.5,226.5C 64.1667,226.5 66.8333,226.5 69.5,226.5C 69.5,199.833 69.5,173.167 69.5,146.5C 64.4053,146.221 59.4053,146.555 54.5,147.5C 59.3958,145.554 64.7291,144.887 70.5,145.5C 70.6666,172.835 70.5,200.169 70,227.5C 67.3787,227.704 64.5453,227.704 61.5,227.5 Z"/></g>
<g><path style="opacity:0.875" fill="#8a8a8a" d="M 20.5,146.5 C 22.591,151.191 23.9244,156.191 24.5,161.5C 22.3859,156.806 21.0526,151.806 20.5,146.5 Z"/></g>
<g><path style="opacity:0.82" fill="#878787" d="M 54.5,148.5 C 54.7062,151.495 54.0395,154.162 52.5,156.5C 52.5651,153.572 53.2318,150.905 54.5,148.5 Z"/></g>
<g><path style="opacity:0.618" fill="#d9d9d9" d="M 427.5,169.5 C 422.833,169.5 418.167,169.5 413.5,169.5C 413.5,163.5 413.5,157.5 413.5,151.5C 411.167,151.5 408.833,151.5 406.5,151.5C 406.5,157.5 406.5,163.5 406.5,169.5C 403.5,169.5 400.5,169.5 397.5,169.5C 399.948,168.527 402.615,168.194 405.5,168.5C 405.5,162.5 405.5,156.5 405.5,150.5C 408.5,150.5 411.5,150.5 414.5,150.5C 414.5,156.5 414.5,162.5 414.5,168.5C 419.032,168.182 423.366,168.515 427.5,169.5 Z"/></g>
<g><path style="opacity:0.999" fill="#ababae" d="M 427.5,169.5 C 427.5,171.833 427.5,174.167 427.5,176.5C 422.833,176.5 418.167,176.5 413.5,176.5C 413.167,191.182 413.501,205.848 414.5,220.5C 418.216,222.612 422.049,222.945 426,221.5C 426.495,223.473 426.662,225.473 426.5,227.5C 422.469,229.439 418.136,229.939 413.5,229C 409.572,227.908 407.239,225.408 406.5,221.5C 406.5,206.5 406.5,191.5 406.5,176.5C 403.5,176.5 400.5,176.5 397.5,176.5C 397.5,174.167 397.5,171.833 397.5,169.5C 400.5,169.5 403.5,169.5 406.5,169.5C 406.5,163.5 406.5,157.5 406.5,151.5C 408.833,151.5 411.167,151.5 413.5,151.5C 413.5,157.5 413.5,163.5 413.5,169.5C 418.167,169.5 422.833,169.5 427.5,169.5 Z"/></g>
<g><path style="opacity:0.675" fill="#a6a6a6" d="M 52.5,156.5 C 52.0771,161.54 50.7438,166.207 48.5,170.5C 49.2327,165.555 50.566,160.888 52.5,156.5 Z"/></g>
<g><path style="opacity:0.124" fill="#dbdbdb" d="M 61.5,226.5 C 61.5,226.833 61.5,227.167 61.5,227.5C 60.8231,206.069 60.1565,184.069 59.5,161.5C 59.523,159.073 60.023,156.74 61,154.5C 61.5,178.498 61.6666,202.498 61.5,226.5 Z"/></g>
<g><path style="opacity:0.077" fill="#e6e6e6" d="M 16.5,161.5 C 15.8333,183.5 15.1667,205.5 14.5,227.5C 14.5,227.167 14.5,226.833 14.5,226.5C 14.3334,202.498 14.5,178.498 15,154.5C 15.977,156.74 16.477,159.073 16.5,161.5 Z"/></g>
<g><path style="opacity:0.643" fill="#a6a6a6" d="M 24.5,161.5 C 26.434,165.888 27.7673,170.555 28.5,175.5C 26.2562,171.207 24.9229,166.54 24.5,161.5 Z"/></g>
<g><path style="opacity:0.561" fill="#909090" d="M 112.5,168.5 C 107.13,168.392 101.797,168.725 96.5,169.5C 99.356,167.994 102.523,167.328 106,167.5C 108.361,167.504 110.527,167.837 112.5,168.5 Z"/></g>
<g><path style="opacity:0.008" fill="#fafbfa" d="M 159.5,167.5 C 160.833,168.167 160.833,168.167 159.5,167.5 Z"/></g>
<g><path style="opacity:0.573" fill="#888888" d="M 203.5,168.5 C 198.463,168.413 193.463,168.746 188.5,169.5C 191.186,168.009 194.186,167.343 197.5,167.5C 199.696,167.505 201.696,167.838 203.5,168.5 Z"/></g>
<g><path style="opacity:0.004" fill="#fafbfa" d="M 206.5,167.5 C 207.833,168.167 207.833,168.167 206.5,167.5 Z"/></g>
<g><path style="opacity:0.573" fill="#898989" d="M 314.5,168.5 C 310.131,168.467 305.798,168.8 301.5,169.5C 303.848,168.048 306.514,167.382 309.5,167.5C 311.369,167.507 313.036,167.84 314.5,168.5 Z"/></g>
<g><path style="opacity:0.008" fill="#bfbfbf" d="M 17.5,165.5 C 18.9238,167.515 19.5905,169.848 19.5,172.5C 18.8333,171.5 18.1667,170.5 17.5,169.5C 17.5,168.167 17.5,166.833 17.5,165.5 Z"/></g>
<g><path style="opacity:1" fill="#1b1b1b" d="M 112.5,168.5 C 115.614,168.555 117.948,169.888 119.5,172.5C 120.167,173.833 121.167,174.833 122.5,175.5C 122.427,177.027 123.094,178.027 124.5,178.5C 124.427,180.027 125.094,181.027 126.5,181.5C 130.316,192.307 130.483,203.307 127,214.5C 125.741,217.356 124.241,220.023 122.5,222.5C 121.167,223.5 119.833,224.5 118.5,225.5C 117.508,225.328 116.842,225.662 116.5,226.5C 113.476,228.782 109.976,229.782 106,229.5C 101.745,229.646 97.9118,228.646 94.5,226.5C 93.4154,224.413 91.7488,223.08 89.5,222.5C 89.4456,220.368 88.4456,219.035 86.5,218.5C 84.5275,215.916 83.5275,212.916 83.5,209.5C 83.5,203.167 83.5,196.833 83.5,190.5C 84.3739,187.211 85.0405,183.877 85.5,180.5C 85.3284,179.508 85.6618,178.842 86.5,178.5C 87.9063,178.027 88.573,177.027 88.5,175.5C 88.8333,174.5 89.5,173.833 90.5,173.5C 92.4044,173.262 93.7377,172.262 94.5,170.5C 94.8417,169.662 95.5084,169.328 96.5,169.5C 101.797,168.725 107.13,168.392 112.5,168.5 Z M 114.5,179.5 C 116.008,181.181 117.008,183.181 117.5,185.5C 117.833,185.5 118.167,185.5 118.5,185.5C 117.833,187.819 117.666,190.153 118,192.5C 118.333,191.5 118.667,190.5 119,189.5C 119.499,195.157 119.666,200.824 119.5,206.5C 118.976,208.306 118.309,209.972 117.5,211.5C 117.672,212.492 117.338,213.158 116.5,213.5C 116.107,215.284 115.441,216.95 114.5,218.5C 112.973,218.427 111.973,219.094 111.5,220.5C 111.167,220.5 110.833,220.5 110.5,220.5C 107.167,221.833 103.833,221.833 100.5,220.5C 99.7095,219.599 98.7095,218.932 97.5,218.5C 97.5,218.167 97.5,217.833 97.5,217.5C 95.0743,214.987 93.4076,211.987 92.5,208.5C 90.8491,199.645 91.5157,190.979 94.5,182.5C 100.201,174.549 106.868,173.549 114.5,179.5 Z"/></g>
<g><path style="opacity:0.004" fill="#fbfcfb" d="M 159.5,168.5 C 159.5,168.833 159.5,169.167 159.5,169.5C 158.83,169.019 158.83,168.685 159.5,168.5 Z"/></g>
<g><path style="opacity:1" fill="#1c1c1c" d="M 222.5,167.5 C 222.5,169.833 222.5,172.167 222.5,174.5C 220.143,174.337 217.81,174.503 215.5,175C 214.226,175.977 214.226,176.811 215.5,177.5C 219.896,185.7 219.229,193.367 213.5,200.5C 212.167,201.167 211.167,202.167 210.5,203.5C 210.5,203.833 210.5,204.167 210.5,204.5C 209.5,204.833 208.833,205.5 208.5,206.5C 206.565,207.15 204.565,207.483 202.5,207.5C 198.131,207.533 193.798,207.2 189.5,206.5C 187.833,207.833 186.167,209.167 184.5,210.5C 182.965,213.33 183.965,214.663 187.5,214.5C 195.944,214.878 204.277,216.044 212.5,218C 222.362,222.288 225.196,229.454 221,239.5C 217.603,243.949 213.103,246.449 207.5,247C 200.986,247.82 194.653,247.653 188.5,246.5C 186.485,245.076 184.152,244.41 181.5,244.5C 180.508,244.672 179.842,244.338 179.5,243.5C 178.738,241.738 177.404,240.738 175.5,240.5C 172.047,236.352 171.714,232.019 174.5,227.5C 175.833,226.833 176.833,225.833 177.5,224.5C 177.973,223.094 178.973,222.427 180.5,222.5C 183.167,221.833 183.167,221.167 180.5,220.5C 179.167,219.833 177.833,219.167 176.5,218.5C 176.5,217.833 176.5,217.167 176.5,216.5C 176.401,213.763 176.735,211.096 177.5,208.5C 178.96,206.537 180.627,204.704 182.5,203C 181.944,202.617 181.611,202.117 181.5,201.5C 181.446,199.368 180.446,198.035 178.5,197.5C 178.167,197.5 177.833,197.5 177.5,197.5C 177.5,196.5 177.5,195.5 177.5,194.5C 177.392,189.13 177.725,183.797 178.5,178.5C 179.906,178.027 180.573,177.027 180.5,175.5C 182.313,172.353 184.98,170.353 188.5,169.5C 193.463,168.746 198.463,168.413 203.5,168.5C 205.679,169.059 207.846,169.726 210,170.5C 213.46,168.603 217.127,167.27 221,166.5C 221.765,166.57 222.265,166.903 222.5,167.5 Z M 204.5,176.5 C 208.545,182.269 209.545,188.603 207.5,195.5C 206.833,195.833 206.167,196.167 205.5,196.5C 204.833,197.5 204.167,198.5 203.5,199.5C 199.901,200.344 196.234,200.677 192.5,200.5C 192.158,199.662 191.492,199.328 190.5,199.5C 189.833,198.167 188.833,197.167 187.5,196.5C 187.107,194.716 186.441,193.05 185.5,191.5C 185.46,188.119 185.793,184.786 186.5,181.5C 186.833,181.5 187.167,181.5 187.5,181.5C 187.328,180.508 187.662,179.842 188.5,179.5C 189.527,177.806 190.861,176.473 192.5,175.5C 196.537,174.489 200.537,174.822 204.5,176.5 Z M 211.5,227.5 C 211.833,228.167 212.167,228.833 212.5,229.5C 212.833,229.5 213.167,229.5 213.5,229.5C 213.5,231.167 213.5,232.833 213.5,234.5C 212.167,235.167 211.167,236.167 210.5,237.5C 209.508,237.328 208.842,237.662 208.5,238.5C 201.167,239.833 193.833,239.833 186.5,238.5C 186.158,237.662 185.492,237.328 184.5,237.5C 184.167,236.5 183.5,235.833 182.5,235.5C 181.454,233.215 181.454,230.882 182.5,228.5C 183.391,227.89 184.391,227.557 185.5,227.5C 187.607,225.348 190.274,224.348 193.5,224.5C 199.629,224.92 205.629,225.92 211.5,227.5 Z"/></g>
<g><path style="opacity:1" fill="#181818" d="M 265.5,173.5 C 265.738,175.404 266.738,176.738 268.5,177.5C 269.167,193.833 269.833,210.167 270.5,226.5C 267.833,226.5 265.167,226.5 262.5,226.5C 262.799,224.396 262.466,222.396 261.5,220.5C 260.893,220.624 260.56,220.957 260.5,221.5C 253.765,229.833 245.765,231.499 236.5,226.5C 236.027,225.094 235.027,224.427 233.5,224.5C 233.573,222.973 232.906,221.973 231.5,221.5C 231.167,221.5 230.833,221.5 230.5,221.5C 230.5,220.833 230.5,220.167 230.5,219.5C 229.248,214.509 229.248,209.509 230.5,204.5C 230.328,203.508 230.662,202.842 231.5,202.5C 233.5,201.167 235.167,199.5 236.5,197.5C 238.336,195.412 240.669,194.079 243.5,193.5C 246.855,193.31 249.855,192.31 252.5,190.5C 255.992,190.554 258.992,189.554 261.5,187.5C 261.763,181.315 259.096,177.315 253.5,175.5C 250.66,174.083 247.993,174.416 245.5,176.5C 242.859,178.804 240.192,181.138 237.5,183.5C 236.609,182.89 235.609,182.557 234.5,182.5C 234.027,181.094 233.027,180.427 231.5,180.5C 230.662,180.158 230.328,179.492 230.5,178.5C 231.167,178.167 231.833,177.833 232.5,177.5C 234.5,176.167 236.167,174.5 237.5,172.5C 241.014,168.917 245.347,167.25 250.5,167.5C 256.54,167.174 261.54,169.174 265.5,173.5 Z M 260.5,195.5 C 261.488,200.64 261.821,205.974 261.5,211.5C 259.167,213.167 257.167,215.167 255.5,217.5C 253.847,217.66 252.514,218.326 251.5,219.5C 248.873,220.092 246.206,220.425 243.5,220.5C 243.158,219.662 242.492,219.328 241.5,219.5C 240.833,218.167 239.833,217.167 238.5,216.5C 238.737,215.209 238.404,214.209 237.5,213.5C 237.232,211.901 237.566,210.568 238.5,209.5C 238.5,208.5 238.5,207.5 238.5,206.5C 245.041,201.229 252.375,197.563 260.5,195.5 Z"/></g>
<g><path style="opacity:1" fill="#090909" d="M 314.5,168.5 C 315.959,168.433 317.292,168.766 318.5,169.5C 318.833,170.167 319.167,170.833 319.5,171.5C 319.738,173.404 320.738,174.738 322.5,175.5C 322.674,177.861 323.007,180.194 323.5,182.5C 323.5,197.167 323.5,211.833 323.5,226.5C 321.167,226.5 318.833,226.5 316.5,226.5C 316.667,211.163 316.5,195.83 316,180.5C 315.722,179.584 315.222,178.918 314.5,178.5C 314.672,177.508 314.338,176.842 313.5,176.5C 307.608,174.619 302.608,175.952 298.5,180.5C 297.5,181.167 296.5,181.833 295.5,182.5C 293.517,196.795 292.85,211.462 293.5,226.5C 291.167,226.5 288.833,226.5 286.5,226.5C 286.5,207.833 286.5,189.167 286.5,170.5C 288.833,170.5 291.167,170.5 293.5,170.5C 293.34,172.199 293.506,173.866 294,175.5C 294.717,174.956 295.217,174.289 295.5,173.5C 296.29,172.599 297.29,171.932 298.5,171.5C 300.027,171.573 301.027,170.906 301.5,169.5C 305.798,168.8 310.131,168.467 314.5,168.5 Z"/></g>
<g><path style="opacity:0.004" fill="#fcfcfc" d="M 318.5,169.5 C 318.897,168.475 319.563,168.308 320.5,169C 319.906,169.464 319.239,169.631 318.5,169.5 Z"/></g>
<g><path style="opacity:0.996" fill="#b4b3b6" d="M 473.5,177.5 C 474.151,193.84 474.818,210.174 475.5,226.5C 472.833,226.5 470.167,226.5 467.5,226.5C 467.799,224.396 467.466,222.396 466.5,220.5C 465.478,220.855 464.811,221.522 464.5,222.5C 456.309,230.909 447.476,231.575 438,224.5C 431.464,214.688 432.298,205.522 440.5,197C 448.717,192.708 457.217,189.208 466,186.5C 466.045,178.246 461.878,174.746 453.5,176C 448.827,177.832 444.827,180.666 441.5,184.5C 439.091,183.299 437.091,181.633 435.5,179.5C 443.901,166.928 454.901,164.095 468.5,171C 470.79,172.777 472.457,174.944 473.5,177.5 Z M 462.5,196.5 C 463.5,196.5 464.5,196.5 465.5,196.5C 469.585,209.911 464.752,217.911 451,220.5C 443.344,218.522 441.011,213.856 444,206.5C 449.355,201.557 455.522,198.224 462.5,196.5 Z"/></g>
<g><path style="opacity:0.004" fill="#fbfcfb" d="M 17.5,169.5 C 16.8333,170.167 16.8333,170.167 17.5,169.5 Z"/></g>
<g><path style="opacity:1" fill="#171717" d="M 166.5,168.5 C 167.5,168.5 168.5,168.5 169.5,168.5C 169.5,170.833 169.5,173.167 169.5,175.5C 167.102,175.259 165.102,175.926 163.5,177.5C 162.71,178.401 161.71,179.068 160.5,179.5C 158.5,179.5 157.5,180.5 157.5,182.5C 155.153,185.861 153.319,189.528 152,193.5C 151.5,204.828 151.333,216.162 151.5,227.5C 148.5,227.5 145.5,227.5 142.5,227.5C 142.5,208.167 142.5,188.833 142.5,169.5C 145.167,169.5 147.833,169.5 150.5,169.5C 150.334,173.514 150.501,177.514 151,181.5C 152.094,179.922 152.928,178.255 153.5,176.5C 155.262,175.738 156.262,174.404 156.5,172.5C 158.027,172.573 159.027,171.906 159.5,170.5C 159.5,170.167 159.5,169.833 159.5,169.5C 161.764,168.781 164.097,168.448 166.5,168.5 Z"/></g>
<g><path style="opacity:0.393" fill="#acacac" d="M 163.5,177.5 C 165.102,175.926 167.102,175.259 169.5,175.5C 169.5,173.167 169.5,170.833 169.5,168.5C 168.5,168.5 167.5,168.5 166.5,168.5C 167.52,167.046 168.687,166.713 170,167.5C 170.498,170.482 170.665,173.482 170.5,176.5C 168.139,176.674 165.806,177.007 163.5,177.5 Z"/></g>
<g><path style="opacity:0.057" fill="#ebebeb" d="M 295.5,173.5 C 295.217,174.289 294.717,174.956 294,175.5C 293.506,173.866 293.34,172.199 293.5,170.5C 291.052,169.527 288.385,169.194 285.5,169.5C 285.5,188.833 285.5,208.167 285.5,227.5C 284.637,228.463 283.97,228.463 283.5,227.5C 284.488,207.88 284.821,188.213 284.5,168.5C 287.833,168.5 291.167,168.5 294.5,168.5C 294.216,170.415 294.549,172.081 295.5,173.5 Z"/></g>
<g><path style="opacity:0.995" fill="#b2b2b5" d="M 500.5,183.5 C 499.504,197.657 499.171,211.99 499.5,226.5C 497.167,226.5 494.833,226.5 492.5,226.5C 492.5,207.5 492.5,188.5 492.5,169.5C 494.833,169.5 497.167,169.5 499.5,169.5C 499.201,171.604 499.534,173.604 500.5,175.5C 501.855,174.812 502.855,173.812 503.5,172.5C 510.174,166.906 517.507,166.073 525.5,170C 528.874,173.443 530.707,177.61 531,182.5C 531.5,197.496 531.667,212.496 531.5,227.5C 528.167,227.5 524.833,227.5 521.5,227.5C 521.667,211.497 521.5,195.497 521,179.5C 518.839,175.876 515.672,174.709 511.5,176C 507.458,178.016 503.791,180.516 500.5,183.5 Z"/></g>
<g><path style="opacity:0.004" fill="#fdfefd" d="M 58.5,170.5 C 59.8333,171.167 59.8333,171.167 58.5,170.5 Z"/></g>
<g><path style="opacity:0.667" fill="#969696" d="M 301.5,169.5 C 301.027,170.906 300.027,171.573 298.5,171.5C 298.973,170.094 299.973,169.427 301.5,169.5 Z"/></g>
<g><path style="opacity:0.997" fill="#b6b6b9" d="M 617.5,168.5 C 620.777,168.216 623.943,168.549 627,169.5C 631.803,183.576 636.803,197.576 642,211.5C 646.501,197.494 651.001,183.494 655.5,169.5C 658.428,168.516 661.428,168.183 664.5,168.5C 658.178,190.633 651.345,212.633 644,234.5C 639.042,245.479 630.709,249.479 619,246.5C 616.838,240.046 618.838,237.713 625,239.5C 632.053,238.083 635.887,233.75 636.5,226.5C 630.166,207.165 623.833,187.832 617.5,168.5 Z"/></g>
<g><path style="opacity:0.737" fill="#767676" d="M 94.5,170.5 C 93.7377,172.262 92.4044,173.262 90.5,173.5C 91.2623,171.738 92.5956,170.738 94.5,170.5 Z"/></g>
<g><path style="opacity:0.211" fill="#cccccc" d="M 153.5,176.5 C 152.928,178.255 152.094,179.922 151,181.5C 150.501,177.514 150.334,173.514 150.5,169.5C 147.833,169.5 145.167,169.5 142.5,169.5C 142.5,188.833 142.5,208.167 142.5,227.5C 141.501,208.576 141.167,188.91 141.5,168.5C 144.833,168.5 148.167,168.5 151.5,168.5C 151.335,171.518 151.502,174.518 152,177.5C 152.383,176.944 152.883,176.611 153.5,176.5 Z"/></g>
<g><path style="opacity:0.796" fill="#747474" d="M 159.5,170.5 C 159.027,171.906 158.027,172.573 156.5,172.5C 156.973,171.094 157.973,170.427 159.5,170.5 Z"/></g>
<g><path style="opacity:0.004" fill="#fdfefd" d="M 282.5,171.5 C 283.833,172.167 283.833,172.167 282.5,171.5 Z"/></g>
<g><path style="opacity:0.866" fill="#2a2a2a" d="M 293.5,170.5 C 291.167,170.5 288.833,170.5 286.5,170.5C 286.5,189.167 286.5,207.833 286.5,226.5C 288.833,226.5 291.167,226.5 293.5,226.5C 293.5,226.833 293.5,227.167 293.5,227.5C 290.523,227.684 287.856,227.684 285.5,227.5C 285.5,208.167 285.5,188.833 285.5,169.5C 288.385,169.194 291.052,169.527 293.5,170.5 Z"/></g>
<g><path style="opacity:0.004" fill="#fbfcfb" d="M 321.5,171.5 C 322.833,172.167 322.833,172.167 321.5,171.5 Z"/></g>
<g><path style="opacity:0.997" fill="#b4b3b6" d="M 611.5,199.5 C 599.833,199.5 588.167,199.5 576.5,199.5C 576.198,202.059 576.532,204.393 577.5,206.5C 579.407,217.609 585.74,222.109 596.5,220C 600.573,218.003 603.906,215.17 606.5,211.5C 608.909,212.701 610.909,214.367 612.5,216.5C 603.987,229.502 592.653,232.669 578.5,226C 572.315,221.474 568.815,215.308 568,207.5C 566.213,196.246 567.88,185.58 573,175.5C 579.307,168.398 587.14,165.898 596.5,168C 603.096,170.319 607.596,174.819 610,181.5C 611.972,187.568 612.472,193.568 611.5,199.5 Z M 587.5,175.5 C 597.356,176.176 601.856,181.509 601,191.5C 593.253,192.482 585.42,192.815 577.5,192.5C 577.606,184.77 580.94,179.103 587.5,175.5 Z"/></g>
<g><path style="opacity:0.004" fill="#fdfefd" d="M 58.5,172.5 C 59.8333,173.167 59.8333,173.167 58.5,172.5 Z"/></g>
<g><path style="opacity:0.035" fill="#b2b2b2" d="M 119.5,172.5 C 121.5,172.5 122.5,173.5 122.5,175.5C 121.167,174.833 120.167,173.833 119.5,172.5 Z"/></g>
<g><path style="opacity:0.957" fill="#696969" d="M 319.5,171.5 C 320.167,171.833 320.833,172.167 321.5,172.5C 322.11,173.391 322.443,174.391 322.5,175.5C 320.738,174.738 319.738,173.404 319.5,171.5 Z"/></g>
<g><path style="opacity:0.831" fill="#7d7d7d" d="M 156.5,172.5 C 156.262,174.404 155.262,175.738 153.5,176.5C 153.738,174.596 154.738,173.262 156.5,172.5 Z"/></g>
<g><path style="opacity:0.671" fill="#858585" d="M 204.5,176.5 C 200.537,174.822 196.537,174.489 192.5,175.5C 193.624,174.191 195.124,173.525 197,173.5C 199.185,173.921 201.351,174.421 203.5,175C 204.056,175.383 204.389,175.883 204.5,176.5 Z"/></g>
<g><path style="opacity:0.404" fill="#a7a7a7" d="M 222.5,167.5 C 223.473,169.948 223.806,172.615 223.5,175.5C 221.143,175.337 218.81,175.503 216.5,176C 215.944,176.383 215.611,176.883 215.5,177.5C 214.226,176.811 214.226,175.977 215.5,175C 217.81,174.503 220.143,174.337 222.5,174.5C 222.5,172.167 222.5,169.833 222.5,167.5 Z"/></g>
<g><path style="opacity:0.388" fill="#9c9c9c" d="M 253.5,175.5 C 250.794,175.575 248.127,175.908 245.5,176.5C 247.993,174.416 250.66,174.083 253.5,175.5 Z"/></g>
<g><path style="opacity:0.792" fill="#8f8f8f" d="M 48.5,171.5 C 48.8294,174.228 48.1628,176.562 46.5,178.5C 46.7215,175.933 47.3882,173.599 48.5,171.5 Z"/></g>
<g><path style="opacity:0.02" fill="#bababa" d="M 56.5,172.5 C 56.2576,176.479 55.2576,180.146 53.5,183.5C 53.7424,179.521 54.7424,175.854 56.5,172.5 Z"/></g>
<g><path style="opacity:0.008" fill="#fbfcfb" d="M 230.5,175.5 C 231.833,176.167 231.833,176.167 230.5,175.5 Z"/></g>
<g><path style="opacity:0.58" fill="#9f9f9f" d="M 237.5,172.5 C 236.167,174.5 234.5,176.167 232.5,177.5C 233.167,174.833 234.833,173.167 237.5,172.5 Z"/></g>
<g><path style="opacity:0.639" fill="#989898" d="M 265.5,173.5 C 266.683,174.504 268.016,175.338 269.5,176C 268.944,176.383 268.611,176.883 268.5,177.5C 266.738,176.738 265.738,175.404 265.5,173.5 Z"/></g>
<g><path style="opacity:0.004" fill="#fbfcfb" d="M 219.5,176.5 C 220.833,177.167 220.833,177.167 219.5,176.5 Z"/></g>
<g><path style="opacity:0.624" fill="#d4d4d5" d="M 397.5,169.5 C 397.5,171.833 397.5,174.167 397.5,176.5C 400.5,176.5 403.5,176.5 406.5,176.5C 406.5,191.5 406.5,206.5 406.5,221.5C 405.504,207.01 405.171,192.343 405.5,177.5C 402.5,177.5 399.5,177.5 396.5,177.5C 396.194,174.615 396.527,171.948 397.5,169.5 Z"/></g>
<g><path style="opacity:0.62" fill="#d2d2d3" d="M 427.5,176.5 C 423.366,177.485 419.032,177.818 414.5,177.5C 414.333,190.837 414.5,204.171 415,217.5C 415.5,219.333 416.667,220.5 418.5,221C 421.514,221.128 424.514,221.128 427.5,221C 427.957,221.414 428.291,221.914 428.5,222.5C 427.972,224.336 427.306,226.003 426.5,227.5C 426.662,225.473 426.495,223.473 426,221.5C 422.049,222.945 418.216,222.612 414.5,220.5C 413.501,205.848 413.167,191.182 413.5,176.5C 418.167,176.5 422.833,176.5 427.5,176.5 Z"/></g>
<g><path style="opacity:0.282" fill="#b7b7b7" d="M 88.5,175.5 C 88.573,177.027 87.9063,178.027 86.5,178.5C 86.427,176.973 87.0937,175.973 88.5,175.5 Z"/></g>
<g><path style="opacity:0.647" fill="#6e6e6e" d="M 122.5,175.5 C 123.906,175.973 124.573,176.973 124.5,178.5C 123.094,178.027 122.427,177.027 122.5,175.5 Z"/></g>
<g><path style="opacity:0.353" fill="#a6a6a6" d="M 180.5,175.5 C 180.573,177.027 179.906,178.027 178.5,178.5C 178.427,176.973 179.094,175.973 180.5,175.5 Z"/></g>
<g><path style="opacity:0.004" fill="#fcfdfc" d="M 230.5,178.5 C 229.833,177.167 229.833,177.167 230.5,178.5 Z"/></g>
<g><path style="opacity:0.027" fill="#dbdbdb" d="M 313.5,176.5 C 314.338,176.842 314.672,177.508 314.5,178.5C 312.302,178.591 311.969,177.925 313.5,176.5 Z"/></g>
<g><path style="opacity:0.004" fill="#fbfcfb" d="M 84.5,180.5 C 83.8333,179.167 83.8333,179.167 84.5,180.5 Z"/></g>
<g><path style="opacity:0.851" fill="#959595" d="M 28.5,176.5 C 30.7673,182.224 32.434,188.224 33.5,194.5C 30.9207,188.86 29.254,182.86 28.5,176.5 Z"/></g>
<g><path style="opacity:0.243" fill="#afafaf" d="M 124.5,178.5 C 125.906,178.973 126.573,179.973 126.5,181.5C 125.094,181.027 124.427,180.027 124.5,178.5 Z"/></g>
<g><path style="opacity:0.008" fill="#cfcfcf" d="M 160.5,179.5 C 159.833,180.833 158.833,181.833 157.5,182.5C 157.5,180.5 158.5,179.5 160.5,179.5 Z"/></g>
<g><path style="opacity:0.004" fill="#fbfcfb" d="M 298.5,180.5 C 299.833,181.167 299.833,181.167 298.5,180.5 Z"/></g>
<g><path style="opacity:0.004" fill="#fafbfa" d="M 231.5,181.5 C 230.833,182.167 230.833,182.167 231.5,181.5 Z"/></g>
<g><path style="opacity:0.384" fill="#aeaeae" d="M 231.5,181.5 C 231.5,181.167 231.5,180.833 231.5,180.5C 233.027,180.427 234.027,181.094 234.5,182.5C 233.391,182.443 232.391,182.11 231.5,181.5 Z"/></g>
<g><path style="opacity:0.4" fill="#a2a2a2" d="M 322.5,175.5 C 323.924,177.515 324.59,179.848 324.5,182.5C 324.167,182.5 323.833,182.5 323.5,182.5C 323.007,180.194 322.674,177.861 322.5,175.5 Z"/></g>
<g><path style="opacity:0.831" fill="#909090" d="M 84.5,180.5 C 84.8333,180.5 85.1667,180.5 85.5,180.5C 85.0405,183.877 84.3739,187.211 83.5,190.5C 83.1667,190.5 82.8333,190.5 82.5,190.5C 82.9595,187.123 83.6261,183.789 84.5,180.5 Z"/></g>
<g><path style="opacity:0.239" fill="#a9a9a9" d="M 234.5,182.5 C 235.609,182.557 236.609,182.89 237.5,183.5C 237.158,184.338 236.492,184.672 235.5,184.5C 235.167,183.833 234.833,183.167 234.5,182.5 Z"/></g>
<g><path style="opacity:0.625" fill="#ccccce" d="M 503.5,172.5 C 502.855,173.812 501.855,174.812 500.5,175.5C 499.534,173.604 499.201,171.604 499.5,169.5C 497.167,169.5 494.833,169.5 492.5,169.5C 492.5,188.5 492.5,207.5 492.5,226.5C 494.833,226.5 497.167,226.5 499.5,226.5C 499.171,211.99 499.504,197.657 500.5,183.5C 500.5,198.167 500.5,212.833 500.5,227.5C 497.5,227.5 494.5,227.5 491.5,227.5C 491.5,207.833 491.5,188.167 491.5,168.5C 494.5,168.5 497.5,168.5 500.5,168.5C 500.088,170.973 501.088,172.306 503.5,172.5 Z"/></g>
<g><path style="opacity:0.467" fill="#a9a9a9" d="M 21.5,181.5 C 23.0739,183.102 23.7406,185.102 23.5,187.5C 22.2616,185.786 21.595,183.786 21.5,181.5 Z"/></g>
<g><path style="opacity:0.004" fill="#fbfcfb" d="M 174.5,184.5 C 175.833,185.167 175.833,185.167 174.5,184.5 Z"/></g>
<g><path style="opacity:0.004" fill="#f9faf9" d="M 235.5,184.5 C 234.833,185.167 234.833,185.167 235.5,184.5 Z"/></g>
<g><path style="opacity:0.248" fill="#bebebe" d="M 295.5,182.5 C 294.848,197.598 294.182,212.598 293.5,227.5C 293.5,227.167 293.5,226.833 293.5,226.5C 292.85,211.462 293.517,196.795 295.5,182.5 Z"/></g>
<g><path style="opacity:0.008" fill="#fcfdfc" d="M 259.5,185.5 C 260.833,186.167 260.833,186.167 259.5,185.5 Z"/></g>
<g><path style="opacity:0.411" fill="#8c8c8c" d="M 268.5,177.5 C 269.268,178.263 269.768,179.263 270,180.5C 270.232,195.525 270.732,210.525 271.5,225.5C 271.672,226.492 271.338,227.158 270.5,227.5C 267.833,227.5 265.167,227.5 262.5,227.5C 262.5,227.167 262.5,226.833 262.5,226.5C 265.167,226.5 267.833,226.5 270.5,226.5C 269.833,210.167 269.167,193.833 268.5,177.5 Z"/></g>
<g><path style="opacity:0.468" fill="#878787" d="M 314.5,178.5 C 315.222,178.918 315.722,179.584 316,180.5C 316.5,195.83 316.667,211.163 316.5,226.5C 316.5,226.833 316.5,227.167 316.5,227.5C 315.79,211.307 315.124,194.974 314.5,178.5 Z"/></g>
<g><path style="opacity:0.678" fill="#555555" d="M 323.5,182.5 C 323.833,182.5 324.167,182.5 324.5,182.5C 324.5,197.5 324.5,212.5 324.5,227.5C 321.833,227.5 319.167,227.5 316.5,227.5C 316.5,227.167 316.5,226.833 316.5,226.5C 318.833,226.5 321.167,226.5 323.5,226.5C 323.5,211.833 323.5,197.167 323.5,182.5 Z"/></g>
<g><path style="opacity:0.675" fill="#7e7e7e" d="M 178.5,178.5 C 177.725,183.797 177.392,189.13 177.5,194.5C 176.837,192.527 176.504,190.361 176.5,188C 176.328,184.523 176.994,181.356 178.5,178.5 Z"/></g>
<g><path style="opacity:0.004" fill="#fcfdfc" d="M 21.5,188.5 C 22.8333,189.167 22.8333,189.167 21.5,188.5 Z"/></g>
<g><path style="opacity:0.259" fill="#a7a7a7" d="M 186.5,181.5 C 185.793,184.786 185.46,188.119 185.5,191.5C 184.844,190.378 184.511,189.045 184.5,187.5C 184.361,185.117 185.028,183.117 186.5,181.5 Z"/></g>
<g><path style="opacity:0.835" fill="#848484" d="M 261.5,187.5 C 258.992,189.554 255.992,190.554 252.5,190.5C 255.254,189.054 258.254,188.054 261.5,187.5 Z"/></g>
<g><path style="opacity:0.753" fill="#989898" d="M 44.5,187.5 C 44.4098,191.214 43.4098,194.548 41.5,197.5C 41.8993,193.884 42.8993,190.55 44.5,187.5 Z"/></g>
<g><path style="opacity:0.49" fill="#a6a6a6" d="M 52.5,188.5 C 52.405,190.786 51.7384,192.786 50.5,194.5C 50.2594,192.102 50.9261,190.102 52.5,188.5 Z"/></g>
<g><path style="opacity:0.765" fill="#737373" d="M 252.5,190.5 C 249.855,192.31 246.855,193.31 243.5,193.5C 246.084,191.528 249.084,190.528 252.5,190.5 Z"/></g>
<g><path style="opacity:0.008" fill="#c0c0c0" d="M 24.5,191.5 C 25.9238,193.515 26.5905,195.848 26.5,198.5C 25.0762,196.485 24.4095,194.152 24.5,191.5 Z"/></g>
<g><path style="opacity:0.008" fill="#fafbfa" d="M 130.5,194.5 C 131.833,195.167 131.833,195.167 130.5,194.5 Z"/></g>
<g><path style="opacity:0.807" fill="#797979" d="M 82.5,190.5 C 82.8333,190.5 83.1667,190.5 83.5,190.5C 83.5,196.833 83.5,203.167 83.5,209.5C 81.5852,203.362 81.2518,197.029 82.5,190.5 Z"/></g>
<g><path style="opacity:0.096" fill="#cccccc" d="M 118.5,185.5 C 120.055,189.203 120.722,193.203 120.5,197.5C 120.498,200.686 120.165,203.686 119.5,206.5C 119.666,200.824 119.499,195.157 119,189.5C 118.667,190.5 118.333,191.5 118,192.5C 117.666,190.153 117.833,187.819 118.5,185.5 Z"/></g>
<g><path style="opacity:0.727" fill="#484848" d="M 260.5,195.5 C 260.56,194.957 260.893,194.624 261.5,194.5C 262.816,200.32 262.816,205.987 261.5,211.5C 261.821,205.974 261.488,200.64 260.5,195.5 Z"/></g>
<g><path style="opacity:0.404" fill="#9c9c9c" d="M 94.5,182.5 C 91.5157,190.979 90.8491,199.645 92.5,208.5C 91.7321,207.737 91.2321,206.737 91,205.5C 90.3333,200.5 90.3333,195.5 91,190.5C 91.3221,187.334 92.4887,184.667 94.5,182.5 Z"/></g>
<g><path style="opacity:0.008" fill="#fbfcfb" d="M 177.5,197.5 C 176.833,198.167 176.833,198.167 177.5,197.5 Z"/></g>
<g><path style="opacity:0.929" fill="#7f7f7f" d="M 178.5,197.5 C 180.446,198.035 181.446,199.368 181.5,201.5C 180.833,201.167 180.167,200.833 179.5,200.5C 179.443,199.391 179.11,198.391 178.5,197.5 Z"/></g>
<g><path style="opacity:0.718" fill="#949494" d="M 187.5,196.5 C 188.833,197.167 189.833,198.167 190.5,199.5C 188.5,199.5 187.5,198.5 187.5,196.5 Z"/></g>
<g><path style="opacity:0.525" fill="#9e9e9e" d="M 207.5,195.5 C 207.167,197.833 205.833,199.167 203.5,199.5C 204.167,198.5 204.833,197.5 205.5,196.5C 206.167,196.167 206.833,195.833 207.5,195.5 Z"/></g>
<g><path style="opacity:0.875" fill="#7c7c7c" d="M 33.5,195.5 C 34.6118,197.599 35.2785,199.933 35.5,202.5C 33.8372,200.562 33.1706,198.228 33.5,195.5 Z"/></g>
<g><path style="opacity:0.266" fill="#e4e4e5" d="M 611.5,199.5 C 600.346,200.495 589.012,200.828 577.5,200.5C 577.5,202.5 577.5,204.5 577.5,206.5C 576.532,204.393 576.198,202.059 576.5,199.5C 588.167,199.5 599.833,199.5 611.5,199.5 Z"/></g>
<g><path style="opacity:0.004" fill="#fcfdfc" d="M 37.5,200.5 C 38.8333,201.167 38.8333,201.167 37.5,200.5 Z"/></g>
<g><path style="opacity:0.008" fill="#fbfbfb" d="M 179.5,200.5 C 180.087,201.767 180.087,202.767 179.5,203.5C 178.224,202.386 178.224,201.386 179.5,200.5 Z"/></g>
<g><path style="opacity:0.014" fill="#c4c4c4" d="M 203.5,199.5 C 203.389,200.117 203.056,200.617 202.5,201C 198.973,201.808 195.64,201.641 192.5,200.5C 196.234,200.677 199.901,200.344 203.5,199.5 Z"/></g>
<g><path style="opacity:0.514" fill="#adadad" d="M 236.5,197.5 C 235.167,199.5 233.5,201.167 231.5,202.5C 231.389,201.883 231.056,201.383 230.5,201C 232.405,199.579 234.405,198.412 236.5,197.5 Z"/></g>
<g><path style="opacity:0.004" fill="#fcfdfc" d="M 37.5,202.5 C 38.5735,203.251 38.7401,204.251 38,205.5C 37.5172,204.552 37.3505,203.552 37.5,202.5 Z"/></g>
<g><path style="opacity:0.831" fill="#838383" d="M 41.5,198.5 C 41.7062,201.495 41.0395,204.162 39.5,206.5C 39.5651,203.572 40.2318,200.905 41.5,198.5 Z"/></g>
<g><path style="opacity:0.004" fill="#fcfdfc" d="M 80.5,202.5 C 81.8333,203.167 81.8333,203.167 80.5,202.5 Z"/></g>
<g><path style="opacity:0.008" fill="#c8c8c8" d="M 213.5,200.5 C 213.5,202.5 212.5,203.5 210.5,203.5C 211.167,202.167 212.167,201.167 213.5,200.5 Z"/></g>
<g><path style="opacity:0.004" fill="#fafbfa" d="M 210.5,204.5 C 211.833,205.167 211.833,205.167 210.5,204.5 Z"/></g>
<g><path style="opacity:0.012" fill="#f8f9f8" d="M 208.5,206.5 C 209.833,207.167 209.833,207.167 208.5,206.5 Z"/></g>
<g><path style="opacity:0.006" fill="#fcfdfc" d="M 175.5,209.5 C 174.475,209.103 174.308,208.437 175,207.5C 175.464,208.094 175.631,208.761 175.5,209.5 Z"/></g>
<g><path style="opacity:0.314" fill="#a5a5a5" d="M 189.5,206.5 C 193.798,207.2 198.131,207.533 202.5,207.5C 201.036,208.16 199.369,208.493 197.5,208.5C 194.514,208.618 191.848,207.952 189.5,206.5 Z"/></g>
<g><path style="opacity:0.576" fill="#9c9c9c" d="M 35.5,203.5 C 36.6005,205.277 37.4338,207.277 38,209.5C 38.2321,208.263 38.7321,207.263 39.5,206.5C 39.628,208.655 39.128,210.655 38,212.5C 36.4511,209.688 35.6178,206.688 35.5,203.5 Z"/></g>
<g><path style="opacity:0.004" fill="#fdfefd" d="M 195.5,209.5 C 196.833,210.167 196.833,210.167 195.5,209.5 Z"/></g>
<g><path style="opacity:0.004" fill="#fdfefd" d="M 197.5,210.5 C 197.897,209.475 198.563,209.308 199.5,210C 198.906,210.464 198.239,210.631 197.5,210.5 Z"/></g>
<g><path style="opacity:0.004" fill="#fdfefd" d="M 200.5,209.5 C 201.833,210.167 201.833,210.167 200.5,209.5 Z"/></g>
<g><path style="opacity:0.522" fill="#8d8d8d" d="M 238.5,206.5 C 238.5,207.5 238.5,208.5 238.5,209.5C 237.566,210.568 237.232,211.901 237.5,213.5C 236.133,210.988 236.466,208.655 238.5,206.5 Z"/></g>
<g><path style="opacity:0.298" fill="#b1b1b1" d="M 230.5,204.5 C 229.248,209.509 229.248,214.509 230.5,219.5C 228.983,217.538 228.316,215.205 228.5,212.5C 228.382,209.514 229.048,206.848 230.5,204.5 Z"/></g>
<g><path style="opacity:0.408" fill="#9d9d9d" d="M 184.5,210.5 C 184.771,212.43 185.771,213.764 187.5,214.5C 183.965,214.663 182.965,213.33 184.5,210.5 Z"/></g>
<g><path style="opacity:0.476" fill="#a6a6a6" d="M 177.5,208.5 C 176.735,211.096 176.401,213.763 176.5,216.5C 175.532,214.393 175.198,212.059 175.5,209.5C 176.167,209.167 176.833,208.833 177.5,208.5 Z"/></g>
<g><path style="opacity:0.765" fill="#6b6b6b" d="M 261.5,211.5 C 260.5,214.5 258.5,216.5 255.5,217.5C 257.167,215.167 259.167,213.167 261.5,211.5 Z"/></g>
<g><path style="opacity:0.004" fill="#fdfefd" d="M 28.5,214.5 C 29.8333,215.167 29.8333,215.167 28.5,214.5 Z"/></g>
<g><path style="opacity:0.004" fill="#c3c3c3" d="M 45.5,213.5 C 45.5905,216.152 44.9238,218.485 43.5,220.5C 43.4095,217.848 44.0762,215.515 45.5,213.5 Z"/></g>
<g><path style="opacity:0.008" fill="#fcfdfc" d="M 30.5,217.5 C 29.8333,218.167 29.8333,218.167 30.5,217.5 Z"/></g>
<g><path style="opacity:0.008" fill="#fbfcfb" d="M 175.5,218.5 C 174.833,217.167 174.833,217.167 175.5,218.5 Z"/></g>
<g><path style="opacity:0.773" fill="#8a8a8a" d="M 238.5,216.5 C 239.833,217.167 240.833,218.167 241.5,219.5C 239.5,219.5 238.5,218.5 238.5,216.5 Z"/></g>
<g><path style="opacity:0.937" fill="#7b7b7b" d="M 86.5,218.5 C 88.4456,219.035 89.4456,220.368 89.5,222.5C 89.1667,222.5 88.8333,222.5 88.5,222.5C 87.8333,221.167 87.1667,219.833 86.5,218.5 Z"/></g>
<g><path style="opacity:0.005" fill="#fbfbfb" d="M 175.5,218.5 C 175.833,218.5 176.167,218.5 176.5,218.5C 176.631,219.376 176.298,220.043 175.5,220.5C 174.537,220.03 174.537,219.363 175.5,218.5 Z"/></g>
<g><path style="opacity:0.004" fill="#fcfdfc" d="M 30.5,220.5 C 29.8333,219.167 29.8333,219.167 30.5,220.5 Z"/></g>
<g><path style="opacity:0.886" fill="#828282" d="M 97.5,218.5 C 98.7095,218.932 99.7095,219.599 100.5,220.5C 98.8212,220.715 97.8212,220.048 97.5,218.5 Z"/></g>
<g><path style="opacity:0.706" fill="#858585" d="M 114.5,218.5 C 114.027,219.906 113.027,220.573 111.5,220.5C 111.973,219.094 112.973,218.427 114.5,218.5 Z"/></g>
<g><path style="opacity:0.007" fill="#dbdbdb" d="M 31.5,217.5 C 32.9238,219.515 33.5905,221.848 33.5,224.5C 32.7321,223.737 32.2321,222.737 32,221.5C 31.5756,225.19 30.7423,225.357 29.5,222C 30.056,221.617 30.3893,221.117 30.5,220.5C 31.404,219.791 31.7373,218.791 31.5,217.5 Z"/></g>
<g><path style="opacity:0.82" fill="#6c6c6c" d="M 251.5,219.5 C 249.007,221.584 246.34,221.917 243.5,220.5C 246.206,220.425 248.873,220.092 251.5,219.5 Z"/></g>
<g><path style="opacity:0.598" fill="#808080" d="M 100.5,220.5 C 103.833,221.833 107.167,221.833 110.5,220.5C 107.167,223.167 103.833,223.167 100.5,220.5 Z"/></g>
<g><path style="opacity:0.518" fill="#a1a1a1" d="M 180.5,220.5 C 183.167,221.167 183.167,221.833 180.5,222.5C 180.5,221.833 180.5,221.167 180.5,220.5 Z"/></g>
<g><path style="opacity:0.006" fill="#fbfbfb" d="M 230.5,221.5 C 230.631,222.239 230.464,222.906 230,223.5C 229.308,222.563 229.475,221.897 230.5,221.5 Z"/></g>
<g><path style="opacity:0.009" fill="#fcfcfc" d="M 58.5,222.5 C 59.6129,223.946 59.7796,225.613 59,227.5C 58.5065,225.866 58.3398,224.199 58.5,222.5 Z"/></g>
<g><path style="opacity:0.008" fill="#fbfbfb" d="M 88.5,222.5 C 88.5,223.167 88.8333,223.5 89.5,223.5C 89.44,224.043 89.1067,224.376 88.5,224.5C 87.2267,223.743 87.2267,223.077 88.5,222.5 Z"/></g>
<g><path style="opacity:0.82" fill="#8f8f8f" d="M 89.5,223.5 C 89.5,223.167 89.5,222.833 89.5,222.5C 91.7488,223.08 93.4154,224.413 94.5,226.5C 93.8333,226.5 93.1667,226.5 92.5,226.5C 91.8333,225.167 90.8333,224.167 89.5,223.5 Z"/></g>
<g><path style="opacity:0.008" fill="#fafbfa" d="M 122.5,222.5 C 123.833,223.167 123.833,223.167 122.5,222.5 Z"/></g>
<g><path style="opacity:0.008" fill="#cecece" d="M 231.5,221.5 C 232.906,221.973 233.573,222.973 233.5,224.5C 232.094,224.027 231.427,223.027 231.5,221.5 Z"/></g>
<g><path style="opacity:0.008" fill="#fbfcfb" d="M 175.5,224.5 C 174.833,223.167 174.833,223.167 175.5,224.5 Z"/></g>
<g><path style="opacity:0.004" fill="#fdfefd" d="M 282.5,223.5 C 283.525,223.897 283.692,224.563 283,225.5C 282.536,224.906 282.369,224.239 282.5,223.5 Z"/></g>
<g><path style="opacity:0.007" fill="#fcfcfc" d="M 5.5,227.5 C 5.44001,228.043 5.10667,228.376 4.5,228.5C 3.38615,227.277 3.21948,225.944 4,224.5C 4.23209,225.737 4.73209,226.737 5.5,227.5 Z"/></g>
<g><path style="opacity:0.004" fill="#fbfcfb" d="M 222.5,224.5 C 223.833,225.167 223.833,225.167 222.5,224.5 Z"/></g>
<g><path style="opacity:0.396" fill="#acacac" d="M 233.5,224.5 C 235.027,224.427 236.027,225.094 236.5,226.5C 234.973,226.573 233.973,225.906 233.5,224.5 Z"/></g>
<g><path style="opacity:0.692" fill="#868686" d="M 33.5,224.5 C 36.5,227.167 39.5,227.167 42.5,224.5C 42.5,225.5 42.5,226.5 42.5,227.5C 39.0406,227.62 35.8739,227.954 33,228.5C 32.805,227.181 32.9717,225.847 33.5,224.5 Z"/></g>
<g><path style="opacity:0.012" fill="#fafbfa" d="M 92.5,226.5 C 91.8333,227.167 91.8333,227.167 92.5,226.5 Z"/></g>
<g><path style="opacity:0.004" fill="#e9e9e9" d="M 116.5,226.5 C 116.842,225.662 117.508,225.328 118.5,225.5C 119.504,227.677 118.838,228.011 116.5,226.5 Z"/></g>
<g><path style="opacity:0.435" fill="#a7a7a7" d="M 175.5,224.5 C 176.167,224.5 176.833,224.5 177.5,224.5C 176.833,225.833 175.833,226.833 174.5,227.5C 174.557,226.391 174.89,225.391 175.5,224.5 Z"/></g>
<g><path style="opacity:0.067" fill="#bbbbbb" d="M 260.5,221.5 C 260.56,220.957 260.893,220.624 261.5,220.5C 262.466,222.396 262.799,224.396 262.5,226.5C 262.5,226.833 262.5,227.167 262.5,227.5C 261.833,225.5 261.167,223.5 260.5,221.5 Z"/></g>
<g><path style="opacity:0.671" fill="#d6d6d7" d="M 473.5,177.5 C 474.268,178.263 474.768,179.263 475,180.5C 475.333,194.5 475.667,208.5 476,222.5C 476.273,224.101 476.773,225.601 477.5,227C 473.698,227.917 470.032,228.083 466.5,227.5C 466.923,225.219 466.256,223.552 464.5,222.5C 464.811,221.522 465.478,220.855 466.5,220.5C 467.466,222.396 467.799,224.396 467.5,226.5C 470.167,226.5 472.833,226.5 475.5,226.5C 474.818,210.174 474.151,193.84 473.5,177.5 Z"/></g>
<g><path style="opacity:0.671" fill="#9d9d9d" d="M 211.5,227.5 C 212.833,227.5 213.5,228.167 213.5,229.5C 213.167,229.5 212.833,229.5 212.5,229.5C 212.167,228.833 211.833,228.167 211.5,227.5 Z"/></g>
<g><path style="opacity:0.008" fill="#f9f9f9" d="M 271.5,225.5 C 272.776,226.386 272.776,227.386 271.5,228.5C 270.893,228.376 270.56,228.043 270.5,227.5C 271.338,227.158 271.672,226.492 271.5,225.5 Z"/></g>
<g><path style="opacity:0.005" fill="#fcfcfc" d="M 170.5,229.5 C 171.598,230.601 171.765,231.934 171,233.5C 170.51,232.207 170.343,230.873 170.5,229.5 Z"/></g>
<g><path style="opacity:0.569" fill="#8a8a8a" d="M 182.5,228.5 C 181.454,230.882 181.454,233.215 182.5,235.5C 179.966,233.25 179.966,230.916 182.5,228.5 Z"/></g>
<g><path style="opacity:0.631" fill="#a3a3a3" d="M 182.5,235.5 C 183.5,235.833 184.167,236.5 184.5,237.5C 183.167,237.5 182.5,236.833 182.5,235.5 Z"/></g>
<g><path style="opacity:0.635" fill="#909090" d="M 213.5,234.5 C 213.5,236.5 212.5,237.5 210.5,237.5C 211.167,236.167 212.167,235.167 213.5,234.5 Z"/></g>
<g><path style="opacity:0.008" fill="#fbfcfb" d="M 172.5,239.5 C 173.833,240.167 173.833,240.167 172.5,239.5 Z"/></g>
<g><path style="opacity:0.091" fill="#b4b4b4" d="M 186.5,238.5 C 193.833,239.833 201.167,239.833 208.5,238.5C 208.082,239.222 207.416,239.722 206.5,240C 200.5,240.667 194.5,240.667 188.5,240C 187.584,239.722 186.918,239.222 186.5,238.5 Z"/></g>
<g><path style="opacity:0.765" fill="#8b8b8b" d="M 175.5,240.5 C 177.404,240.738 178.738,241.738 179.5,243.5C 178.391,243.443 177.391,243.11 176.5,242.5C 176.167,241.833 175.833,241.167 175.5,240.5 Z"/></g>
<g><path style="opacity:0.008" fill="#fafbfa" d="M 176.5,242.5 C 175.833,243.167 175.833,243.167 176.5,242.5 Z"/></g>
<g><path style="opacity:0.725" fill="#686868" d="M 181.5,244.5 C 184.152,244.41 186.485,245.076 188.5,246.5C 185.848,246.59 183.515,245.924 181.5,244.5 Z"/></g>
</svg>
